# This file uses centimeters as units for non-parametric coordinates.

mtllib BoneV3_20220505.mtl
g default
v -0.343907 -0.068389 -0.847153
v -0.343907 0.068389 -0.847153
v -0.410242 -0.000000 -0.882349
v -0.321796 0.000000 -0.835421
v -0.388130 0.068389 -0.870617
v -0.388130 -0.068389 -0.870617
v -0.636757 -0.000000 -0.313253
v -0.616875 0.000000 0.157494
v -0.426899 -0.000000 0.513832
v -0.067772 0.000000 0.687525
v 0.355465 0.000000 0.633492
v 0.766994 0.000000 0.207033
v -0.607944 -0.062296 -0.303532
v -0.602265 -0.056204 0.158876
v -0.405116 -0.050112 0.498736
v -0.061955 -0.044020 0.682997
v 0.353343 -0.037927 0.619772
v 0.757959 -0.029348 0.201223
v -0.565481 -0.062296 -0.286906
v -0.561125 -0.056204 0.158421
v -0.373406 -0.050112 0.480293
v -0.046748 -0.044020 0.654587
v 0.349099 -0.037927 0.592335
v 0.739889 -0.029347 0.189606
v -0.554347 -0.000000 -0.280419
v -0.540555 0.000000 0.158194
v -0.355496 0.000028 0.468878
v -0.039144 0.000000 0.640382
v 0.345745 -0.000000 0.575873
v 0.730854 0.000000 0.183796
v -0.565481 0.062296 -0.286906
v -0.561125 0.056204 0.158421
v -0.374232 0.048139 0.481079
v -0.046748 0.044020 0.654587
v 0.349099 0.037927 0.592335
v 0.739889 0.029348 0.189606
v -0.607944 0.062296 -0.303532
v -0.602265 0.056204 0.158876
v -0.405116 0.050112 0.498736
v -0.061955 0.044020 0.682997
v 0.352204 0.034837 0.617250
v 0.757959 0.029347 0.201223
v 0.588635 -0.000000 0.448329
v 0.583130 -0.034881 0.439489
v 0.569629 -0.034881 0.419388
v 0.562878 0.000000 0.409336
v 0.569629 0.034881 0.419388
v 0.583130 0.034881 0.439489
v 0.778018 0.000000 0.172440
v 0.772951 -0.016458 0.169182
v 0.762818 -0.016458 0.162668
v 0.757751 0.000000 0.159409
v 0.762818 0.016458 0.162668
v 0.772951 0.016458 0.169182
v 0.773101 0.000000 0.157812
v -0.354415 0.062033 -0.898610
v -0.368140 0.019585 -0.905892
v -0.326966 0.062033 -0.884046
v -0.313242 0.019585 -0.876764
v -0.326966 -0.022864 -0.884046
v -0.354415 -0.022864 -0.898610
v -0.332432 0.019585 -0.906893
vt 0.104481 0.822066
vt 0.102999 0.952800
vt 0.103363 0.908872
vt 0.099573 0.778717
vt 0.102808 0.933832
vt 0.104480 0.887743
vt 0.375245 0.896160
vt 0.550484 0.899241
vt 0.671612 0.901516
vt 0.769091 0.903522
vt 0.859190 0.905425
vt 0.964279 0.907392
vt 0.377512 0.868417
vt 0.552627 0.878931
vt 0.673292 0.886836
vt 0.770487 0.892985
vt 0.859925 0.897364
vt 0.964431 0.902745
vt 0.381619 0.849564
vt 0.556829 0.865578
vt 0.676707 0.877383
vt 0.773358 0.886425
vt 0.861402 0.892040
vt 0.964734 0.899489
vt 0.382906 0.971219
vt 0.558862 0.954710
vt 0.678460 0.941359
vt 0.774463 0.931948
vt 0.861871 0.927353
vt 0.965220 0.920411
vt 0.379847 0.942436
vt 0.555499 0.933115
vt 0.675779 0.925832
vt 0.772607 0.920782
vt 0.860892 0.918885
vt 0.964353 0.915285
vt 0.376458 0.923715
vt 0.551825 0.919615
vt 0.672731 0.916251
vt 0.770023 0.914122
vt 0.859619 0.913516
vt 0.964207 0.912031
vt 0.914315 0.906372
vt 0.914922 0.899758
vt 0.916072 0.895551
vt 0.916492 0.924027
vt 0.915663 0.917248
vt 0.914673 0.912999
vt 0.969203 0.907597
vt 0.969208 0.904846
vt 0.970042 0.903185
vt 0.972695 0.913974
vt 0.969779 0.912019
vt 0.969059 0.910321
vt 0.972553 0.907727
vt 0.088787 0.908319
vt 0.087911 0.929282
vt 0.084783 0.940303
vt 0.059442 0.843523
vt 0.081930 0.852471
vt 0.087207 0.878847
vt 0.058422 0.906578
vt 0.066443 0.956881
vt 0.101435 0.985748
vt 0.973147 0.901410
vt 0.965845 0.894381
vt 0.917153 0.888797
vt 0.862703 0.883627
vt 0.775690 0.875352
vt 0.679989 0.861968
vt 0.561037 0.844126
vt 0.385805 0.820564
vn -0.100843 0.223086 -0.969569
vn -0.100843 0.223086 -0.969569
vn -0.100843 0.223086 -0.969569
vn -0.027576 0.177665 -0.983705
vn -0.027576 0.177665 -0.983705
vn -0.027576 0.177665 -0.983705
vn -0.873112 -0.341911 -0.347522
vn -0.873112 -0.341911 -0.347522
vn -0.873112 -0.341911 -0.347522
vn -0.839612 -0.438379 -0.320742
vn -0.839612 -0.438379 -0.320742
vn -0.839612 -0.438379 -0.320742
vn -0.909223 -0.414534 0.038402
vn -0.909223 -0.414534 0.038402
vn -0.909223 -0.414534 0.038402
vn -0.967817 -0.251194 0.015195
vn -0.967817 -0.251194 0.015195
vn -0.967817 -0.251194 0.015195
vn -0.862211 -0.212820 0.459674
vn -0.862211 -0.212820 0.459674
vn -0.862211 -0.212820 0.459674
vn -0.761426 -0.466560 0.450059
vn -0.761426 -0.466560 0.450059
vn -0.761426 -0.466560 0.450059
vn -0.395492 -0.418240 0.817717
vn -0.395492 -0.418240 0.817717
vn -0.395492 -0.418240 0.817717
vn -0.465543 -0.151215 0.872012
vn -0.465543 -0.151215 0.872012
vn -0.465543 -0.151215 0.872012
vn 0.126180 -0.084990 0.988360
vn 0.126180 -0.084990 0.988360
vn 0.126180 -0.084990 0.988360
vn 0.146262 -0.343735 0.927606
vn 0.146261 -0.343735 0.927606
vn 0.146261 -0.343735 0.927606
vn 0.774867 -0.267446 0.572760
vn 0.774867 -0.267446 0.572760
vn 0.774867 -0.267446 0.572760
vn 0.761039 -0.343260 0.550447
vn 0.761039 -0.343260 0.550447
vn 0.761039 -0.343260 0.550447
vn -0.004727 -0.999949 0.008910
vn -0.004727 -0.999949 0.008910
vn -0.004727 -0.999949 0.008910
vn -0.003687 -0.999949 0.009416
vn -0.003687 -0.999949 0.009416
vn -0.003687 -0.999949 0.009416
vn -0.005183 -0.999899 0.013238
vn -0.005183 -0.999899 0.013238
vn -0.005183 -0.999899 0.013238
vn 0.000151 -0.999906 0.013678
vn 0.000151 -0.999907 0.013678
vn 0.000151 -0.999907 0.013678
vn 0.000197 -0.999841 0.017808
vn 0.000197 -0.999841 0.017808
vn 0.000197 -0.999841 0.017808
vn 0.008219 -0.999866 0.014131
vn 0.008219 -0.999866 0.014131
vn 0.008219 -0.999866 0.014131
vn 0.009229 -0.999832 0.015868
vn 0.009229 -0.999831 0.015868
vn 0.009229 -0.999832 0.015868
vn 0.014505 -0.999865 0.007764
vn 0.014505 -0.999865 0.007764
vn 0.014505 -0.999865 0.007764
vn 0.015971 -0.999836 0.008549
vn 0.015971 -0.999836 0.008549
vn 0.015971 -0.999836 0.008549
vn 0.015025 -0.999884 -0.002324
vn 0.015025 -0.999884 -0.002324
vn 0.015025 -0.999884 -0.002324
vn 0.016519 -0.999802 -0.011095
vn 0.016519 -0.999802 -0.011095
vn 0.016519 -0.999802 -0.011095
vn 0.010466 -0.999812 -0.016321
vn 0.010466 -0.999812 -0.016321
vn 0.010466 -0.999812 -0.016321
vn 0.872577 -0.341960 0.348816
vn 0.872577 -0.341960 0.348816
vn 0.872577 -0.341960 0.348816
vn 0.903504 -0.200896 0.378577
vn 0.903504 -0.200896 0.378577
vn 0.903505 -0.200896 0.378577
vn 0.984507 -0.175198 -0.007232
vn 0.984507 -0.175198 -0.007232
vn 0.984507 -0.175198 -0.007232
vn 0.938634 -0.343650 -0.029515
vn 0.938634 -0.343650 -0.029515
vn 0.938634 -0.343650 -0.029515
vn 0.825429 -0.304021 -0.475645
vn 0.825429 -0.304021 -0.475645
vn 0.825429 -0.304021 -0.475645
vn 0.791165 -0.389882 -0.471222
vn 0.791165 -0.389882 -0.471222
vn 0.791165 -0.389882 -0.471222
vn 0.446490 -0.347232 -0.824668
vn 0.446490 -0.347232 -0.824668
vn 0.446489 -0.347232 -0.824668
vn 0.447536 -0.343715 -0.825573
vn 0.447536 -0.343715 -0.825573
vn 0.447536 -0.343715 -0.825573
vn -0.144865 -0.281111 -0.948678
vn -0.144865 -0.281111 -0.948678
vn -0.144865 -0.281111 -0.948678
vn -0.151150 -0.404796 -0.901828
vn -0.151150 -0.404797 -0.901828
vn -0.151150 -0.404796 -0.901828
vn -0.759895 -0.311489 -0.570556
vn -0.759895 -0.311489 -0.570556
vn -0.759895 -0.311489 -0.570557
vn -0.753352 -0.343007 -0.561076
vn -0.753353 -0.343007 -0.561076
vn -0.753352 -0.343007 -0.561076
vn 0.872577 0.341960 0.348816
vn 0.872577 0.341960 0.348816
vn 0.872577 0.341960 0.348816
vn 0.903504 0.200898 0.378577
vn 0.903504 0.200898 0.378577
vn 0.903504 0.200898 0.378577
vn 0.984506 0.175199 -0.007232
vn 0.984506 0.175199 -0.007232
vn 0.984506 0.175199 -0.007232
vn 0.938635 0.343648 -0.029515
vn 0.938634 0.343649 -0.029515
vn 0.938634 0.343648 -0.029515
vn 0.827446 0.304743 -0.471663
vn 0.827446 0.304743 -0.471663
vn 0.827446 0.304743 -0.471663
vn 0.779207 0.421166 -0.464172
vn 0.779207 0.421166 -0.464172
vn 0.779207 0.421166 -0.464172
vn 0.437265 0.377316 -0.816353
vn 0.437265 0.377316 -0.816353
vn 0.437265 0.377316 -0.816353
vn 0.447583 0.343715 -0.825548
vn 0.447583 0.343715 -0.825548
vn 0.447583 0.343715 -0.825548
vn -0.144865 0.281111 -0.948678
vn -0.144865 0.281111 -0.948678
vn -0.144865 0.281111 -0.948678
vn -0.151150 0.404796 -0.901828
vn -0.151150 0.404796 -0.901828
vn -0.151150 0.404796 -0.901828
vn -0.759896 0.311486 -0.570557
vn -0.759896 0.311486 -0.570557
vn -0.759896 0.311486 -0.570557
vn -0.753353 0.343003 -0.561077
vn -0.753353 0.343003 -0.561077
vn -0.753353 0.343003 -0.561077
vn -0.004728 0.999949 0.008910
vn -0.004728 0.999949 0.008910
vn -0.004728 0.999949 0.008910
vn -0.003687 0.999949 0.009416
vn -0.003687 0.999949 0.009416
vn -0.003687 0.999949 0.009416
vn -0.005183 0.999899 0.013238
vn -0.005183 0.999899 0.013238
vn -0.005183 0.999899 0.013238
vn 0.000151 0.999907 0.013678
vn 0.000151 0.999907 0.013678
vn 0.000151 0.999906 0.013678
vn 0.000197 0.999841 0.017808
vn 0.000197 0.999841 0.017808
vn 0.000197 0.999841 0.017808
vn 0.058622 0.998240 -0.009004
vn 0.058622 0.998240 -0.009004
vn 0.058622 0.998240 -0.009004
vn 0.040027 0.998335 -0.041538
vn 0.040027 0.998335 -0.041538
vn 0.040027 0.998335 -0.041538
vn 0.009799 0.999938 0.005245
vn 0.009799 0.999938 0.005245
vn 0.009799 0.999938 0.005245
vn 0.024221 0.999623 0.012965
vn 0.024221 0.999623 0.012965
vn 0.024221 0.999623 0.012965
vn 0.033959 0.992336 0.118813
vn 0.033959 0.992336 0.118813
vn 0.033959 0.992336 0.118813
vn 0.016520 0.999802 -0.011096
vn 0.016520 0.999802 -0.011096
vn 0.016520 0.999802 -0.011096
vn 0.010501 0.999812 -0.016293
vn 0.010501 0.999812 -0.016293
vn 0.010501 0.999812 -0.016293
vn -0.873112 0.341912 -0.347522
vn -0.873112 0.341912 -0.347522
vn -0.873112 0.341912 -0.347522
vn -0.839613 0.438377 -0.320743
vn -0.839613 0.438377 -0.320743
vn -0.839613 0.438377 -0.320743
vn -0.909224 0.414533 0.038402
vn -0.909224 0.414533 0.038402
vn -0.909224 0.414533 0.038402
vn -0.967817 0.251195 0.015195
vn -0.967817 0.251195 0.015195
vn -0.967817 0.251195 0.015195
vn -0.862211 0.212820 0.459674
vn -0.862211 0.212820 0.459674
vn -0.862211 0.212820 0.459674
vn -0.761426 0.466558 0.450059
vn -0.761426 0.466558 0.450059
vn -0.761426 0.466558 0.450059
vn -0.395492 0.418240 0.817717
vn -0.395492 0.418240 0.817717
vn -0.395492 0.418240 0.817717
vn -0.465543 0.151215 0.872012
vn -0.465543 0.151215 0.872011
vn -0.465543 0.151215 0.872012
vn 0.126180 0.084990 0.988360
vn 0.126180 0.084990 0.988360
vn 0.126180 0.084990 0.988360
vn 0.150880 0.429282 0.890479
vn 0.150880 0.429282 0.890479
vn 0.150880 0.429282 0.890479
vn 0.774867 0.267448 0.572759
vn 0.774867 0.267448 0.572759
vn 0.774867 0.267448 0.572759
vn 0.761039 0.343263 0.550445
vn 0.761039 0.343263 0.550445
vn 0.761039 0.343263 0.550445
vn 0.592621 -0.303116 0.746272
vn 0.592621 -0.303116 0.746272
vn 0.592621 -0.303116 0.746272
vn 0.594095 -0.284446 0.752424
vn 0.594095 -0.284446 0.752424
vn 0.594095 -0.284446 0.752424
vn 0.011820 -0.999928 -0.001829
vn 0.011820 -0.999929 -0.001829
vn 0.011820 -0.999928 -0.001829
vn 0.009046 -0.999941 -0.006076
vn 0.009046 -0.999941 -0.006076
vn 0.009046 -0.999941 -0.006076
vn -0.570402 -0.368955 -0.733836
vn -0.570402 -0.368955 -0.733836
vn -0.570402 -0.368955 -0.733836
vn -0.575055 -0.327361 -0.749765
vn -0.575055 -0.327361 -0.749765
vn -0.575055 -0.327361 -0.749765
vn -0.570402 0.368955 -0.733835
vn -0.570402 0.368955 -0.733835
vn -0.570402 0.368955 -0.733835
vn -0.575055 0.327358 -0.749765
vn -0.575055 0.327358 -0.749765
vn -0.575055 0.327358 -0.749765
vn 0.086050 0.989972 0.112028
vn 0.086050 0.989972 0.112028
vn 0.086050 0.989972 0.112028
vn 0.009046 0.999941 -0.006076
vn 0.009046 0.999941 -0.006076
vn 0.009046 0.999941 -0.006076
vn 0.572679 0.389830 0.721160
vn 0.572679 0.389830 0.721160
vn 0.572679 0.389830 0.721160
vn 0.584687 0.284790 0.759629
vn 0.584687 0.284790 0.759629
vn 0.584687 0.284790 0.759629
vn 0.898336 -0.333230 0.286270
vn 0.898336 -0.333230 0.286270
vn 0.898336 -0.333230 0.286270
vn 0.898333 -0.333235 0.286273
vn 0.898333 -0.333235 0.286273
vn 0.898333 -0.333235 0.286273
vn 0.186601 -0.938573 -0.290278
vn 0.186601 -0.938573 -0.290278
vn 0.186601 -0.938573 -0.290278
vn 0.186596 -0.938571 -0.290287
vn 0.186596 -0.938571 -0.290287
vn 0.186596 -0.938571 -0.290287
vn -0.633277 -0.333246 -0.698503
vn -0.633277 -0.333246 -0.698503
vn -0.633277 -0.333246 -0.698503
vn -0.633288 -0.333310 -0.698464
vn -0.633288 -0.333310 -0.698464
vn -0.633288 -0.333310 -0.698464
vn -0.633276 0.333242 -0.698507
vn -0.633276 0.333242 -0.698507
vn -0.633276 0.333242 -0.698507
vn -0.633287 0.333312 -0.698463
vn -0.633287 0.333312 -0.698463
vn -0.633287 0.333312 -0.698463
vn 0.186642 0.938569 -0.290263
vn 0.186642 0.938569 -0.290263
vn 0.186642 0.938569 -0.290264
vn 0.186587 0.938577 -0.290274
vn 0.186587 0.938577 -0.290274
vn 0.186587 0.938577 -0.290274
vn 0.898333 0.333236 0.286272
vn 0.898333 0.333236 0.286272
vn 0.898333 0.333236 0.286272
vn 0.898333 0.333234 0.286273
vn 0.898333 0.333234 0.286273
vn 0.898333 0.333234 0.286273
vn 0.466513 -0.505616 -0.725753
vn 0.466513 -0.505616 -0.725753
vn 0.466513 -0.505616 -0.725753
vn 0.466513 0.505616 -0.725753
vn 0.466513 0.505616 -0.725753
vn 0.466513 0.505616 -0.725753
vn 0.924002 0.222977 -0.310646
vn 0.924002 0.222977 -0.310646
vn 0.924002 0.222977 -0.310646
vn 0.924003 -0.222976 -0.310646
vn 0.924003 -0.222976 -0.310646
vn 0.924003 -0.222976 -0.310646
vn -0.100843 -0.223086 -0.969569
vn -0.100843 -0.223086 -0.969569
vn -0.100843 -0.223086 -0.969569
vn -0.570554 0.314610 -0.758610
vn -0.570554 0.314610 -0.758610
vn -0.570554 0.314610 -0.758610
vn -0.570557 0.314609 -0.758608
vn -0.570557 0.314609 -0.758608
vn -0.570557 0.314609 -0.758608
vn 0.072609 0.987927 -0.136849
vn 0.072609 0.987927 -0.136849
vn 0.072609 0.987927 -0.136849
vn 0.072609 0.987927 -0.136849
vn 0.072609 0.987927 -0.136849
vn 0.072609 0.987927 -0.136849
vn 0.874997 0.341731 0.342927
vn 0.874997 0.341731 0.342927
vn 0.874997 0.341731 0.342927
vn 0.874998 0.341732 0.342927
vn 0.874998 0.341732 0.342927
vn 0.874998 0.341732 0.342927
vn 0.948051 -0.314608 0.047128
vn 0.948051 -0.314608 0.047128
vn 0.948051 -0.314608 0.047128
vn 0.948052 -0.314606 0.047127
vn 0.948052 -0.314606 0.047127
vn 0.948052 -0.314606 0.047127
vn 0.350063 -0.664947 -0.659774
vn 0.350063 -0.664947 -0.659774
vn 0.350063 -0.664947 -0.659774
vn 0.350063 -0.664947 -0.659774
vn 0.350062 -0.664947 -0.659774
vn 0.350062 -0.664947 -0.659774
vn -0.370149 -0.272052 -0.888244
vn -0.370149 -0.272052 -0.888244
vn -0.370149 -0.272052 -0.888244
vn -0.370148 -0.272051 -0.888245
vn -0.370148 -0.272051 -0.888245
vn -0.370148 -0.272051 -0.888245
vn 0.432881 -0.383372 -0.815868
vn 0.432881 -0.383372 -0.815868
vn 0.432881 -0.383372 -0.815868
vn 0.432881 0.383373 -0.815868
vn 0.432881 0.383373 -0.815868
vn 0.432881 0.383373 -0.815868
vn 0.830017 0.177665 -0.528684
vn 0.830017 0.177665 -0.528684
vn 0.830017 0.177665 -0.528684
vn 0.830017 -0.177665 -0.528684
vn 0.830017 -0.177665 -0.528684
vn 0.830017 -0.177665 -0.528684
vn -0.027576 -0.177665 -0.983705
vn -0.027576 -0.177665 -0.983705
vn -0.027576 -0.177665 -0.983705
s off
g rib
usemtl phong1SG
f 53/53/1 55/55/2 52/52/3
f 57/56/4 56/57/5 62/62/6
f 3/3/7 6/6/8 7/7/9
f 7/7/10 6/6/11 13/13/12
f 7/7/13 13/13/14 8/8/15
f 8/8/16 13/13/17 14/14/18
f 8/8/19 14/14/20 9/9/21
f 9/9/22 14/14/23 15/15/24
f 9/9/25 15/15/26 10/10/27
f 10/10/28 15/15/29 16/16/30
f 10/10/31 16/16/32 11/11/33
f 11/11/34 16/16/35 17/17/36
f 43/43/37 44/44/38 12/12/39
f 12/12/40 44/44/41 18/18/42
f 6/6/43 1/1/44 13/13/45
f 13/13/46 1/1/47 19/19/48
f 13/13/49 19/19/50 14/14/51
f 14/14/52 19/19/53 20/20/54
f 14/14/55 20/20/56 15/15/57
f 15/15/58 20/20/59 21/21/60
f 15/15/61 21/21/62 16/16/63
f 16/16/64 21/21/65 22/22/66
f 16/16/67 22/22/68 17/17/69
f 17/17/70 22/22/71 23/23/72
f 44/44/73 45/45/74 18/18/75
f 18/18/76 45/45/77 24/24/78
f 1/1/79 4/4/80 19/19/81
f 19/19/82 4/4/83 25/72/84
f 19/19/85 25/72/86 20/20/87
f 20/20/88 25/72/89 26/71/90
f 20/20/91 26/71/92 21/21/93
f 21/21/94 26/71/95 27/70/96
f 21/21/97 27/70/98 22/22/99
f 22/22/100 27/70/101 28/69/102
f 22/22/103 28/69/104 23/23/105
f 23/23/106 28/69/107 29/68/108
f 45/45/109 46/67/110 24/24/111
f 24/24/112 46/67/113 30/66/114
f 2/2/115 31/31/116 4/64/117
f 4/64/118 31/31/119 25/25/120
f 31/31/121 32/32/122 25/25/123
f 25/25/124 32/32/125 26/26/126
f 32/32/127 33/33/128 26/26/129
f 26/26/130 33/33/131 27/27/132
f 33/33/133 34/34/134 27/27/135
f 27/27/136 34/34/137 28/28/138
f 34/34/139 35/35/140 28/28/141
f 28/28/142 35/35/143 29/29/144
f 47/47/145 36/36/146 46/46/147
f 46/46/148 36/36/149 30/30/150
f 5/5/151 37/37/152 2/2/153
f 2/2/154 37/37/155 31/31/156
f 37/37/157 38/38/158 31/31/159
f 31/31/160 38/38/161 32/32/162
f 38/38/163 39/39/164 32/32/165
f 32/32/166 39/39/167 33/33/168
f 39/39/169 40/40/170 33/33/171
f 33/33/172 40/40/173 34/34/174
f 40/40/175 41/41/176 34/34/177
f 34/34/178 41/41/179 35/35/180
f 48/48/181 42/42/182 47/47/183
f 47/47/184 42/42/185 36/36/186
f 3/3/187 7/7/188 5/5/189
f 5/5/190 7/7/191 37/37/192
f 7/7/193 8/8/194 37/37/195
f 37/37/196 8/8/197 38/38/198
f 8/8/199 9/9/200 38/38/201
f 38/38/202 9/9/203 39/39/204
f 9/9/205 10/10/206 39/39/207
f 39/39/208 10/10/209 40/40/210
f 10/10/211 11/11/212 40/40/213
f 40/40/214 11/11/215 41/41/216
f 43/43/217 12/12/218 48/48/219
f 48/48/220 12/12/221 42/42/222
f 11/11/223 17/17/224 43/43/225
f 43/43/226 17/17/227 44/44/228
f 17/17/229 23/23/230 44/44/231
f 44/44/232 23/23/233 45/45/234
f 23/23/235 29/68/236 45/45/237
f 45/45/238 29/68/239 46/67/240
f 35/35/241 47/47/242 29/29/243
f 29/29/244 47/47/245 46/46/246
f 41/41/247 48/48/248 35/35/249
f 35/35/250 48/48/251 47/47/252
f 11/11/253 43/43/254 41/41/255
f 41/41/256 43/43/257 48/48/258
f 18/18/259 50/50/260 12/12/261
f 12/12/262 50/50/263 49/49/264
f 18/18/265 24/24/266 50/50/267
f 50/50/268 24/24/269 51/51/270
f 24/24/271 30/66/272 51/51/273
f 51/51/274 30/66/275 52/65/276
f 36/36/277 53/53/278 30/30/279
f 30/30/280 53/53/281 52/52/282
f 36/36/283 42/42/284 53/53/285
f 53/53/286 42/42/287 54/54/288
f 42/42/289 12/12/290 54/54/291
f 54/54/292 12/12/293 49/49/294
f 55/55/295 50/50/296 51/51/297
f 54/54/298 55/55/299 53/53/300
f 49/49/301 55/55/302 54/54/303
f 49/49/304 50/50/305 55/55/306
f 52/65/307 55/55/308 51/51/309
f 3/3/310 5/5/311 57/56/312
f 57/56/313 5/5/314 56/57/315
f 5/5/316 2/2/317 56/57/318
f 56/57/319 2/2/320 58/58/321
f 4/64/322 59/63/323 2/2/324
f 2/2/325 59/63/326 58/58/327
f 1/1/328 60/60/329 4/4/330
f 4/4/331 60/60/332 59/59/333
f 6/6/334 61/61/335 1/1/336
f 1/1/337 61/61/338 60/60/339
f 6/6/340 3/3/341 61/61/342
f 61/61/343 3/3/344 57/56/345
f 61/61/346 62/62/347 60/60/348
f 62/62/349 56/57/350 58/58/351
f 59/63/352 62/62/353 58/58/354
f 60/60/355 62/62/356 59/59/357
f 57/56/358 62/62/359 61/61/360
