# This file uses centimeters as units for non-parametric coordinates.

mtllib boneTriangulated.mtl
g default
v 0.000000 -0.173129 0.205643
v 0.000000 -0.173129 -0.205643
v 0.000000 0.173129 -0.205643
v 0.000000 0.173129 0.205643
v 0.561301 -0.173129 0.205643
v 0.561301 0.173129 0.205643
v 0.561301 0.173129 -0.205643
v 0.561301 -0.173129 -0.205643
v -0.561301 -0.173129 0.205643
v -0.561301 -0.173129 -0.205643
v -0.561301 0.173129 -0.205643
v -0.561301 0.173129 0.205643
v -0.561301 0.226180 0.000000
v 0.000000 0.226180 0.000000
v 0.561301 0.226180 0.000000
v 0.561301 -0.226180 0.000000
v 0.000000 -0.226180 0.000000
v -0.561301 -0.226180 0.000000
v -0.561301 -0.226180 -0.050052
v 0.000000 -0.226180 -0.050052
v 0.561301 -0.226180 -0.050052
v 0.561301 0.226180 -0.050052
v 0.000000 0.226180 -0.050052
v -0.561301 0.226180 -0.050052
v -0.561301 0.226180 0.050052
v 0.000000 0.226180 0.050052
v 0.561301 0.226180 0.050052
v 0.561301 -0.226180 0.050052
v 0.000000 -0.226180 0.050052
v -0.561301 -0.226180 0.050052
v 0.936910 0.245019 0.000000
v 0.936910 -0.245019 0.000000
v 0.990455 -0.288051 -0.063743
v 0.990455 0.288051 -0.063743
v 0.714842 -0.220488 0.261896
v 0.714842 0.220488 0.261896
v 0.990455 -0.220488 0.261896
v 0.990455 0.220488 0.261896
v 0.714842 0.288051 -0.063743
v 0.657770 0.245019 0.000000
v 0.714842 0.220488 -0.261896
v 0.714842 -0.220488 -0.261896
v 0.990455 0.220488 -0.261896
v 0.990455 -0.220488 -0.261896
v 0.657770 -0.245019 0.000000
v 0.714842 -0.288051 -0.063743
v 0.714842 0.288051 0.063743
v 0.990455 0.288051 0.063743
v 0.990455 -0.288051 0.063743
v 0.714842 -0.288051 0.063743
v -0.990455 0.288051 -0.063743
v -0.990455 -0.288051 -0.063743
v -0.936910 -0.245019 0.000000
v -0.936910 0.245019 0.000000
v -0.714842 -0.288051 -0.063743
v -0.657770 -0.245019 0.000000
v -0.990455 0.220488 -0.261896
v -0.714842 0.220488 -0.261896
v -0.714842 -0.220488 -0.261896
v -0.990455 -0.220488 -0.261896
v -0.657770 0.245019 0.000000
v -0.714842 0.288051 -0.063743
v -0.990455 -0.220488 0.261896
v -0.714842 -0.220488 0.261896
v -0.714842 0.220488 0.261896
v -0.990455 0.220488 0.261896
v -0.990455 0.288051 0.063743
v -0.714842 0.288051 0.063743
v -0.714842 -0.288051 0.063743
v -0.990455 -0.288051 0.063743
v 0.000000 0.000000 -0.280090
v -0.561301 0.000000 -0.280090
v -0.714842 0.000000 -0.356707
v -0.990455 0.000000 -0.356707
v -1.139023 0.000000 -0.078936
v -1.077912 0.000000 0.000000
v -1.139023 0.000000 0.078936
v -0.990455 0.000000 0.356707
v -0.714842 0.000000 0.356707
v -0.561301 0.000000 0.280090
v 0.000000 0.000000 0.280090
v 0.561301 0.000000 0.280090
v 0.714842 0.000000 0.356707
v 0.990455 0.000000 0.356707
v 1.139023 0.000000 0.078936
v 1.077912 0.000000 0.000000
v 1.139023 0.000000 -0.078936
v 0.990455 0.000000 -0.356707
v 0.714842 0.000000 -0.356707
v 0.561301 0.000000 -0.280090
vt 0.375000 0.000000
vt 0.625000 0.000000
vt 0.375000 0.250000
vt 0.625000 0.250000
vt 0.375000 0.500000
vt 0.625000 0.500000
vt 0.375000 0.750000
vt 0.625000 0.750000
vt 0.375000 1.000000
vt 0.625000 1.000000
vt 0.875000 0.000000
vt 0.875000 0.250000
vt 0.125000 0.000000
vt 0.125000 0.250000
vt 0.500000 0.000000
vt 0.500000 1.000000
vt 0.500000 0.750000
vt 0.500000 0.500000
vt 0.500000 0.250000
vt 0.562500 0.000000
vt 0.562500 1.000000
vt 0.562500 0.250000
vt 0.562500 0.500000
vt 0.562500 0.750000
vt 0.437500 0.000000
vt 0.437500 1.000000
vt 0.437500 0.750000
vt 0.437500 0.500000
vt 0.437500 0.250000
vt 0.250000 0.250000
vt 0.375000 0.375000
vt 0.437500 0.375000
vt 0.500000 0.375000
vt 0.562500 0.375000
vt 0.625000 0.375000
vt 0.750000 0.250000
vt 0.625000 0.875000
vt 0.750000 0.000000
vt 0.562500 0.875000
vt 0.500000 0.875000
vt 0.437500 0.875000
vt 0.250000 0.000000
vt 0.375000 0.875000
vt 0.187500 0.000000
vt 0.375000 0.812500
vt 0.437500 0.812500
vt 0.500000 0.812500
vt 0.562500 0.812500
vt 0.625000 0.812500
vt 0.812500 0.000000
vt 0.625000 0.437500
vt 0.812500 0.250000
vt 0.562500 0.437500
vt 0.500000 0.437500
vt 0.437500 0.437500
vt 0.187500 0.250000
vt 0.375000 0.437500
vt 0.312500 0.250000
vt 0.375000 0.312500
vt 0.437500 0.312500
vt 0.500000 0.312500
vt 0.562500 0.312500
vt 0.625000 0.312500
vt 0.687500 0.250000
vt 0.625000 0.937500
vt 0.687500 0.000000
vt 0.562500 0.937500
vt 0.500000 0.937500
vt 0.437500 0.937500
vt 0.312500 0.000000
vt 0.375000 0.937500
vt 0.562500 0.250000
vt 0.562500 0.000000
vt 0.562500 0.437500
vt 0.562500 0.375000
vt 0.562500 0.750000
vt 0.562500 0.500000
vt 0.562500 0.875000
vt 0.562500 0.812500
vt 0.437500 0.812500
vt 0.437500 0.875000
vt 0.437500 0.500000
vt 0.437500 0.750000
vt 0.437500 0.375000
vt 0.437500 0.437500
vt 0.437500 0.000000
vt 0.437500 0.250000
vt 0.437500 0.312500
vt 0.562500 0.312500
vt 0.562500 0.937500
vt 0.437500 0.937500
vt 0.562500 1.000000
vt 0.437500 1.000000
vt 0.500000 0.625000
vt 0.437500 0.625000
vt 0.437500 0.906250
vt 0.437500 0.906250
vt 0.437500 0.625000
vt 0.125000 0.125000
vt 0.375000 0.625000
vt 0.187500 0.125000
vt 0.250000 0.125000
vt 0.312500 0.125000
vt 0.375000 0.125000
vt 0.562500 0.781250
vt 0.437500 0.125000
vt 0.437500 0.125000
vt 0.562500 0.781250
vt 0.500000 0.125000
vt 0.562500 0.125000
vt 0.562500 0.125000
vt 0.625000 0.125000
vt 0.687500 0.125000
vt 0.750000 0.125000
vt 0.812500 0.125000
vt 0.625000 0.625000
vt 0.875000 0.125000
vt 0.562500 0.625000
vt 0.562500 0.625000
vn 0.000000 0.395031 0.918668
vn 0.000000 0.395031 0.918668
vn 0.000000 0.395031 0.918668
vn 0.000000 0.395031 0.918668
vn 0.000000 1.000000 0.000000
vn 0.000000 1.000000 0.000000
vn 0.000000 1.000000 0.000000
vn 0.000000 1.000000 0.000000
vn 0.000000 0.395031 -0.918668
vn 0.000000 0.395031 -0.918668
vn 0.000000 0.395031 -0.918668
vn 0.000000 0.395031 -0.918668
vn 0.000000 -1.000000 0.000000
vn 0.000000 -1.000000 0.000000
vn 0.000000 -1.000000 0.000000
vn 0.000000 -1.000000 0.000000
vn 0.593349 0.341458 0.728933
vn 0.721296 0.351116 0.597034
vn 0.631390 0.345348 0.694321
vn 0.740245 0.351571 0.573093
vn -0.740245 0.351571 0.573093
vn -0.721296 0.351116 0.597034
vn -0.631390 0.345348 0.694321
vn -0.593349 0.341458 0.728933
vn 0.000000 -1.000000 0.000000
vn 0.000000 -1.000000 0.000000
vn 0.000000 -1.000000 0.000000
vn 0.000000 -1.000000 0.000000
vn 0.000000 0.395031 -0.918668
vn 0.000000 0.395031 -0.918668
vn 0.000000 0.395031 -0.918668
vn 0.000000 0.395031 -0.918668
vn 0.000000 1.000000 0.000000
vn 0.000000 1.000000 0.000000
vn 0.000000 1.000000 0.000000
vn 0.000000 1.000000 0.000000
vn 0.000000 0.395031 0.918668
vn 0.000000 0.395031 0.918668
vn 0.000000 0.395031 0.918668
vn 0.000000 0.395031 0.918668
vn 0.000000 0.395031 0.918668
vn 0.000000 0.395031 0.918668
vn 0.000000 0.395031 0.918668
vn 0.000000 0.395031 0.918668
vn 0.000000 0.828818 0.559518
vn 0.000000 0.828818 0.559518
vn 0.000000 0.828818 0.559518
vn 0.000000 0.828818 0.559518
vn 0.000000 0.395031 -0.918668
vn 0.000000 0.395031 -0.918668
vn 0.000000 0.395031 -0.918668
vn 0.000000 0.395031 -0.918668
vn 0.000000 -0.828818 0.559518
vn 0.000000 -0.828818 0.559518
vn 0.000000 -0.828818 0.559518
vn 0.000000 -0.828818 0.559518
vn 0.000000 -0.828818 0.559518
vn 0.000000 -0.828818 0.559518
vn 0.000000 -0.828818 0.559518
vn 0.000000 -0.828818 0.559518
vn 0.000000 0.395031 -0.918668
vn 0.000000 0.395031 -0.918668
vn 0.000000 0.395031 -0.918668
vn 0.000000 0.395031 -0.918668
vn 0.000000 0.828818 0.559518
vn 0.000000 0.828818 0.559518
vn 0.000000 0.828818 0.559518
vn 0.000000 0.828818 0.559518
vn 0.000000 0.395031 0.918668
vn 0.000000 0.395031 0.918668
vn 0.000000 0.395031 0.918668
vn 0.000000 0.395031 0.918668
vn 0.000000 0.828818 -0.559518
vn 0.000000 0.828818 -0.559518
vn 0.000000 0.828818 -0.559518
vn 0.000000 0.828818 -0.559518
vn 0.000000 1.000000 0.000000
vn 0.000000 1.000000 0.000000
vn 0.000000 1.000000 0.000000
vn 0.000000 1.000000 0.000000
vn 0.000000 1.000000 0.000000
vn 0.000000 1.000000 0.000000
vn 0.000000 1.000000 0.000000
vn 0.000000 1.000000 0.000000
vn 0.000000 0.828818 -0.559518
vn 0.000000 0.828818 -0.559518
vn 0.000000 0.828818 -0.559518
vn 0.000000 0.828818 -0.559518
vn 0.740245 0.351571 -0.573093
vn 0.721296 0.351116 -0.597034
vn 0.631390 0.345348 -0.694321
vn 0.593349 0.341458 -0.728933
vn 0.000000 -0.828818 -0.559518
vn 0.000000 -0.828818 -0.559518
vn 0.000000 -0.828818 -0.559518
vn 0.000000 -0.828818 -0.559518
vn 0.000000 -1.000000 0.000000
vn 0.000000 -1.000000 0.000000
vn 0.000000 -1.000000 0.000000
vn 0.000000 -1.000000 0.000000
vn 0.000000 -1.000000 0.000000
vn 0.000000 -1.000000 0.000000
vn 0.000000 -1.000000 0.000000
vn 0.000000 -1.000000 0.000000
vn 0.000000 -0.828818 -0.559518
vn 0.000000 -0.828818 -0.559518
vn 0.000000 -0.828818 -0.559518
vn 0.000000 -0.828818 -0.559518
vn -0.593349 0.341458 -0.728933
vn -0.721296 0.351116 -0.597034
vn -0.631390 0.345348 -0.694321
vn -0.740245 0.351571 -0.573093
vn 0.000000 -0.946495 -0.322719
vn 0.000000 -0.946495 -0.322719
vn 0.000000 -0.946495 -0.322719
vn 0.000000 -0.946495 -0.322719
vn 0.000000 -0.946495 -0.322719
vn 0.000000 -0.946495 -0.322719
vn 0.000000 -0.946495 -0.322719
vn 0.000000 -0.946495 -0.322719
vn 0.000000 -0.946495 -0.322719
vn 0.000000 -0.946495 -0.322719
vn 0.000000 -0.946495 -0.322719
vn 0.000000 -0.946495 -0.322719
vn 0.000000 -0.946495 -0.322719
vn 0.000000 -0.946495 -0.322719
vn 0.000000 -0.946495 -0.322719
vn 0.000000 -0.946495 -0.322719
vn 0.874397 0.459249 -0.156587
vn 0.886408 0.318678 -0.335745
vn 0.887323 0.334374 -0.317573
vn 0.864200 0.198760 -0.462227
vn 0.000000 0.946495 -0.322719
vn 0.000000 0.946495 -0.322719
vn 0.000000 0.946495 -0.322719
vn 0.000000 0.946495 -0.322719
vn 0.000000 0.946495 -0.322719
vn 0.000000 0.946495 -0.322719
vn 0.000000 0.946495 -0.322719
vn 0.000000 0.946495 -0.322719
vn 0.000000 0.946495 -0.322719
vn 0.000000 0.946495 -0.322719
vn 0.000000 0.946495 -0.322719
vn 0.000000 0.946495 -0.322719
vn 0.000000 0.946495 -0.322719
vn 0.000000 0.946495 -0.322719
vn 0.000000 0.946495 -0.322719
vn 0.000000 0.946495 -0.322719
vn -0.864200 0.198760 -0.462227
vn -0.886408 0.318678 -0.335745
vn -0.887323 0.334374 -0.317573
vn -0.874397 0.459249 -0.156587
vn 0.000000 0.946495 0.322719
vn 0.000000 0.946495 0.322719
vn 0.000000 0.946495 0.322719
vn 0.000000 0.946495 0.322719
vn 0.000000 0.946495 0.322719
vn 0.000000 0.946495 0.322719
vn 0.000000 0.946495 0.322719
vn 0.000000 0.946495 0.322719
vn 0.000000 0.946495 0.322719
vn 0.000000 0.946495 0.322719
vn 0.000000 0.946495 0.322719
vn 0.000000 0.946495 0.322719
vn 0.000000 0.946495 0.322719
vn 0.000000 0.946495 0.322719
vn 0.000000 0.946495 0.322719
vn 0.000000 0.946495 0.322719
vn 0.864200 0.198760 0.462227
vn 0.886408 0.318678 0.335745
vn 0.887323 0.334374 0.317573
vn 0.874397 0.459249 0.156587
vn 0.000000 -0.946495 0.322719
vn 0.000000 -0.946495 0.322719
vn 0.000000 -0.946495 0.322719
vn 0.000000 -0.946495 0.322719
vn 0.000000 -0.946495 0.322719
vn 0.000000 -0.946495 0.322719
vn 0.000000 -0.946495 0.322719
vn 0.000000 -0.946495 0.322719
vn 0.000000 -0.946495 0.322719
vn 0.000000 -0.946495 0.322719
vn 0.000000 -0.946495 0.322719
vn 0.000000 -0.946495 0.322719
vn 0.000000 -0.946495 0.322719
vn 0.000000 -0.946495 0.322719
vn 0.000000 -0.946495 0.322719
vn 0.000000 -0.946495 0.322719
vn -0.874397 0.459249 0.156587
vn -0.886408 0.318678 0.335745
vn -0.887323 0.334374 0.317573
vn -0.864200 0.198760 0.462227
vn -0.416717 0.359098 0.835103
vn -0.416717 0.359098 0.835102
vn -0.416717 0.359098 0.835102
vn -0.416717 0.359098 0.835102
vn -0.191663 0.981461 0.000000
vn -0.318944 0.907566 0.273130
vn -0.269101 0.949513 0.161276
vn -0.332454 0.892494 0.304842
vn -0.416717 0.359098 -0.835102
vn -0.416717 0.359098 -0.835102
vn -0.416717 0.359098 -0.835102
vn -0.416717 0.359098 -0.835103
vn -0.191663 -0.981461 0.000000
vn -0.269101 -0.949513 0.161276
vn -0.318944 -0.907565 0.273130
vn -0.332454 -0.892494 0.304842
vn -0.191663 0.981461 0.000000
vn -0.269101 0.949513 -0.161276
vn -0.318944 0.907565 -0.273130
vn -0.332454 0.892494 -0.304842
vn -0.191663 -0.981461 0.000000
vn -0.318944 -0.907566 -0.273130
vn -0.269101 -0.949513 -0.161276
vn -0.332454 -0.892494 -0.304842
vn -0.379491 -0.875693 -0.298578
vn -0.379491 -0.875693 -0.298578
vn -0.379491 -0.875693 -0.298578
vn -0.379491 -0.875693 -0.298578
vn -0.379491 0.875693 -0.298578
vn -0.379491 0.875693 -0.298578
vn -0.379491 0.875693 -0.298578
vn -0.379491 0.875693 -0.298578
vn -0.379491 0.875693 0.298578
vn -0.379491 0.875693 0.298578
vn -0.379491 0.875693 0.298578
vn -0.379491 0.875693 0.298578
vn -0.379491 -0.875693 0.298578
vn -0.379491 -0.875693 0.298578
vn -0.379491 -0.875693 0.298578
vn -0.379491 -0.875693 0.298578
vn 0.191663 -0.981461 0.000000
vn 0.318944 -0.907566 0.273130
vn 0.269101 -0.949513 0.161276
vn 0.332454 -0.892494 0.304842
vn 0.416717 0.359098 -0.835103
vn 0.416717 0.359098 -0.835102
vn 0.416717 0.359098 -0.835102
vn 0.416717 0.359098 -0.835102
vn 0.191663 0.981461 0.000000
vn 0.269101 0.949513 0.161276
vn 0.318944 0.907565 0.273130
vn 0.332454 0.892494 0.304842
vn 0.416717 0.359098 0.835102
vn 0.416717 0.359098 0.835102
vn 0.416717 0.359098 0.835102
vn 0.416717 0.359098 0.835103
vn 0.191663 0.981461 0.000000
vn 0.318944 0.907566 -0.273130
vn 0.269101 0.949513 -0.161276
vn 0.332454 0.892494 -0.304842
vn 0.191663 -0.981461 0.000000
vn 0.269101 -0.949513 -0.161276
vn 0.318944 -0.907565 -0.273130
vn 0.332454 -0.892494 -0.304842
vn 0.379491 -0.875693 -0.298578
vn 0.379491 -0.875693 -0.298578
vn 0.379491 -0.875693 -0.298578
vn 0.379491 -0.875693 -0.298578
vn 0.379491 0.875693 -0.298578
vn 0.379491 0.875693 -0.298578
vn 0.379491 0.875693 -0.298578
vn 0.379491 0.875693 -0.298578
vn 0.379491 0.875693 0.298578
vn 0.379491 0.875693 0.298578
vn 0.379491 0.875693 0.298578
vn 0.379491 0.875693 0.298578
vn 0.379491 -0.875693 0.298578
vn 0.379491 -0.875693 0.298578
vn 0.379491 -0.875693 0.298578
vn 0.379491 -0.875693 0.298578
vn 0.000000 -0.395031 -0.918668
vn 0.000000 -0.395031 -0.918668
vn 0.000000 -0.395031 -0.918668
vn 0.000000 -0.395031 -0.918668
vn 0.416717 -0.359098 -0.835102
vn 0.416717 -0.359098 -0.835102
vn 0.416717 -0.359098 -0.835102
vn 0.416717 -0.359098 -0.835103
vn 0.000000 -0.395031 -0.918668
vn 0.000000 -0.395031 -0.918668
vn 0.000000 -0.395031 -0.918668
vn 0.000000 -0.395031 -0.918668
vn -0.874397 -0.459249 -0.156587
vn -0.886408 -0.318678 -0.335745
vn -0.887323 -0.334374 -0.317573
vn -0.864200 -0.198760 -0.462227
vn -0.740245 -0.351571 0.573093
vn -0.631390 -0.345348 0.694321
vn -0.721296 -0.351116 0.597034
vn -0.593349 -0.341458 0.728933
vn -0.740245 -0.351571 -0.573093
vn -0.721296 -0.351116 -0.597034
vn -0.631390 -0.345348 -0.694321
vn -0.593349 -0.341458 -0.728933
vn -0.864200 -0.198760 0.462227
vn -0.886408 -0.318678 0.335745
vn -0.887323 -0.334374 0.317573
vn -0.874397 -0.459249 0.156587
vn 0.000000 -0.395031 0.918668
vn 0.000000 -0.395031 0.918668
vn 0.000000 -0.395031 0.918668
vn 0.000000 -0.395031 0.918668
vn 0.416717 -0.359098 0.835103
vn 0.416717 -0.359098 0.835102
vn 0.416717 -0.359098 0.835102
vn 0.416717 -0.359098 0.835102
vn 0.000000 -0.395031 0.918668
vn 0.000000 -0.395031 0.918668
vn 0.000000 -0.395031 0.918668
vn 0.000000 -0.395031 0.918668
vn 0.000000 -0.395031 0.918668
vn 0.000000 -0.395031 0.918668
vn 0.000000 -0.395031 0.918668
vn 0.000000 -0.395031 0.918668
vn -0.416717 -0.359098 0.835102
vn -0.416717 -0.359098 0.835102
vn -0.416717 -0.359098 0.835102
vn -0.416717 -0.359098 0.835103
vn 0.000000 -0.395031 0.918668
vn 0.000000 -0.395031 0.918668
vn 0.000000 -0.395031 0.918668
vn 0.000000 -0.395031 0.918668
vn 0.874397 -0.459249 0.156587
vn 0.886408 -0.318678 0.335745
vn 0.887323 -0.334374 0.317573
vn 0.864200 -0.198760 0.462227
vn 0.740245 -0.351571 -0.573093
vn 0.631390 -0.345348 -0.694321
vn 0.721296 -0.351116 -0.597034
vn 0.593349 -0.341458 -0.728933
vn 0.740245 -0.351571 0.573093
vn 0.721296 -0.351116 0.597034
vn 0.631390 -0.345348 0.694321
vn 0.593349 -0.341458 0.728933
vn 0.864200 -0.198760 -0.462227
vn 0.886408 -0.318678 -0.335745
vn 0.887323 -0.334374 -0.317573
vn 0.874397 -0.459249 -0.156587
vn 0.000000 -0.395031 -0.918668
vn 0.000000 -0.395031 -0.918668
vn 0.000000 -0.395031 -0.918668
vn 0.000000 -0.395031 -0.918668
vn -0.416717 -0.359098 -0.835103
vn -0.416717 -0.359098 -0.835102
vn -0.416717 -0.359098 -0.835102
vn -0.416717 -0.359098 -0.835102
vn 0.000000 -0.395031 -0.918668
vn 0.000000 -0.395031 -0.918668
vn 0.000000 -0.395031 -0.918668
vn 0.000000 -0.395031 -0.918668
s 1
g bone
usemtl initialShadingGroup
f 4/19/1 81/109/2 6/22/3
f 6/22/3 81/109/2 82/110/4
s 2
f 22/53/5 23/54/6 15/34/7
f 15/34/7 23/54/6 14/33/8
s 3
f 90/119/9 71/94/10 7/23/11
f 7/23/11 71/94/10 3/18/12
s 4
f 16/39/13 17/40/14 21/48/15
f 21/48/15 17/40/14 20/47/16
s 5
f 31/36/17 86/114/18 34/52/19
f 34/52/19 86/114/18 87/115/20
s 6
f 75/101/21 76/102/22 51/56/23
f 51/56/23 76/102/22 54/30/24
s 7
f 17/40/25 18/41/26 20/47/27
f 20/47/27 18/41/26 19/46/28
s 8
f 71/94/29 72/95/30 3/18/31
f 3/18/31 72/95/30 11/28/32
s 9
f 23/54/33 24/55/34 14/33/35
f 14/33/35 24/55/34 13/32/36
s 10
f 12/29/37 80/107/38 4/19/39
f 4/19/39 80/107/38 81/109/40
s 11
f 36/72/41 83/111/42 38/4/43
f 38/4/43 83/111/42 84/112/44
s 12
f 34/51/45 39/74/46 31/35/47
f 31/35/47 39/74/46 40/75/48
s 13
f 88/116/49 89/118/50 43/6/51
f 43/6/51 89/118/50 41/77/52
s 14
f 45/78/53 46/79/54 32/37/55
f 32/37/55 46/79/54 33/49/56
s 15
f 52/45/57 55/80/58 53/43/59
f 53/43/59 55/80/58 56/81/60
s 16
f 57/5/61 58/82/62 74/100/63
f 74/100/63 58/82/62 73/98/64
s 17
f 61/84/65 62/85/66 54/31/67
f 54/31/67 62/85/66 51/57/68
s 18
f 78/104/69 79/106/70 66/3/71
f 66/3/71 79/106/70 65/87/72
s 19
f 67/59/73 68/88/74 54/31/75
f 54/31/75 68/88/74 61/84/76
s 20
f 14/33/77 13/32/78 26/61/79
f 26/61/79 13/32/78 25/60/80
s 21
f 15/34/81 14/33/82 27/62/83
f 27/62/83 14/33/82 26/61/84
s 22
f 40/75/85 47/89/86 31/35/87
f 31/35/87 47/89/86 48/63/88
s 23
f 85/113/89 86/114/90 48/64/91
f 48/64/91 86/114/90 31/36/92
s 24
f 49/65/93 50/90/94 32/37/95
f 32/37/95 50/90/94 45/78/96
s 25
f 28/67/97 29/68/98 16/39/99
f 16/39/99 29/68/98 17/40/100
s 26
f 29/68/101 30/69/102 17/40/103
f 17/40/103 30/69/102 18/41/104
s 27
f 56/81/105 69/91/106 53/43/107
f 53/43/107 69/91/106 70/71/108
s 28
f 54/30/109 76/102/110 67/58/111
f 67/58/111 76/102/110 77/103/112
s 29
f 60/7/113 59/83/114 52/45/115
f 52/45/115 59/83/114 55/80/116
s 30
f 20/47/117 19/46/118 2/17/119
f 2/17/119 19/46/118 10/27/120
s 31
f 21/48/121 20/47/122 8/24/123
f 8/24/123 20/47/122 2/17/124
s 32
f 33/49/125 46/79/126 44/8/127
f 44/8/127 46/79/126 42/76/128
s 33
f 34/52/129 87/115/130 43/12/131
f 43/12/131 87/115/130 88/117/132
s 34
f 41/77/133 39/74/134 43/6/135
f 43/6/135 39/74/134 34/51/136
s 35
f 3/18/137 23/54/138 7/23/139
f 7/23/139 23/54/138 22/53/140
s 36
f 11/28/141 24/55/142 3/18/143
f 3/18/143 24/55/142 23/54/144
s 37
f 51/57/145 62/85/146 57/5/147
f 57/5/147 62/85/146 58/82/148
s 38
f 74/99/149 75/101/150 57/14/151
f 57/14/151 75/101/150 51/56/152
s 39
f 66/3/153 65/87/154 67/59/155
f 67/59/155 65/87/154 68/88/156
s 40
f 26/61/157 25/60/158 4/19/159
f 4/19/159 25/60/158 12/29/160
s 41
f 27/62/161 26/61/162 6/22/163
f 6/22/163 26/61/162 4/19/164
s 42
f 48/63/165 47/89/166 38/4/167
f 38/4/167 47/89/166 36/72/168
s 43
f 84/112/169 85/113/170 38/4/171
f 38/4/171 85/113/170 48/64/172
s 44
f 35/92/173 50/90/174 37/10/175
f 37/10/175 50/90/174 49/65/176
s 45
f 1/16/177 29/68/178 5/21/179
f 5/21/179 29/68/178 28/67/180
s 46
f 9/26/181 30/69/182 1/16/183
f 1/16/183 30/69/182 29/68/184
s 47
f 70/71/185 69/91/186 63/9/187
f 63/9/187 69/91/186 64/93/188
s 48
f 67/58/189 77/103/190 66/3/191
f 66/3/191 77/103/190 78/104/192
s 49
f 6/22/193 82/110/194 36/72/195
f 36/72/195 82/110/194 83/111/196
s 50
f 15/34/197 40/75/198 22/53/199
f 22/53/199 40/75/198 39/74/200
s 51
f 89/118/201 90/119/202 41/77/203
f 41/77/203 90/119/202 7/23/204
s 52
f 16/39/205 21/48/206 45/78/207
f 45/78/207 21/48/206 46/79/208
s 53
f 15/46/209 27/41/210 40/80/211
f 40/80/211 27/41/210 47/81/212
s 54
f 16/27/213 45/83/214 28/28/215
f 28/28/215 45/83/214 50/82/216
s 55
f 21/32/217 8/55/218 46/84/219
f 46/84/219 8/55/218 42/85/220
s 56
f 22/29/221 39/87/222 7/25/223
f 7/25/223 39/87/222 41/86/224
s 57
f 27/60/225 6/32/226 47/88/227
f 47/88/227 6/32/226 36/84/228
s 58
f 28/62/229 50/89/230 5/34/231
f 5/34/231 50/89/230 35/75/232
s 59
f 18/39/233 56/78/234 19/67/235
f 19/67/235 56/78/234 55/90/236
s 60
f 11/41/237 72/96/238 58/81/239
f 58/81/239 72/96/238 73/97/240
s 61
f 13/27/241 24/46/242 61/83/243
f 61/83/243 24/46/242 62/80/244
s 62
f 79/105/245 80/108/246 65/76/247
f 65/76/247 80/108/246 12/24/248
s 63
f 13/53/249 61/74/250 25/23/251
f 25/23/251 61/74/250 68/77/252
s 64
f 18/55/253 30/28/254 56/85/255
f 56/85/255 30/28/254 69/82/256
s 65
f 19/60/257 55/88/258 10/29/259
f 10/29/259 55/88/258 59/87/260
s 66
f 24/62/261 11/22/262 62/89/263
f 62/89/263 11/22/262 58/72/264
s 67
f 25/67/265 68/90/266 12/21/267
f 12/21/267 68/90/266 65/92/268
s 68
f 30/69/269 9/26/270 69/91/271
f 69/91/271 9/26/270 64/93/272
s 69
f 10/27/273 72/95/274 2/17/275
f 2/17/275 72/95/274 71/94/276
s 70
f 73/97/277 72/96/278 59/91/279
f 59/91/279 72/96/278 10/69/280
s 71
f 74/100/281 73/98/282 60/7/283
f 60/7/283 73/98/282 59/83/284
s 72
f 52/44/285 75/101/286 60/13/287
f 60/13/287 75/101/286 74/99/288
s 73
f 75/101/289 52/44/290 76/102/291
f 76/102/291 52/44/290 53/42/292
s 74
f 77/103/293 76/102/294 70/70/295
f 70/70/295 76/102/294 53/42/296
s 75
f 78/104/297 77/103/298 63/1/299
f 63/1/299 77/103/298 70/70/300
s 76
f 63/1/301 64/86/302 78/104/303
f 78/104/303 64/86/302 79/106/304
s 77
f 9/48/305 80/108/306 64/79/307
f 64/79/307 80/108/306 79/105/308
s 78
f 81/109/309 80/107/310 1/15/311
f 1/15/311 80/107/310 9/25/312
s 79
f 82/110/313 81/109/314 5/20/315
f 5/20/315 81/109/314 1/15/316
s 80
f 83/111/317 82/110/318 35/73/319
f 35/73/319 82/110/318 5/20/320
s 81
f 84/112/321 83/111/322 37/2/323
f 37/2/323 83/111/322 35/73/324
s 82
f 49/66/325 85/113/326 37/2/327
f 37/2/327 85/113/326 84/112/328
s 83
f 85/113/329 49/66/330 86/114/331
f 86/114/331 49/66/330 32/38/332
s 84
f 87/115/333 86/114/334 33/50/335
f 33/50/335 86/114/334 32/38/336
s 85
f 88/117/337 87/115/338 44/11/339
f 44/11/339 87/115/338 33/50/340
s 86
f 42/76/341 89/118/342 44/8/343
f 44/8/343 89/118/342 88/116/344
s 87
f 8/24/345 90/119/346 42/76/347
f 42/76/347 90/119/346 89/118/348
s 88
f 2/17/349 71/94/350 8/24/351
f 8/24/351 71/94/350 90/119/352
