
g default
v -0.5 -0.5 0.5 
v 0.5 -0.5 0.5 
v -0.5 0.5 0.5 
v 0.5 0.5 0.5 
v -0.5 0.5 -0.5 
v 0.5 0.5 -0.5 
v -0.5 -0.5 -0.5 
v 0.5 -0.5 -0.5 
vt 0.375 0.0 
vt 0.625 0.0 
vt 0.375 0.25 
vt 0.625 0.25 
vt 0.375 0.5 
vt 0.625 0.5 
vt 0.375 0.75 
vt 0.625 0.75 
vt 0.375 1.0 
vt 0.625 1.0 
vt 0.875 0.0 
vt 0.875 0.25 
vt 0.125 0.0 
vt 0.125 0.25 
vn 0.0 0.0 1.0 
vn 0.0 0.0 1.0 
vn 0.0 0.0 1.0 
vn 0.0 0.0 1.0 
vn 0.0 1.0 0.0 
vn 0.0 1.0 0.0 
vn 0.0 1.0 0.0 
vn 0.0 1.0 0.0 
vn 0.0 0.0 -1.0 
vn 0.0 0.0 -1.0 
vn 0.0 0.0 -1.0 
vn 0.0 0.0 -1.0 
vn 0.0 -1.0 0.0 
vn 0.0 -1.0 0.0 
vn 0.0 -1.0 0.0 
vn 0.0 -1.0 0.0 
vn 1.0 0.0 0.0 
vn 1.0 0.0 0.0 
vn 1.0 0.0 0.0 
vn 1.0 0.0 0.0 
vn -1.0 0.0 0.0 
vn -1.0 0.0 0.0 
vn -1.0 0.0 0.0 
vn -1.0 0.0 0.0 
s off
g pCube1
usemtl initialShadingGroup
f 1/1/1  2/2/2  3/3/3
f 3/3/3  2/2/2  4/4/4
f 3/3/5  4/4/6  5/5/7
f 5/5/7  4/4/6  6/6/8
f 5/5/9  6/6/10  7/7/11
f 7/7/11  6/6/10  8/8/12
f 7/7/13  8/8/14  1/9/15
f 1/9/15  8/8/14  2/10/16
f 2/2/17  8/11/18  4/4/19
f 4/4/19  8/11/18  6/12/20
f 7/13/21  1/1/22  5/14/23
f 5/14/23  1/1/22  3/3/24
