# This file uses centimeters as units for non-parametric coordinates.

mtllib Grave.mtl
g default
v -1.403167 -0.159263 6.563514
v 1.482572 -0.159263 6.563514
v -1.403167 0.159263 6.563514
v 1.482572 0.159263 6.563514
v -1.403167 0.159263 -1.489661
v 1.482572 0.159263 -1.489661
v -1.403167 -0.159263 -1.489661
v 1.482572 -0.159263 -1.489661
v -1.268353 0.159263 6.187289
v 1.347758 0.159263 6.187289
v 1.347758 0.159263 -1.113436
v -1.268353 0.159263 -1.113436
v -1.268353 0.479656 6.187289
v 1.347758 0.479656 6.187289
v 1.347758 0.479656 -1.113436
v -1.268353 0.479656 -1.113436
v -1.079424 0.479656 6.033219
v 1.158828 0.479656 6.033219
v -1.403167 0.159263 -0.425732
v -1.403167 -0.159263 -0.425732
v 1.482572 -0.159263 -0.425732
v 1.482572 0.159263 -0.425732
v 1.347758 0.159263 -0.148916
v 1.347758 0.479656 -0.148916
v 1.158828 0.479656 -0.035555
v -1.079424 0.479656 -0.035555
v -1.268353 0.479656 -0.148916
v -1.268353 0.159263 -0.148916
v -1.268353 0.591757 6.187289
v 1.347758 0.591757 6.187289
v 1.158828 0.591757 6.033219
v -1.079424 0.591757 6.033219
v 1.347758 0.591757 -0.148916
v 1.158828 0.591757 -0.035555
v -1.268353 0.591757 -1.113436
v 1.347758 0.591757 -1.113436
v -1.079424 0.591757 -0.959366
v 1.158828 0.591757 -0.959366
v -1.079424 0.591757 -0.035555
v -1.268353 0.591757 -0.148916
v 0.599321 2.640761 -0.035555
v 1.158828 2.081254 -0.035555
v 0.599321 2.640761 -0.959366
v 1.158828 2.081254 -0.959366
v -1.079424 2.081254 -0.035555
v -0.519917 2.640761 -0.035555
v -0.519917 2.640761 -0.959366
v -1.079424 2.081254 -0.959366
vt 0.072727 0.035734
vt 0.291713 0.036720
vt 0.072618 0.059906
vt 0.291605 0.060892
vt 0.686803 0.725718
vt 0.684425 0.951902
vt 0.073530 0.719271
vt 0.071152 0.945455
vt 0.069866 0.671028
vt 0.288853 0.672014
vt 0.069757 0.695200
vt 0.288744 0.696186
vt 0.315776 0.061001
vt 0.313388 0.591386
vt 0.289216 0.591277
vt 0.070230 0.590291
vt 0.046058 0.590182
vt 0.048446 0.059797
vt 0.082720 0.088502
vt 0.281246 0.089396
vt 0.279080 0.570224
vt 0.278751 0.643418
vt 0.080225 0.642524
vt 0.080555 0.569330
vt 0.415209 0.052266
vt 0.611435 0.056565
vt 0.414682 0.076297
vt 0.610908 0.080596
vt 0.643164 0.089715
vt 0.632752 0.564974
vt 0.619132 0.089189
vt 0.608721 0.564447
vt 0.598017 0.669048
vt 0.401791 0.664750
vt 0.598543 0.645017
vt 0.402317 0.640718
vt 0.395678 0.559780
vt 0.371647 0.559253
vt 0.406090 0.084522
vt 0.382058 0.083995
vt 0.414498 0.084706
vt 0.610724 0.089005
vt 0.428416 0.096572
vt 0.596300 0.100250
vt 0.600312 0.564263
vt 0.586328 0.555450
vt 0.598728 0.636609
vt 0.402501 0.632310
vt 0.584810 0.624742
vt 0.416926 0.621064
vt 0.418444 0.551772
vt 0.404086 0.559964
vt 0.045694 0.670919
vt 0.313024 0.672123
vt 0.607136 0.636793
vt 0.631168 0.637319
vt 0.772037 0.605804
vt 0.772918 0.549714
vt 0.839993 0.606870
vt 0.840874 0.550780
vt 0.370062 0.631599
vt 0.394093 0.632125
vt 0.695753 0.952021
vt 0.698131 0.725838
vt 0.071033 0.956783
vt 0.684306 0.963231
vt 0.686922 0.714390
vt 0.073649 0.707942
vt 0.062202 0.719152
vt 0.059824 0.945336
vt 0.740898 0.424772
vt 0.876798 0.426905
vt 0.739479 0.515209
vt 0.875378 0.517342
vt 0.979353 0.552953
vt 0.978473 0.609044
vt 0.888916 0.551534
vt 0.888036 0.607625
vt 0.872013 0.731812
vt 0.736114 0.729679
vt 0.873432 0.641375
vt 0.737533 0.639242
vt 0.633558 0.603631
vt 0.634438 0.547540
vt 0.723994 0.605050
vt 0.724875 0.548960
vn 0.000000 0.000000 1.000000
vn 0.000000 0.000000 1.000000
vn 0.000000 0.000000 1.000000
vn 0.000000 0.000000 1.000000
vn 0.000000 0.000000 1.000000
vn 0.000000 0.000000 1.000000
vn 0.000000 1.000000 0.000000
vn 0.000000 1.000000 0.000000
vn 0.000000 1.000000 0.000000
vn 0.000000 1.000000 0.000000
vn 0.000000 1.000000 0.000000
vn 0.000000 1.000000 0.000000
vn 0.000000 0.000000 -1.000000
vn 0.000000 0.000000 -1.000000
vn 0.000000 0.000000 -1.000000
vn 0.000000 0.000000 -1.000000
vn 0.000000 0.000000 -1.000000
vn 0.000000 0.000000 -1.000000
vn 1.000000 0.000000 0.000000
vn 1.000000 0.000000 0.000000
vn 1.000000 0.000000 0.000000
vn 1.000000 0.000000 0.000000
vn 1.000000 0.000000 0.000000
vn 1.000000 0.000000 0.000000
vn -1.000000 0.000000 0.000000
vn -1.000000 0.000000 0.000000
vn -1.000000 0.000000 0.000000
vn -1.000000 0.000000 0.000000
vn -1.000000 0.000000 0.000000
vn -1.000000 0.000000 0.000000
vn 0.000000 1.000000 0.000000
vn 0.000000 1.000000 0.000000
vn 0.000000 1.000000 0.000000
vn 0.000000 1.000000 0.000000
vn 0.000000 1.000000 0.000000
vn 0.000000 1.000000 0.000000
vn 0.000000 1.000000 0.000000
vn 0.000000 1.000000 0.000000
vn 0.000000 1.000000 0.000000
vn 0.000000 1.000000 0.000000
vn 0.000000 1.000000 0.000000
vn 0.000000 1.000000 0.000000
vn 0.000000 1.000000 0.000000
vn 0.000000 1.000000 0.000000
vn 0.000000 1.000000 0.000000
vn 0.000000 1.000000 0.000000
vn 0.000000 1.000000 0.000000
vn 0.000000 1.000000 0.000000
vn 0.000000 1.000000 0.000000
vn 0.000000 1.000000 0.000000
vn 0.000000 1.000000 0.000000
vn 0.000000 1.000000 0.000000
vn 0.000000 1.000000 0.000000
vn 0.000000 1.000000 0.000000
vn 0.000000 0.000000 1.000000
vn 0.000000 0.000000 1.000000
vn 0.000000 0.000000 1.000000
vn 0.000000 0.000000 1.000000
vn 0.000000 0.000000 1.000000
vn 0.000000 0.000000 1.000000
vn 1.000000 0.000000 0.000000
vn 1.000000 0.000000 0.000000
vn 1.000000 0.000000 0.000000
vn 1.000000 0.000000 0.000000
vn 1.000000 0.000000 0.000000
vn 1.000000 0.000000 0.000000
vn 0.000000 0.000000 -1.000000
vn 0.000000 0.000000 -1.000000
vn 0.000000 0.000000 -1.000000
vn 0.000000 0.000000 -1.000000
vn 0.000000 0.000000 -1.000000
vn 0.000000 0.000000 -1.000000
vn -1.000000 0.000000 0.000000
vn -1.000000 0.000000 0.000000
vn -1.000000 0.000000 0.000000
vn -1.000000 0.000000 0.000000
vn -1.000000 0.000000 0.000000
vn -1.000000 0.000000 0.000000
vn 0.000000 1.000000 0.000000
vn 0.000000 1.000000 0.000000
vn 0.000000 1.000000 0.000000
vn 0.000000 1.000000 0.000000
vn 0.000000 1.000000 0.000000
vn 0.000000 1.000000 0.000000
vn 0.000000 1.000000 0.000000
vn 0.000000 1.000000 0.000000
vn 0.000000 1.000000 0.000000
vn 0.000000 1.000000 0.000000
vn 0.000000 1.000000 0.000000
vn 0.000000 1.000000 0.000000
vn 0.000000 1.000000 0.000000
vn 0.000000 1.000000 0.000001
vn 0.000000 1.000000 0.000000
vn 0.000000 1.000000 0.000000
vn 0.000000 1.000000 0.000001
vn 0.000000 1.000000 0.000001
vn 0.000000 1.000000 0.000000
vn 0.000000 1.000000 0.000000
vn 0.000000 1.000000 0.000000
vn 0.000000 1.000000 0.000000
vn 0.000000 1.000000 0.000000
vn 0.000000 1.000000 0.000000
vn -1.000000 0.000000 0.000000
vn -1.000000 0.000000 0.000000
vn -1.000000 0.000000 0.000000
vn -1.000000 0.000000 0.000000
vn -1.000000 0.000000 0.000000
vn -1.000000 0.000000 0.000000
vn 1.000000 0.000000 0.000000
vn 1.000000 0.000000 0.000000
vn 1.000000 0.000000 0.000000
vn 1.000000 0.000000 0.000000
vn 1.000000 0.000000 0.000000
vn 1.000000 0.000000 0.000000
vn 0.000000 1.000000 0.000000
vn 0.000000 1.000000 0.000000
vn 0.000000 1.000000 0.000000
vn 0.000000 1.000000 0.000000
vn 0.000000 1.000000 0.000000
vn 0.000000 1.000000 0.000000
vn 1.000000 0.000000 0.000000
vn 1.000000 0.000000 0.000000
vn 1.000000 0.000000 0.000000
vn 1.000000 0.000000 0.000000
vn 1.000000 0.000000 0.000000
vn 1.000000 0.000000 0.000000
vn 0.000000 1.000000 0.000000
vn 0.000000 1.000000 0.000000
vn 0.000000 1.000000 0.000000
vn 0.000000 1.000000 0.000000
vn 0.000000 1.000000 0.000000
vn 0.000000 1.000000 0.000000
vn 0.000000 1.000000 0.000000
vn 0.000000 1.000000 0.000000
vn 0.000000 1.000000 0.000000
vn 0.000000 1.000000 0.000000
vn 0.000000 1.000000 0.000000
vn 0.000000 1.000000 0.000000
vn 0.000000 1.000000 0.000000
vn 0.000000 1.000000 0.000000
vn 0.000000 1.000000 0.000000
vn 0.000000 1.000000 0.000000
vn 0.000000 1.000000 0.000000
vn 0.000000 1.000000 0.000000
vn -1.000000 0.000000 0.000000
vn -1.000000 0.000000 0.000000
vn -1.000000 0.000000 0.000000
vn -1.000000 0.000000 0.000000
vn -1.000000 0.000000 0.000000
vn -1.000000 0.000000 0.000000
vn 0.000000 1.000000 0.000000
vn 0.000000 1.000000 0.000000
vn 0.000000 1.000000 0.000000
vn 0.000000 1.000000 0.000000
vn 0.000000 1.000000 0.000000
vn 0.000000 1.000000 0.000000
vn 0.000000 0.000000 1.000000
vn 0.000000 0.000000 1.000000
vn 0.000000 0.000000 1.000000
vn 0.000000 0.000000 1.000000
vn 0.000000 0.000000 1.000000
vn 0.000000 0.000000 1.000000
vn 0.000000 0.000000 -1.000000
vn 0.000000 0.000000 -1.000000
vn 0.000000 0.000000 -1.000000
vn 0.000000 0.000000 -1.000000
vn 0.000000 0.000000 -1.000000
vn 0.000000 0.000000 -1.000000
vn 1.000000 0.000000 0.000000
vn 1.000000 0.000000 0.000000
vn 1.000000 0.000000 0.000000
vn 1.000000 0.000000 0.000000
vn 1.000000 0.000000 0.000000
vn 1.000000 0.000000 0.000000
vn -1.000000 0.000000 0.000000
vn -1.000000 0.000000 0.000000
vn -1.000000 0.000000 0.000000
vn -1.000000 0.000000 0.000000
vn -1.000000 0.000000 0.000000
vn -1.000000 0.000000 0.000000
vn 0.000000 0.000000 -1.000000
vn 0.000000 0.000000 -1.000000
vn 0.000000 0.000000 -1.000000
vn 0.000000 0.000000 -1.000000
vn 0.000000 0.000000 -1.000000
vn 0.000000 0.000000 -1.000000
vn -1.000000 0.000000 0.000000
vn -1.000000 0.000000 0.000000
vn -1.000000 0.000000 0.000000
vn -1.000000 0.000000 0.000000
vn -1.000000 0.000000 0.000000
vn -1.000000 0.000000 0.000000
vn 1.000000 0.000000 0.000000
vn 1.000000 0.000000 0.000000
vn 1.000000 0.000000 0.000000
vn 1.000000 0.000000 0.000000
vn 1.000000 0.000000 0.000000
vn 1.000000 0.000000 0.000000
vn 1.000000 0.000000 0.000000
vn 1.000000 0.000000 0.000000
vn 1.000000 0.000000 0.000000
vn 1.000000 0.000000 0.000000
vn 1.000000 0.000000 0.000000
vn 1.000000 0.000000 0.000000
vn 0.000000 0.000000 1.000000
vn 0.000000 0.000000 1.000000
vn 0.000000 0.000000 1.000000
vn 0.000000 0.000000 1.000000
vn 0.000000 0.000000 1.000000
vn 0.000000 0.000000 1.000000
vn -1.000000 0.000000 0.000000
vn -1.000000 0.000000 0.000000
vn -1.000000 0.000000 0.000000
vn -1.000000 0.000000 0.000000
vn -1.000000 0.000000 0.000000
vn -1.000000 0.000000 0.000000
vn 0.000000 0.000000 1.000000
vn 0.000000 0.000000 1.000000
vn 0.000000 0.000000 1.000000
vn 0.000000 0.000000 1.000000
vn 0.000000 0.000000 1.000000
vn 0.000000 0.000000 1.000000
vn 0.000000 0.000000 1.000000
vn 0.000000 0.000000 1.000000
vn 0.000000 0.000000 1.000000
vn 0.000000 0.000000 1.000000
vn 0.000000 0.000000 1.000000
vn 0.000000 0.000000 1.000000
vn 1.000000 0.000000 0.000000
vn 1.000000 0.000000 0.000000
vn 1.000000 0.000000 0.000000
vn 1.000000 0.000000 0.000000
vn 1.000000 0.000000 0.000000
vn 1.000000 0.000000 0.000000
vn 0.000000 0.000000 -1.000000
vn 0.000000 0.000000 -1.000000
vn 0.000000 0.000000 -1.000000
vn 0.000000 0.000000 -1.000000
vn 0.000000 0.000000 -1.000000
vn 0.000000 0.000000 -1.000000
vn 0.000000 0.000000 -1.000000
vn 0.000000 0.000000 -1.000000
vn 0.000000 0.000000 -1.000000
vn 0.000000 0.000000 -1.000000
vn 0.000000 0.000000 -1.000000
vn 0.000000 0.000000 -1.000000
vn -1.000000 0.000000 0.000000
vn -1.000000 0.000000 0.000000
vn -1.000000 0.000000 0.000000
vn -1.000000 0.000000 0.000000
vn -1.000000 0.000000 0.000000
vn -1.000000 0.000000 0.000000
vn 0.707107 0.707107 0.000000
vn 0.707107 0.707107 0.000000
vn 0.707107 0.707107 0.000000
vn 0.707107 0.707107 0.000000
vn 0.707107 0.707107 0.000000
vn 0.707107 0.707107 0.000000
vn -0.707107 0.707107 0.000000
vn -0.707107 0.707107 0.000000
vn -0.707107 0.707107 0.000000
vn -0.707107 0.707107 0.000000
vn -0.707107 0.707107 0.000000
vn -0.707107 0.707107 0.000000
s off
g Grave_pCube1
usemtl Grave_phong3SG
f 1/1/1 2/2/2 3/3/3
f 3/3/4 2/2/5 4/4/6
f 17/5/7 18/6/8 26/7/9
f 26/7/10 18/6/11 25/8/12
f 5/9/13 6/10/14 7/11/15
f 7/11/16 6/10/17 8/12/18
f 2/13/19 21/14/20 4/4/21
f 4/4/22 21/14/23 22/15/24
f 19/16/25 20/17/26 3/3/27
f 3/3/28 20/17/29 1/18/30
f 3/3/31 4/4/32 9/19/33
f 9/19/34 4/4/35 10/20/36
f 4/4/37 22/15/38 10/20/39
f 10/20/40 22/15/41 23/21/42
f 6/10/43 5/9/44 11/22/45
f 11/22/46 5/9/47 12/23/48
f 28/24/49 19/16/50 9/19/51
f 9/19/52 19/16/53 3/3/54
f 9/25/55 10/26/56 13/27/57
f 13/27/58 10/26/59 14/28/60
f 10/29/61 23/30/62 14/31/63
f 14/31/64 23/30/65 24/32/66
f 11/33/67 12/34/68 15/35/69
f 15/35/70 12/34/71 16/36/72
f 27/37/73 28/38/74 13/39/75
f 13/39/76 28/38/77 9/40/78
f 29/41/79 30/42/80 32/43/81
f 32/43/82 30/42/83 31/44/84
f 30/42/85 33/45/86 31/44/87
f 31/44/88 33/45/89 34/46/90
f 36/47/91 35/48/92 38/49/93
f 38/49/94 35/48/95 37/50/96
f 39/51/97 40/52/98 32/43/99
f 32/43/100 40/52/101 29/41/102
f 7/53/103 20/17/104 5/9/105
f 5/9/106 20/17/107 19/16/108
f 22/15/109 21/14/110 6/10/111
f 6/10/112 21/14/113 8/54/114
f 23/21/115 22/15/116 11/22/117
f 11/22/118 22/15/119 6/10/120
f 24/32/121 23/30/122 15/55/123
f 15/55/124 23/30/125 11/56/126
f 34/46/127 33/45/128 38/49/129
f 38/49/130 33/45/131 36/47/132
f 47/57/133 46/58/134 43/59/135
f 43/59/136 46/58/137 41/60/138
f 35/48/139 40/52/140 37/50/141
f 37/50/142 40/52/143 39/51/144
f 12/61/145 28/38/146 16/62/147
f 16/62/148 28/38/149 27/37/150
f 5/9/151 19/16/152 12/23/153
f 12/23/154 19/16/155 28/24/156
f 13/27/157 14/28/158 29/41/159
f 29/41/160 14/28/161 30/42/162
f 18/6/163 17/5/164 31/63/165
f 31/63/166 17/5/167 32/64/168
f 14/31/169 24/32/170 30/42/171
f 30/42/172 24/32/173 33/45/174
f 25/8/175 18/6/176 34/65/177
f 34/65/178 18/6/179 31/66/180
f 15/35/181 16/36/182 36/47/183
f 36/47/184 16/36/185 35/48/186
f 27/37/187 13/39/188 40/52/189
f 40/52/190 13/39/191 29/41/192
f 17/5/193 26/7/194 32/67/195
f 32/67/196 26/7/197 39/68/198
f 24/32/199 15/55/200 33/45/201
f 33/45/202 15/55/203 36/47/204
f 26/7/205 25/8/206 39/69/207
f 39/69/208 25/8/209 34/70/210
f 16/62/211 27/37/212 35/48/213
f 35/48/214 27/37/215 40/52/216
f 39/71/217 34/72/218 45/73/219
f 34/72/220 42/74/221 45/73/222
f 42/74/223 41/60/224 45/73/225
f 41/60/226 46/58/227 45/73/228
f 34/75/229 38/76/230 42/77/231
f 42/77/232 38/76/233 44/78/234
f 38/79/235 37/80/236 44/81/237
f 37/80/238 48/82/239 44/81/240
f 48/82/241 47/57/242 44/81/243
f 47/57/244 43/59/245 44/81/246
f 37/83/247 39/84/248 48/85/249
f 48/85/250 39/84/251 45/86/252
f 41/60/253 42/77/254 43/59/255
f 43/59/256 42/77/257 44/78/258
f 45/86/259 46/58/260 48/85/261
f 48/85/262 46/58/263 47/57/264
