# This file uses centimeters as units for non-parametric coordinates.

mtllib Pillarv2Stone.mtl
g default
v -2.679814 -0.056130 2.585283
v 2.593313 -0.056130 2.585283
v 2.593313 2.188203 2.585283
v -2.679814 2.188203 -2.687841
v 2.593313 2.188203 -2.687841
v -2.679814 -0.056130 -2.687841
v 2.593313 -0.056130 -2.687841
v -2.118358 2.763467 2.023827
v 2.031858 2.763467 2.023827
v 2.031858 2.763467 -2.126386
v -2.118358 2.763467 -2.126386
v -1.897027 22.651268 2.023827
v 2.253190 22.651268 2.023827
v 2.253190 22.651268 -2.126386
v -2.513032 23.225346 3.097672
v 2.869195 23.225346 3.097672
v 2.869195 23.271223 -2.883719
v -2.513032 23.271223 -2.883719
v -2.513032 25.349339 3.097672
v 2.869195 25.349339 3.097672
v 2.869195 25.395214 -2.883719
v -2.513032 25.395214 -2.883719
v -1.269010 5.190677 1.545727
v -1.325028 5.190677 -1.456168
v 1.676867 5.190677 -1.456168
v 1.732886 5.190677 1.545727
v -1.074877 10.826821 1.639584
v -1.074877 10.826821 -1.413152
v 1.977859 10.826821 -1.413152
v 1.977859 10.826821 1.639584
v -2.001491 10.461721 2.126129
v -2.001491 10.461721 -2.228688
v 2.353329 10.461721 -2.228688
v 2.353329 10.461721 2.126129
v -1.764395 11.195058 1.981072
v -1.635534 11.195058 -1.754637
v 2.100178 11.195058 -1.754637
v 2.100178 11.195058 1.981072
v -2.111725 4.825321 2.169273
v 2.137262 4.825321 -2.079712
v 2.137262 4.825321 2.169273
v -2.124552 5.449673 2.249191
v -2.124552 5.449673 -2.351749
v 2.476393 5.449673 -2.351749
v -1.967081 13.486321 2.172610
v -1.827072 13.486321 -1.946176
v 2.291716 13.486321 -1.946176
v 2.291716 13.486321 2.172610
v -2.222644 14.180307 -2.230671
v -2.222644 14.180307 2.128113
v 2.136144 14.180307 2.128113
v -1.416798 13.922909 1.212487
v -1.307017 13.922908 -1.315045
v 1.220517 13.922908 -1.315045
v 1.110736 13.922908 1.212487
v -2.365633 18.080589 -2.373661
v -2.365633 18.080589 2.271102
v 2.279133 18.080589 2.271102
v 2.279133 18.080589 -2.373661
v -1.230708 18.438976 -1.601470
v -1.230708 18.438976 1.075200
v 1.445964 18.438976 1.075200
v 1.445964 18.438976 -1.601470
v -1.760226 19.062798 1.604719
v 1.975483 19.062794 1.604719
v 1.975483 19.062794 -2.130990
v -2.099380 4.309858 -2.067366
v -1.448738 4.825321 -2.079712
v -1.892555 4.825321 -1.388335
v -1.421532 4.916660 -1.490952
v 1.529323 14.134830 -1.708784
v 2.136144 14.180307 -1.140975
v 1.046446 14.180307 -2.230671
v 2.338610 15.578224 -2.266419
v -1.609503 22.651268 -1.711191
v -1.718267 22.720402 -1.919739
v -1.524936 22.651268 -1.852472
v -1.307379 19.062794 -2.130990
v -1.413013 18.853363 -1.606947
v -1.719857 19.062794 -1.441881
v 2.621928 5.449673 1.559050
v 1.962246 5.410824 1.646165
v 1.931787 5.449673 2.249191
v 2.603469 6.726445 2.230732
v -1.361532 2.188203 2.585283
v -2.679814 1.627120 2.585283
v -2.679814 2.188203 1.267002
v -2.539450 2.332019 2.444919
vt 0.538741 0.788345
vt 0.552122 0.805271
vt 0.526496 0.796375
vt 0.529407 0.768342
vt 0.478884 0.505327
vt 0.477043 0.615604
vt 0.354486 0.613558
vt 0.356327 0.503281
vt 0.603630 0.539683
vt 0.526794 0.605971
vt 0.486474 0.583437
vt 0.570961 0.502526
vt 0.458175 0.701203
vt 0.503221 0.698576
vt 0.541787 0.615855
vt 0.521763 0.696949
vt 0.605505 0.560519
vt 0.740899 0.306176
vt 0.743284 0.221249
vt 0.785642 0.220280
vt 0.783200 0.307228
vt 0.735376 0.136658
vt 0.777545 0.133675
vt 0.784999 0.384856
vt 0.780410 0.396170
vt 0.763765 0.392743
vt 0.776282 0.379866
vt 0.377182 0.896131
vt 0.444628 0.947771
vt 0.439488 0.975224
vt 0.352020 0.908254
vt 0.508445 0.891708
vt 0.531896 0.894916
vt 0.472245 0.823145
vt 0.472301 0.818723
vt 0.486395 0.794591
vt 0.306141 0.845647
vt 0.307982 0.735370
vt 0.351501 0.736096
vt 0.349659 0.846373
vt 0.310968 0.612832
vt 0.312809 0.502555
vt 0.305035 0.968216
vt 0.348553 0.968943
vt 0.712712 0.590424
vt 0.775202 0.611524
vt 0.768545 0.629511
vt 0.688168 0.603131
vt 0.896245 0.622121
vt 0.961089 0.607486
vt 0.982722 0.625516
vt 0.898808 0.642934
vt 0.833560 0.671043
vt 0.829499 0.637427
vt 0.836931 0.624154
vt 0.843581 0.639584
vt 0.713765 0.724816
vt 0.775815 0.692536
vt 0.775503 0.707071
vt 0.714290 0.740222
vt 0.892594 0.691712
vt 0.948604 0.736176
vt 0.950569 0.753375
vt 0.891281 0.700954
vt 0.834032 0.686258
vt 0.830823 0.695104
vt 0.686778 0.712548
vt 0.765311 0.675121
vt 0.904475 0.677430
vt 0.977453 0.731828
vt 0.832162 0.674611
vt 0.809399 0.371205
vt 0.823401 0.295899
vt 0.870474 0.300516
vt 0.855039 0.383544
vt 0.812259 0.141091
vt 0.787989 0.068488
vt 0.831430 0.049828
vt 0.858189 0.129876
vt 0.824181 0.216710
vt 0.871334 0.213249
vt 0.833579 0.603409
vt 0.897530 0.609116
vt 0.835748 0.617104
vt 0.778083 0.593129
vt 0.469696 0.429002
vt 0.461231 0.335105
vt 0.563776 0.328392
vt 0.571788 0.417266
vt 0.462505 0.141991
vt 0.472272 0.048220
vt 0.574192 0.061370
vt 0.564947 0.150125
vt 0.950809 0.369828
vt 0.880148 0.348678
vt 0.893499 0.287702
vt 0.967222 0.294858
vt 0.887802 0.135452
vt 0.873622 0.069708
vt 0.944762 0.049804
vt 0.960893 0.125715
vt 0.898006 0.211302
vt 0.972228 0.209981
vt 0.703124 0.881000
vt 0.770551 0.868184
vt 0.768399 0.886828
vt 0.714467 0.893980
vt 0.821653 0.843953
vt 0.824757 0.875845
vt 0.888454 0.838595
vt 0.887601 0.864458
vt 0.956549 0.891980
vt 0.938302 0.899633
vt 0.770718 0.907116
vt 0.703706 0.915144
vt 0.835067 0.901371
vt 0.576856 0.397354
vt 0.606193 0.312862
vt 0.682895 0.336317
vt 0.651579 0.426393
vt 0.629043 0.226490
vt 0.707782 0.244134
vt 0.672906 0.146604
vt 0.640079 0.160546
vt 0.639719 0.141067
vt 0.642660 0.124922
vt 0.709077 0.811839
vt 0.771773 0.756819
vt 0.784733 0.788162
vt 0.734019 0.823155
vt 0.840372 0.748666
vt 0.843654 0.774757
vt 0.907337 0.768565
vt 0.898264 0.788125
vt 0.971712 0.835618
vt 0.940231 0.831299
vt 0.789584 0.804515
vt 0.746053 0.835297
vt 0.738895 0.830986
vt 0.843375 0.791416
vt 0.889367 0.804476
vt 0.936679 0.839800
vt 0.926106 0.845274
vt 0.960985 0.586578
vt 0.962948 0.600643
vt 0.725054 0.052327
vt 0.756546 0.048864
vt 0.768635 0.060808
vt 0.732149 0.390684
vt 0.712621 0.583412
vt 0.717004 0.573075
vt 0.723689 0.146327
vt 0.884483 0.878552
vt 0.880448 0.883053
vt 0.941969 0.931192
vt 0.885452 0.888089
vt 0.637797 0.057394
vt 0.717436 0.049966
vt 0.414606 0.824499
vt 0.415104 0.829492
vt 0.405444 0.798097
vt 0.950103 0.373126
vt 0.876705 0.364768
vt 0.954529 0.373202
vt 0.787989 0.122283
vt 0.790618 0.110815
vt 0.798906 0.109967
vt 0.457838 0.252055
vt 0.483419 0.237234
vt 0.560135 0.239231
vt 0.458047 0.222059
vt 0.609378 0.865691
vt 0.551064 0.780315
vt 0.613508 0.845143
vt 0.574645 0.897316
vt 0.497317 0.814218
vn -0.680634 0.271064 0.680634
vn -0.680634 0.271064 0.680634
vn -0.680634 0.271064 0.680634
vn -0.680634 0.271064 0.680634
vn 0.000000 1.000000 0.000000
vn 0.000000 1.000000 0.000000
vn 0.000000 1.000000 0.000000
vn 0.000000 1.000000 0.000000
vn 0.000000 0.000000 -1.000000
vn 0.000000 0.000000 -1.000000
vn 0.000000 0.000000 -1.000000
vn 0.000000 0.000000 -1.000000
vn 1.000000 0.000000 0.000000
vn 1.000000 0.000000 0.000000
vn 1.000000 0.000000 0.000000
vn 1.000000 0.000000 0.000000
vn 0.000002 1.000000 0.000000
vn 0.000002 1.000000 0.000000
vn 0.000002 1.000000 0.000000
vn 0.000002 1.000000 0.000000
vn 0.000000 1.000000 -0.000002
vn 0.000000 1.000000 -0.000002
vn 0.000000 1.000000 -0.000002
vn 0.000000 1.000000 -0.000002
vn 0.000000 0.000000 1.000000
vn 0.000000 0.000000 1.000000
vn 0.000000 0.020418 0.999792
vn 0.000000 0.020418 0.999792
vn 1.000000 0.000000 0.000000
vn 0.999792 0.020418 0.000000
vn 1.000000 0.000000 0.000000
vn 0.999792 0.020418 0.000000
vn -0.477049 0.823799 -0.306233
vn -0.477049 0.823799 -0.306233
vn -0.477049 0.823799 -0.306233
vn -0.477049 0.823799 -0.306233
vn 0.000000 -1.000000 0.000002
vn 0.000000 -1.000000 0.000002
vn 0.000000 -1.000000 0.000002
vn 0.000000 -1.000000 0.000002
vn 0.000000 -1.000000 0.000000
vn 0.000000 -1.000000 0.000000
vn 0.000000 -1.000000 0.000000
vn 0.000000 -1.000000 0.000000
vn 0.000000 -1.000000 -0.000002
vn 0.000000 -1.000000 -0.000002
vn 0.000000 -1.000000 -0.000002
vn -0.019645 -0.825163 -0.564554
vn -0.019645 -0.825163 -0.564554
vn 0.000000 0.000000 1.000000
vn 0.000000 0.000000 1.000000
vn 0.000000 0.000000 1.000000
vn 0.000000 0.000000 1.000000
vn 1.000000 0.000000 0.000000
vn 1.000000 0.000000 0.000000
vn 1.000000 0.000000 0.000000
vn 1.000000 0.000000 0.000000
vn 0.000000 0.000000 -1.000000
vn 0.000000 0.000000 -1.000000
vn 0.000000 0.000000 -1.000000
vn 0.000000 0.000000 -1.000000
vn -1.000000 0.000000 0.000000
vn -1.000000 0.000000 0.000000
vn -1.000000 0.000000 0.000000
vn -1.000000 0.000000 0.000000
vn -0.999865 0.016460 0.000000
vn -0.999862 -0.016633 0.000000
vn -0.999865 0.016460 0.000000
vn -0.999862 -0.016633 0.000000
vn 0.000000 0.016460 -0.999865
vn 0.000000 0.016460 -0.999865
vn 0.000000 -0.016633 -0.999862
vn 0.000000 -0.016633 -0.999862
vn 0.590476 -0.550159 0.590477
vn 0.590476 -0.550159 0.590477
vn 0.590476 -0.550159 0.590477
vn 0.590476 -0.550159 0.590477
vn -0.999999 -0.001222 0.000000
vn -0.999999 -0.001222 0.000000
vn -0.999662 -0.025995 0.000000
vn -0.999662 -0.025995 0.000000
vn 0.000000 -0.001222 -0.999999
vn 0.000000 -0.001222 -0.999999
vn 0.000000 -0.025995 -0.999662
vn 0.000000 -0.025995 -0.999662
vn 0.999999 -0.001222 0.000000
vn 0.999999 -0.001222 0.000000
vn 0.999662 -0.025995 0.000000
vn 0.999662 -0.025995 0.000000
vn 0.000000 -0.001221 0.999999
vn 0.000000 -0.025995 0.999662
vn 0.000000 -0.001221 0.999999
vn 0.000000 -0.025995 0.999662
vn -0.999838 0.017974 0.000000
vn -0.999838 0.017974 0.000000
vn -0.999999 -0.001222 0.000000
vn -0.999999 -0.001222 0.000000
vn 0.000000 0.017974 -0.999838
vn 0.000000 -0.001222 -0.999999
vn 0.000000 0.017974 -0.999838
vn 0.000000 -0.001222 -0.999999
vn 0.999838 0.017974 0.000000
vn 0.999999 -0.001222 0.000000
vn 0.999838 0.017974 0.000000
vn 0.999999 -0.001222 0.000000
vn 0.000000 0.017974 0.999838
vn 0.000000 0.017974 0.999838
vn 0.000000 -0.001221 0.999999
vn 0.000000 -0.001221 0.999999
vn -0.999662 -0.025995 0.000000
vn -0.999662 -0.025995 0.000000
vn -0.995741 -0.085661 -0.034086
vn -0.995741 -0.085661 -0.034086
vn 0.000000 -0.025995 -0.999662
vn 0.000000 -0.025995 -0.999662
vn 0.000000 -0.083305 -0.996524
vn 0.000000 -0.083305 -0.996524
vn 0.999662 -0.025995 0.000000
vn 0.999662 -0.025995 0.000000
vn 0.996524 -0.083305 0.000000
vn 0.996524 -0.083305 0.000000
vn 0.000000 -0.025995 0.999662
vn 0.000000 -0.083305 0.996524
vn 0.000000 -0.025995 0.999662
vn 0.000000 -0.083305 0.996524
vn 0.999792 0.020418 0.000000
vn 0.999792 0.020418 0.000000
vn 0.999865 0.016461 0.000000
vn 0.999865 0.016461 0.000000
vn 0.000000 0.020418 0.999792
vn 0.000000 0.020418 0.999792
vn 0.000000 0.016461 0.999865
vn 0.000000 0.016461 0.999865
vn -0.999862 -0.016633 0.000000
vn -0.999862 -0.016633 0.000000
vn -0.999838 0.017974 0.000000
vn -0.999838 0.017974 0.000000
vn 0.000000 -0.016633 -0.999862
vn 0.000000 -0.016633 -0.999862
vn 0.000000 0.017974 -0.999838
vn 0.000000 0.017974 -0.999838
vn -0.998830 -0.002673 -0.048294
vn -0.998830 -0.002673 -0.048294
vn -0.998830 -0.002673 -0.048294
vn -1.000000 0.000000 0.000000
vn -0.038733 0.039713 -0.998460
vn -0.038733 0.039713 -0.998460
vn -0.038733 0.039713 -0.998460
vn 0.000000 0.000000 -1.000000
vn 0.997019 -0.077158 0.000000
vn 1.000000 0.000000 0.000000
vn 0.997019 -0.077158 0.000000
vn 1.000000 0.000000 0.000000
vn 0.000000 -0.116004 0.993249
vn 0.000000 -0.116004 0.993249
vn 0.000000 0.000000 1.000000
vn 0.000000 0.000000 1.000000
vn -0.636351 0.771029 -0.023916
vn -0.636351 0.771029 -0.023916
vn -0.636351 0.771029 -0.023916
vn -0.636351 0.771029 -0.023916
vn 0.000000 0.910307 0.413933
vn 0.000000 0.910307 0.413933
vn 0.000000 0.910307 0.413933
vn 0.000000 0.910307 0.413933
vn 0.360721 0.932655 0.005958
vn 0.360721 0.932655 0.005958
vn 0.360721 0.932655 0.005958
vn 0.360721 0.932655 0.005958
vn 0.000000 0.822406 -0.568902
vn 0.000000 0.822406 -0.568902
vn 0.000000 0.822406 -0.568902
vn 0.000000 0.822406 -0.568902
vn -0.286507 -0.958067 -0.004567
vn -0.286507 -0.958067 -0.004567
vn -0.286507 -0.958067 -0.004567
vn -0.286507 -0.958067 -0.004567
vn 0.000000 -0.962684 0.270629
vn 0.000000 -0.962684 0.270629
vn 0.000000 -0.962684 0.270629
vn 0.000000 -0.962684 0.270629
vn -0.999329 -0.036636 0.000000
vn -0.999329 -0.036636 0.000000
vn -0.999329 -0.036636 0.000000
vn -0.999329 -0.036636 0.000000
vn 0.000000 -0.036637 0.999329
vn 0.000000 -0.036637 0.999329
vn 0.000000 -0.036637 0.999329
vn 0.000000 -0.036637 0.999329
vn 0.587539 -0.556412 -0.587540
vn 0.587539 -0.556412 -0.587540
vn 0.587539 -0.556412 -0.587540
vn 0.587539 -0.556412 -0.587540
vn -0.301123 0.953585 0.000000
vn -0.301123 0.953585 0.000000
vn -0.301123 0.953585 0.000000
vn -0.301123 0.953585 0.000000
vn 0.000000 0.957911 0.287065
vn 0.000000 0.957911 0.287065
vn 0.000000 0.957911 0.287065
vn 0.000000 0.957911 0.287065
vn 0.395142 0.918620 0.000000
vn 0.395142 0.918620 0.000000
vn 0.395142 0.918620 0.000000
vn 0.395143 0.918620 0.000000
vn 0.000000 0.907068 -0.420984
vn 0.000000 0.907068 -0.420984
vn 0.000000 0.907068 -0.420984
vn 0.000000 0.907068 -0.420984
vn -0.778436 -0.627250 -0.024413
vn -0.778436 -0.627250 -0.024413
vn -0.778436 -0.627250 -0.024413
vn -0.778436 -0.627250 -0.024413
vn -0.778436 -0.627250 -0.024413
vn 0.000000 -0.647134 0.762377
vn 0.000000 -0.647134 0.762377
vn 0.000000 -0.647134 0.762377
vn 0.000000 -0.647134 0.762377
vn 0.762378 -0.647132 0.000000
vn 0.762378 -0.647132 0.000000
vn 0.762378 -0.647132 0.000000
vn 0.762378 -0.647132 0.000000
vn -0.043152 -0.649607 -0.759044
vn -0.043152 -0.649607 -0.759044
vn -0.043152 -0.649607 -0.759044
vn -0.043152 -0.649607 -0.759044
vn -0.043152 -0.649607 -0.759044
vn -0.032862 0.865165 -0.500410
vn -0.032862 0.865165 -0.500410
vn 0.000000 0.020418 -0.999792
vn 0.000000 0.016460 -0.999865
vn 0.000000 0.016460 -0.999865
vn 0.000000 0.020418 -0.999792
vn 0.000000 0.000000 -1.000000
vn -0.002921 0.023579 -0.999718
vn 0.000000 0.000000 -1.000000
vn -0.002921 0.023579 -0.999718
vn -0.999792 0.020418 0.000000
vn -0.998245 0.058629 -0.008373
vn -1.000000 0.000000 0.000000
vn -1.000000 0.000000 0.000000
vn -0.998245 0.058629 -0.008373
vn -0.466876 0.883646 -0.034588
vn -0.999792 0.020418 0.000000
vn -0.466876 0.883646 -0.034588
vn -0.999865 0.016460 0.000000
vn -0.999865 0.016460 0.000000
vn 0.999362 -0.031083 0.017577
vn 0.999362 -0.031083 0.017577
vn 0.999362 -0.031083 0.017577
vn 0.999362 -0.031083 0.017577
vn 0.999362 -0.031083 0.017577
vn 0.258182 -0.966000 -0.013667
vn 0.258182 -0.966000 -0.013667
vn 0.258182 -0.966000 -0.013667
vn 0.258182 -0.966000 -0.013667
vn 0.258182 -0.966000 -0.013667
vn 0.015754 -0.961780 -0.273369
vn 0.015754 -0.961780 -0.273369
vn 0.015754 -0.961780 -0.273369
vn 0.015754 -0.961780 -0.273369
vn 0.015754 -0.961780 -0.273369
vn 0.001768 -0.037194 -0.999306
vn 0.001768 -0.037194 -0.999306
vn 0.001768 -0.037194 -0.999306
vn 0.001768 -0.037194 -0.999306
vn 0.001768 -0.037194 -0.999306
vn 0.000000 -1.000000 0.000000
vn 0.000000 -1.000000 0.000000
vn 0.000000 -1.000000 0.000000
vn -0.616868 -0.786779 -0.021264
vn -0.616868 -0.786779 -0.021264
vn -0.857972 -0.012157 -0.513553
vn -0.857972 -0.012157 -0.513553
vn -0.857972 -0.012157 -0.513553
vn -0.857972 -0.012157 -0.513553
vn -0.279782 -0.945344 -0.167472
vn -0.279782 -0.945344 -0.167472
vn -0.279782 -0.945344 -0.167472
vn -0.653018 -0.648679 -0.390876
vn -0.653018 -0.648679 -0.390876
vn -0.653018 -0.648679 -0.390876
vn 0.000000 -0.016633 0.999862
vn -0.001436 0.024666 0.999695
vn 0.000000 0.017974 0.999838
vn -0.001436 0.024666 0.999695
vn 0.000000 0.017974 0.999838
vn 0.023726 -0.940311 0.339488
vn 0.000000 -0.016633 0.999862
vn 0.023726 -0.940311 0.339488
vn 0.000000 0.016461 0.999865
vn 0.000000 0.016461 0.999865
vn 0.288784 -0.957300 0.013395
vn 0.288784 -0.957300 0.013395
vn 0.999862 -0.016633 0.000000
vn 0.999865 0.016461 0.000000
vn 0.999865 0.016461 0.000000
vn 0.999862 -0.016633 0.000000
vn 0.999838 0.017974 0.000000
vn 0.998884 0.041679 -0.022209
vn 0.998884 0.041679 -0.022209
vn 0.999838 0.017974 0.000000
vn -0.000002 1.000000 0.000000
vn -0.715644 0.698466 0.000000
vn -0.000002 1.000000 0.000000
vn -0.715644 0.698466 0.000000
vn -0.000002 1.000000 0.000000
vn -1.000000 0.000000 0.000000
vn -1.000000 0.000000 0.000000
vn -1.000000 0.000000 0.000000
vn -1.000000 0.000000 0.000000
vn -1.000000 0.000000 0.000000
vn 0.000000 0.000000 1.000000
vn 0.000000 0.000000 1.000000
vn 0.000000 0.000000 1.000000
vn 0.000000 0.000000 1.000000
vn 0.000000 0.000000 1.000000
vn 0.000000 1.000000 0.000002
vn 0.000000 1.000000 0.000002
vn 0.000000 0.698466 0.715644
vn 0.000000 0.698466 0.715644
vn 0.000000 1.000000 0.000002
s 1
g Pillarv2Stone1
usemtl Pillarv2Stone:StonePillarSG
f 87/2/1 86/3/2 88/1/3
f 88/1/3 86/3/2 85/4/4
s 2
f 19/5/5 20/6/6 22/8/7
f 22/8/7 20/6/6 21/7/8
s 3
f 4/9/9 5/10/10 6/12/11
f 6/12/11 5/10/10 7/11/12
s 4
f 2/13/13 7/11/14 3/14/15
f 3/14/15 7/11/14 5/10/16
s 5
f 3/14/17 5/10/18 9/16/19
f 9/16/19 5/10/18 10/15/20
s 6
f 5/10/21 4/9/22 10/15/23
f 10/15/23 4/9/22 11/17/24
s 7
f 8/18/25 9/19/26 39/21/27
f 39/21/27 9/19/26 41/20/28
s 8
f 10/22/29 40/23/30 9/19/31
f 9/19/31 40/23/30 41/20/32
s 9
f 70/24/33 68/25/34 69/27/35
f 69/27/35 68/25/34 67/26/36
s 10
f 12/28/37 13/29/38 15/31/39
f 15/31/39 13/29/38 16/30/40
s 11
f 14/32/41 17/33/42 13/29/43
f 13/29/43 17/33/42 16/30/44
s 12
f 17/33/45 14/32/46 18/36/47
f 14/32/46 77/34/48 18/36/47
f 77/34/48 76/35/49 18/36/47
s 13
f 15/37/50 16/38/51 19/40/52
f 19/40/52 16/38/51 20/39/53
s 14
f 16/38/54 17/41/55 20/39/56
f 20/39/56 17/41/55 21/7/57
s 15
f 17/41/58 18/42/59 21/7/60
f 21/7/60 18/42/59 22/8/61
s 16
f 15/37/62 19/40/63 18/43/64
f 18/43/64 19/40/63 22/44/65
s 17
f 23/46/66 42/47/67 24/45/68
f 24/45/68 42/47/67 43/48/69
s 18
f 25/49/70 24/50/71 44/52/72
f 44/52/72 24/50/71 43/51/73
s 19
f 84/53/74 83/54/75 81/56/76
f 81/56/76 83/54/75 82/55/77
s 20
f 28/57/78 27/58/79 36/60/80
f 36/60/80 27/58/79 35/59/81
s 21
f 29/61/82 28/62/83 37/64/84
f 37/64/84 28/62/83 36/63/85
s 22
f 30/65/86 29/61/87 38/66/88
f 38/66/88 29/61/87 37/64/89
s 23
f 30/65/90 38/66/91 27/58/92
f 27/58/92 38/66/91 35/59/93
s 24
f 32/67/94 31/68/95 28/57/96
f 28/57/96 31/68/95 27/58/97
s 25
f 32/70/98 28/62/99 33/69/100
f 33/69/100 28/62/99 29/61/101
s 26
f 33/69/102 29/61/103 34/71/104
f 34/71/104 29/61/103 30/65/105
s 27
f 31/68/106 34/71/107 27/58/108
f 27/58/108 34/71/107 30/65/109
s 28
f 36/72/110 35/73/111 46/75/112
f 46/75/112 35/73/111 45/74/113
s 29
f 37/76/114 36/77/115 47/79/116
f 47/79/116 36/77/115 46/78/117
s 30
f 38/80/118 37/76/119 48/81/120
f 48/81/120 37/76/119 47/79/121
s 31
f 38/80/122 48/81/123 35/73/124
f 35/73/124 48/81/123 45/74/125
s 32
f 41/82/126 40/83/127 26/84/128
f 26/84/128 40/83/127 25/49/129
s 33
f 39/85/130 41/82/131 23/46/132
f 23/46/132 41/82/131 26/84/133
s 34
f 43/86/134 42/87/135 32/89/136
f 32/89/136 42/87/135 31/88/137
s 35
f 44/90/138 43/91/139 33/93/140
f 33/93/140 43/91/139 32/92/141
s 36
f 80/95/142 64/96/143 75/94/144
f 75/94/144 64/96/143 12/97/145
s 37
f 78/99/146 77/100/147 66/98/148
f 66/98/148 77/100/147 14/101/149
s 38
f 66/98/150 14/101/151 65/102/152
f 65/102/152 14/101/151 13/103/153
s 39
f 64/96/154 65/102/155 12/97/156
f 12/97/156 65/102/155 13/103/157
s 40
f 45/105/158 52/106/159 46/104/160
f 46/104/160 52/106/159 53/107/161
s 41
f 48/108/162 55/109/163 45/105/164
f 45/105/164 55/109/163 52/106/165
s 42
f 48/108/166 47/110/167 55/109/168
f 55/109/168 47/110/167 54/111/169
s 43
f 47/110/170 46/112/171 54/111/172
f 54/111/172 46/112/171 53/113/173
s 44
f 53/107/174 52/106/175 49/115/176
f 49/115/176 52/106/175 50/114/177
s 45
f 52/106/178 55/109/179 50/114/180
f 50/114/180 55/109/179 51/116/181
s 46
f 49/117/182 50/118/183 56/120/184
f 56/120/184 50/118/183 57/119/185
s 47
f 50/118/186 51/121/187 57/119/188
f 57/119/188 51/121/187 58/122/189
s 48
f 73/126/190 74/123/191 71/125/192
f 74/123/191 72/124/193 71/125/192
s 49
f 57/128/194 61/129/195 56/127/196
f 56/127/196 61/129/195 60/130/197
s 50
f 57/128/198 58/131/199 61/129/200
f 61/129/200 58/131/199 62/132/201
s 51
f 58/131/202 59/133/203 62/132/204
f 62/132/204 59/133/203 63/134/205
s 52
f 56/135/206 60/136/207 59/133/208
f 59/133/208 60/136/207 63/134/209
s 53
f 64/137/210 80/138/211 61/129/212
f 60/130/213 61/129/212 79/139/214
f 61/129/212 80/138/211 79/139/214
s 54
f 61/129/215 62/132/216 64/137/217
f 64/137/217 62/132/216 65/140/218
s 55
f 62/132/219 63/134/220 65/140/221
f 65/140/221 63/134/220 66/141/222
s 56
f 66/141/223 63/134/224 78/143/225
f 78/143/225 63/134/224 79/142/226
f 63/134/224 60/136/227 79/142/226
s 57
f 68/144/228 70/145/229 40/83/230
f 70/145/229 24/50/231 40/83/230
f 40/83/230 24/50/231 25/49/232
s 58
f 40/23/233 10/22/234 68/148/235
f 11/146/236 67/147/237 10/22/234
f 10/22/234 67/147/237 68/148/235
s 59
f 39/21/238 69/27/239 8/18/240
f 11/149/241 8/18/240 67/26/242
f 8/18/240 69/27/239 67/26/242
s 60
f 69/151/243 39/85/244 70/150/245
f 70/150/245 39/85/244 24/45/246
f 39/85/244 23/46/247 24/45/246
s 61
f 59/152/248 58/122/249 74/123/250
f 74/123/250 58/122/249 72/124/251
f 51/121/252 72/124/251 58/122/249
s 62
f 51/116/253 55/109/254 72/154/255
f 71/153/256 72/154/255 54/111/257
f 55/109/254 54/111/257 72/154/255
s 63
f 49/155/258 73/156/259 53/113/260
f 71/153/261 54/111/262 73/156/259
f 54/111/262 53/113/260 73/156/259
s 64
f 56/158/263 59/152/264 49/157/265
f 59/152/264 74/123/266 49/157/265
f 74/123/266 73/126/267 49/157/265
s 65
f 15/31/268 18/161/269 12/28/270
f 12/28/270 18/161/269 75/160/271
f 76/159/272 75/160/271 18/161/269
s 66
f 75/94/273 77/162/274 80/95/275
f 80/95/275 77/162/274 78/163/276
s off
f 75/94/277 76/164/278 77/162/279
f 78/165/280 79/166/281 80/167/282
s 67
f 42/87/283 83/168/284 31/88/285
f 83/168/284 84/169/286 31/88/285
f 84/169/286 34/170/287 31/88/285
s 68
f 83/54/288 42/47/289 82/55/290
f 82/55/290 42/47/289 26/84/291
f 23/46/292 26/84/291 42/47/289
s 69
f 81/56/293 82/55/294 44/52/295
f 82/55/294 26/84/296 44/52/295
f 26/84/296 25/49/297 44/52/295
s 70
f 44/90/298 33/93/299 81/171/300
f 81/171/300 33/93/299 84/169/301
f 84/169/301 33/93/299 34/170/302
s 71
f 4/172/303 87/2/304 11/174/305
f 88/1/306 8/173/307 87/2/304
f 87/2/304 8/173/307 11/174/305
s 72
f 6/175/308 1/176/309 4/172/310
f 86/3/311 87/2/312 1/176/309
f 1/176/309 87/2/312 4/172/310
s 73
f 1/176/313 2/13/314 86/3/315
f 86/3/315 2/13/314 85/4/316
f 2/13/314 3/14/317 85/4/316
s 74
f 3/14/318 9/16/319 85/4/320
f 88/1/321 85/4/320 8/173/322
f 85/4/320 9/16/319 8/173/322
