# This file uses centimeters as units for non-parametric coordinates.

mtllib pillar.mtl
g default
v -1.449204 -0.238514 1.441841
v 1.477598 -0.238514 1.441841
v -1.449204 1.007183 1.441841
v 1.477598 1.007183 1.441841
v -1.449204 1.007183 -1.484959
v 1.477598 1.007183 -1.484959
v -1.449204 -0.238514 -1.484959
v 1.477598 -0.238514 -1.484959
v -1.137573 1.007183 1.130210
v 1.165966 1.007183 1.130210
v 1.165966 1.007183 -1.173329
v -1.137573 1.007183 -1.173329
v -1.137573 12.709124 1.130210
v 1.165966 12.709124 1.130210
v 1.165966 12.709124 -1.173329
v -1.137573 12.709124 -1.173329
v -1.479482 12.709124 1.472120
v 1.507876 12.709124 1.472120
v 1.507876 12.709124 -1.515238
v -1.479482 12.709124 -1.515238
v -1.479482 13.888025 1.472120
v 1.507876 13.888025 1.472120
v 1.507876 13.888025 -1.515238
v -1.479482 13.888025 -1.515238
v -1.014952 4.517766 1.007589
v -1.014952 4.517766 -1.050708
v 1.043345 4.517766 -1.050708
v 1.043345 4.517766 1.007589
v -1.014952 9.432581 1.007589
v -1.014952 9.432581 -1.050708
v 1.043345 9.432581 -1.050708
v 1.043345 9.432581 1.007589
v -1.137573 9.198415 1.130210
v -1.137573 9.198415 -1.173329
v 1.165966 9.198415 -1.173329
v 1.165966 9.198415 1.130210
v -1.137573 9.659646 1.130210
v -1.137573 9.659646 -1.173329
v 1.165966 9.659646 -1.173329
v 1.165966 9.659646 1.130210
v -1.137573 4.394955 1.130210
v -1.137573 4.394955 -1.173329
v 1.165966 4.394955 -1.173329
v 1.165966 4.394955 1.130210
v -1.137573 4.686505 1.130210
v -1.137573 4.686505 -1.173329
v 1.165966 4.686505 -1.173329
v 1.165966 4.686505 1.130210
vt 0.589626 0.025728
vt 0.775229 0.027841
vt 0.588726 0.104723
vt 0.774329 0.106837
vt 0.334052 0.478438
vt 0.495963 0.478438
vt 0.334052 0.640350
vt 0.495963 0.640350
vt 0.774329 0.106837
vt 0.588726 0.104723
vt 0.775229 0.027841
vt 0.589626 0.025728
vt 0.589626 0.025728
vt 0.775229 0.027841
vt 0.588726 0.104723
vt 0.774329 0.106837
vt 0.589626 0.025728
vt 0.775229 0.027841
vt 0.588726 0.104723
vt 0.774329 0.106837
vt 0.608263 0.124710
vt 0.754342 0.126374
vt 0.608263 0.124710
vt 0.754342 0.126374
vt 0.608263 0.124710
vt 0.754342 0.126374
vt 0.608263 0.124710
vt 0.754342 0.126374
vt 0.605817 0.339545
vt 0.751895 0.341209
vt 0.605817 0.339545
vt 0.751895 0.341209
vt 0.605817 0.339545
vt 0.751895 0.341209
vt 0.605817 0.339545
vt 0.751895 0.341209
vt 0.599702 0.876410
vt 0.745781 0.878074
vt 0.577773 0.897845
vt 0.767216 0.900003
vt 0.599702 0.876410
vt 0.745781 0.878074
vt 0.577773 0.897845
vt 0.767216 0.900003
vt 0.599702 0.876410
vt 0.745781 0.878074
vt 0.577773 0.897845
vt 0.767216 0.900003
vt 0.599702 0.876410
vt 0.745781 0.878074
vt 0.577773 0.897845
vt 0.767216 0.900003
vt 0.576922 0.972605
vt 0.766365 0.974763
vt 0.576922 0.972605
vt 0.766365 0.974763
vt 0.576922 0.972605
vt 0.766365 0.974763
vt 0.576922 0.972605
vt 0.766365 0.974763
vt 0.613467 0.350640
vt 0.743994 0.352126
vt 0.605541 0.363779
vt 0.751619 0.365442
vt 0.613467 0.350640
vt 0.743994 0.352126
vt 0.605541 0.363779
vt 0.751619 0.365442
vt 0.613467 0.350640
vt 0.743994 0.352126
vt 0.605541 0.363779
vt 0.751619 0.365442
vt 0.613467 0.350640
vt 0.743994 0.352126
vt 0.605541 0.363779
vt 0.751619 0.365442
vt 0.609867 0.666752
vt 0.740394 0.668238
vt 0.601905 0.683028
vt 0.747983 0.684691
vt 0.609867 0.666752
vt 0.740394 0.668238
vt 0.601905 0.683028
vt 0.747983 0.684691
vt 0.609867 0.666752
vt 0.740394 0.668238
vt 0.601905 0.683028
vt 0.747983 0.684691
vt 0.609867 0.666752
vt 0.740394 0.668238
vt 0.601905 0.683028
vt 0.747983 0.684691
vt 0.602282 0.649901
vt 0.748361 0.651564
vt 0.602282 0.649901
vt 0.748361 0.651564
vt 0.602282 0.649901
vt 0.748361 0.651564
vt 0.602282 0.649901
vt 0.748361 0.651564
vn 0.000000 0.000000 1.000000
vn 0.000000 0.000000 1.000000
vn 0.000000 0.000000 1.000000
vn 0.000000 0.000000 1.000000
vn 0.000000 0.000000 1.000000
vn 0.000000 0.000000 1.000000
vn 0.000000 1.000000 0.000000
vn 0.000000 1.000000 0.000000
vn 0.000000 1.000000 0.000000
vn 0.000000 1.000000 0.000000
vn 0.000000 1.000000 0.000000
vn 0.000000 1.000000 0.000000
vn 0.000000 0.000000 -1.000000
vn 0.000000 0.000000 -1.000000
vn 0.000000 0.000000 -1.000000
vn 0.000000 0.000000 -1.000000
vn 0.000000 0.000000 -1.000000
vn 0.000000 0.000000 -1.000000
vn 1.000000 0.000000 0.000000
vn 1.000000 0.000000 0.000000
vn 1.000000 0.000000 0.000000
vn 1.000000 0.000000 0.000000
vn 1.000000 0.000000 0.000000
vn 1.000000 0.000000 0.000000
vn -1.000000 0.000000 0.000000
vn -1.000000 0.000000 0.000000
vn -1.000000 0.000000 0.000000
vn -1.000000 0.000000 0.000000
vn -1.000000 0.000000 0.000000
vn -1.000000 0.000000 0.000000
vn 0.000000 1.000000 0.000001
vn 0.000000 1.000000 0.000002
vn 0.000000 1.000000 0.000001
vn 0.000000 1.000000 0.000001
vn 0.000000 1.000000 0.000002
vn 0.000000 1.000000 0.000002
vn 0.000002 1.000000 0.000000
vn 0.000002 1.000000 0.000000
vn 0.000002 1.000000 0.000000
vn 0.000002 1.000000 0.000000
vn 0.000002 1.000000 0.000000
vn 0.000002 1.000000 0.000000
vn 0.000000 1.000000 -0.000002
vn 0.000000 1.000000 -0.000002
vn 0.000000 1.000000 -0.000002
vn 0.000000 1.000000 -0.000002
vn 0.000000 1.000000 -0.000002
vn 0.000000 1.000000 -0.000002
vn -0.000002 1.000000 0.000000
vn -0.000002 1.000000 0.000000
vn -0.000002 1.000000 0.000000
vn -0.000002 1.000000 0.000000
vn -0.000002 1.000000 0.000000
vn -0.000002 1.000000 0.000000
vn 0.000000 0.000000 1.000000
vn 0.000000 0.000000 1.000000
vn 0.000000 0.021541 0.999768
vn 0.000000 0.021541 0.999768
vn 0.000000 0.000000 1.000000
vn 0.000000 0.019480 0.999810
vn 1.000000 0.000000 0.000000
vn 1.000000 0.000000 0.000000
vn 0.999768 0.021541 0.000000
vn 0.999768 0.021541 0.000000
vn 1.000000 0.000000 0.000000
vn 0.999810 0.019480 0.000000
vn 0.000000 0.000000 -1.000000
vn 0.000000 0.000000 -1.000000
vn 0.000000 0.021541 -0.999768
vn 0.000000 0.021541 -0.999768
vn 0.000000 0.000000 -1.000000
vn 0.000000 0.019480 -0.999810
vn -1.000000 0.000000 0.000000
vn -1.000000 0.000000 0.000000
vn -0.999768 0.021541 0.000000
vn -0.999768 0.021541 0.000000
vn -1.000000 0.000000 0.000000
vn -0.999810 0.019480 0.000000
vn 0.000000 -1.000000 0.000002
vn 0.000000 -1.000000 -0.000007
vn 0.000000 -1.000000 0.000000
vn 0.000000 -1.000000 0.000000
vn 0.000000 -1.000000 -0.000007
vn 0.000000 -1.000000 -0.000007
vn 0.000000 -1.000000 0.000000
vn 0.000000 -1.000000 0.000000
vn 0.000000 -1.000000 0.000000
vn 0.000000 -1.000000 0.000000
vn 0.000000 -1.000000 0.000000
vn 0.000000 -1.000000 0.000000
vn 0.000000 -1.000000 0.000001
vn 0.000000 -1.000000 0.000000
vn 0.000000 -1.000000 0.000001
vn 0.000000 -1.000000 0.000001
vn 0.000000 -1.000000 0.000000
vn 0.000000 -1.000000 0.000000
vn 0.000000 -1.000000 0.000000
vn 0.000000 -1.000000 0.000000
vn 0.000000 -1.000000 0.000000
vn 0.000000 -1.000000 0.000000
vn 0.000000 -1.000000 0.000000
vn 0.000000 -1.000000 0.000000
vn 0.000000 0.000000 1.000000
vn 0.000000 0.000000 1.000000
vn 0.000000 0.000000 1.000000
vn 0.000000 0.000000 1.000000
vn 0.000000 0.000000 1.000000
vn 0.000000 0.000000 1.000000
vn 1.000000 0.000000 0.000000
vn 1.000000 0.000000 0.000000
vn 1.000000 0.000000 0.000000
vn 1.000000 0.000000 0.000000
vn 1.000000 0.000000 0.000000
vn 1.000000 0.000000 0.000000
vn 0.000000 0.000000 -1.000000
vn 0.000000 0.000000 -1.000000
vn 0.000000 0.000000 -1.000000
vn 0.000000 0.000000 -1.000000
vn 0.000000 0.000000 -1.000000
vn 0.000000 0.000000 -1.000000
vn -1.000000 0.000000 0.000000
vn -1.000000 0.000000 0.000000
vn -1.000000 0.000000 0.000000
vn -1.000000 0.000000 0.000000
vn -1.000000 0.000000 0.000000
vn -1.000000 0.000000 0.000000
vn -0.998037 0.062621 0.000000
vn -0.999588 -0.028714 0.000000
vn -0.999874 -0.015886 0.000000
vn -0.999874 -0.015886 0.000000
vn -0.999588 -0.028714 0.000000
vn -0.999846 -0.017545 0.000000
vn 0.000000 0.062621 -0.998037
vn 0.000000 -0.028715 -0.999588
vn 0.000000 -0.015886 -0.999874
vn 0.000000 -0.015886 -0.999874
vn 0.000000 -0.028715 -0.999588
vn 0.000000 -0.017545 -0.999846
vn 0.998037 0.062623 0.000000
vn 0.999588 -0.028716 0.000000
vn 0.999874 -0.015886 0.000000
vn 0.999874 -0.015886 0.000000
vn 0.999588 -0.028716 0.000000
vn 0.999846 -0.017545 0.000000
vn 0.000000 0.062621 0.998037
vn 0.000000 -0.028715 0.999588
vn 0.000000 -0.015886 0.999874
vn 0.000000 -0.015886 0.999874
vn 0.000000 -0.028715 0.999588
vn 0.000000 -0.017545 0.999846
vn -0.999637 0.026943 0.000000
vn -0.999566 -0.029470 0.000000
vn -0.999690 -0.024893 0.000000
vn -0.999690 -0.024893 0.000000
vn -0.999566 -0.029470 0.000000
vn -0.999625 -0.027381 0.000000
vn 0.000000 0.026942 -0.999637
vn 0.000000 -0.029471 -0.999566
vn 0.000000 -0.024893 -0.999690
vn 0.000000 -0.024893 -0.999690
vn 0.000000 -0.029471 -0.999566
vn 0.000000 -0.027381 -0.999625
vn 0.999637 0.026944 0.000000
vn 0.999566 -0.029471 0.000000
vn 0.999690 -0.024893 0.000000
vn 0.999690 -0.024893 0.000000
vn 0.999566 -0.029471 0.000000
vn 0.999625 -0.027381 0.000000
vn 0.000000 0.026943 0.999637
vn 0.000000 -0.029470 0.999566
vn 0.000000 -0.024893 0.999690
vn 0.000000 -0.024893 0.999690
vn 0.000000 -0.029470 0.999566
vn 0.000000 -0.027381 0.999625
vn -0.999821 0.018947 0.000000
vn -0.999852 0.017204 0.000000
vn -0.999637 0.026943 0.000000
vn -0.999637 0.026943 0.000000
vn -0.999852 0.017204 0.000000
vn -0.999566 -0.029470 0.000000
vn 0.000000 0.018947 -0.999821
vn 0.000000 0.017204 -0.999852
vn 0.000000 0.026942 -0.999637
vn 0.000000 0.026942 -0.999637
vn 0.000000 0.017204 -0.999852
vn 0.000000 -0.029471 -0.999566
vn 0.999821 0.018947 0.000000
vn 0.999852 0.017204 0.000000
vn 0.999637 0.026944 0.000000
vn 0.999637 0.026944 0.000000
vn 0.999852 0.017204 0.000000
vn 0.999566 -0.029471 0.000000
vn 0.000000 0.018947 0.999821
vn 0.000000 0.017204 0.999852
vn 0.000000 0.026943 0.999637
vn 0.000000 0.026943 0.999637
vn 0.000000 0.017204 0.999852
vn 0.000000 -0.029470 0.999566
vn -0.999690 -0.024893 0.000000
vn -0.999625 -0.027381 0.000000
vn -1.000000 0.000000 0.000000
vn -1.000000 0.000000 0.000000
vn -0.999625 -0.027381 0.000000
vn -1.000000 0.000000 0.000000
vn 0.000000 -0.024893 -0.999690
vn 0.000000 -0.027381 -0.999625
vn 0.000000 0.000000 -1.000000
vn 0.000000 0.000000 -1.000000
vn 0.000000 -0.027381 -0.999625
vn 0.000000 0.000000 -1.000000
vn 0.999690 -0.024893 0.000000
vn 0.999625 -0.027381 0.000000
vn 1.000000 -0.000000 0.000000
vn 1.000000 -0.000000 0.000000
vn 0.999625 -0.027381 0.000000
vn 1.000000 -0.000000 0.000000
vn 0.000000 -0.024893 0.999690
vn 0.000000 -0.027381 0.999625
vn 0.000000 0.000000 1.000000
vn 0.000000 0.000000 1.000000
vn 0.000000 -0.027381 0.999625
vn 0.000000 0.000000 1.000000
vn -0.999768 0.021541 0.000000
vn -0.999810 0.019480 0.000000
vn -0.998037 0.062621 0.000000
vn -0.998037 0.062621 0.000000
vn -0.999810 0.019480 0.000000
vn -0.999588 -0.028714 0.000000
vn 0.000000 0.021541 -0.999768
vn 0.000000 0.019480 -0.999810
vn 0.000000 0.062621 -0.998037
vn 0.000000 0.062621 -0.998037
vn 0.000000 0.019480 -0.999810
vn 0.000000 -0.028715 -0.999588
vn 0.999768 0.021541 0.000000
vn 0.999810 0.019480 0.000000
vn 0.998037 0.062623 0.000000
vn 0.998037 0.062623 0.000000
vn 0.999810 0.019480 0.000000
vn 0.999588 -0.028716 0.000000
vn 0.000000 0.021541 0.999768
vn 0.000000 0.019480 0.999810
vn 0.000000 0.062621 0.998037
vn 0.000000 0.062621 0.998037
vn 0.000000 0.019480 0.999810
vn 0.000000 -0.028715 0.999588
vn -0.999874 -0.015886 0.000000
vn -0.999846 -0.017545 0.000000
vn -0.999821 0.018947 0.000000
vn -0.999821 0.018947 0.000000
vn -0.999846 -0.017545 0.000000
vn -0.999852 0.017204 0.000000
vn 0.000000 -0.015886 -0.999874
vn 0.000000 -0.017545 -0.999846
vn 0.000000 0.018947 -0.999821
vn 0.000000 0.018947 -0.999821
vn 0.000000 -0.017545 -0.999846
vn 0.000000 0.017204 -0.999852
vn 0.999874 -0.015886 0.000000
vn 0.999846 -0.017545 0.000000
vn 0.999821 0.018947 0.000000
vn 0.999821 0.018947 0.000000
vn 0.999846 -0.017545 0.000000
vn 0.999852 0.017204 0.000000
vn 0.000000 -0.015886 0.999874
vn 0.000000 -0.017545 0.999846
vn 0.000000 0.018947 0.999821
vn 0.000000 0.018947 0.999821
vn 0.000000 -0.017545 0.999846
vn 0.000000 0.017204 0.999852
s off
g pillar_pillar
usemtl pillar_phong4SG
f 1/1/1 2/2/2 3/3/3
f 3/3/4 2/2/5 4/4/6
f 21/5/7 22/6/8 24/7/9
f 24/7/10 22/6/11 23/8/12
f 5/9/13 6/10/14 7/11/15
f 7/11/16 6/10/17 8/12/18
f 2/13/19 8/14/20 4/15/21
f 4/15/22 8/14/23 6/16/24
f 7/17/25 1/18/26 5/19/27
f 5/19/28 1/18/29 3/20/30
f 3/3/31 4/4/32 9/21/33
f 9/21/34 4/4/35 10/22/36
f 4/15/37 6/16/38 10/23/39
f 10/23/40 6/16/41 11/24/42
f 6/10/43 5/9/44 11/25/45
f 11/25/46 5/9/47 12/26/48
f 5/19/49 3/20/50 12/27/51
f 12/27/52 3/20/53 9/28/54
f 9/21/55 10/22/56 41/29/57
f 41/29/58 10/22/59 44/30/60
f 10/23/61 11/24/62 44/31/63
f 44/31/64 11/24/65 43/32/66
f 11/25/67 12/26/68 43/33/69
f 43/33/70 12/26/71 42/34/72
f 12/27/73 9/28/74 42/35/75
f 42/35/76 9/28/77 41/36/78
f 13/37/79 14/38/80 17/39/81
f 17/39/82 14/38/83 18/40/84
f 14/41/85 15/42/86 18/43/87
f 18/43/88 15/42/89 19/44/90
f 15/45/91 16/46/92 19/47/93
f 19/47/94 16/46/95 20/48/96
f 16/49/97 13/50/98 20/51/99
f 20/51/100 13/50/101 17/52/102
f 17/39/103 18/40/104 21/53/105
f 21/53/106 18/40/107 22/54/108
f 18/43/109 19/44/110 22/55/111
f 22/55/112 19/44/113 23/56/114
f 19/47/115 20/48/116 23/57/117
f 23/57/118 20/48/119 24/58/120
f 20/51/121 17/52/122 24/59/123
f 24/59/124 17/52/125 21/60/126
f 26/61/127 25/62/128 46/63/129
f 46/63/130 25/62/131 45/64/132
f 27/65/133 26/66/134 47/67/135
f 47/67/136 26/66/137 46/68/138
f 28/69/139 27/70/140 48/71/141
f 48/71/142 27/70/143 47/72/144
f 25/73/145 28/74/146 45/75/147
f 45/75/148 28/74/149 48/76/150
f 30/77/151 29/78/152 38/79/153
f 38/79/154 29/78/155 37/80/156
f 31/81/157 30/82/158 39/83/159
f 39/83/160 30/82/161 38/84/162
f 32/85/163 31/86/164 40/87/165
f 40/87/166 31/86/167 39/88/168
f 29/89/169 32/90/170 37/91/171
f 37/91/172 32/90/173 40/92/174
f 34/93/175 33/94/176 30/77/177
f 30/77/178 33/94/179 29/78/180
f 35/95/181 34/96/182 31/81/183
f 31/81/184 34/96/185 30/82/186
f 36/97/187 35/98/188 32/85/189
f 32/85/190 35/98/191 31/86/192
f 33/99/193 36/100/194 29/89/195
f 29/89/196 36/100/197 32/90/198
f 38/79/199 37/80/200 16/49/201
f 16/49/202 37/80/203 13/50/204
f 39/83/205 38/84/206 15/45/207
f 15/45/208 38/84/209 16/46/210
f 40/87/211 39/88/212 14/41/213
f 14/41/214 39/88/215 15/42/216
f 37/91/217 40/92/218 13/37/219
f 13/37/220 40/92/221 14/38/222
f 42/35/223 41/36/224 26/61/225
f 26/61/226 41/36/227 25/62/228
f 43/33/229 42/34/230 27/65/231
f 27/65/232 42/34/233 26/66/234
f 44/31/235 43/32/236 28/69/237
f 28/69/238 43/32/239 27/70/240
f 41/29/241 44/30/242 25/73/243
f 25/73/244 44/30/245 28/74/246
f 46/63/247 45/64/248 34/93/249
f 34/93/250 45/64/251 33/94/252
f 47/67/253 46/68/254 35/95/255
f 35/95/256 46/68/257 34/96/258
f 48/71/259 47/72/260 36/97/261
f 36/97/262 47/72/263 35/98/264
f 45/75/265 48/76/266 33/99/267
f 33/99/268 48/76/269 36/100/270
