# This file uses centimeters as units for non-parametric coordinates.

mtllib ramp.mtl
g default
v -1.500000 -1.500000 1.500000
v 1.500000 -1.500000 1.500000
v -1.500000 1.500000 -1.500000
v 1.500000 1.500000 -1.500000
v -1.500000 -1.500000 -1.500000
v 1.500000 -1.500000 -1.500000
vt 0.375000 0.000000
vt 0.625000 0.000000
vt 0.264692 0.359119
vt 0.749992 0.374994
vt 0.375000 0.750000
vt 0.625000 0.750000
vt 0.375000 1.000000
vt 0.625000 1.000000
vt 0.875000 0.000000
vt 0.125000 0.000000
vn 0.000000 0.707107 0.707107
vn 0.000000 0.707107 0.707107
vn 0.000000 0.707107 0.707107
vn 0.000000 0.707107 0.707107
vn 0.000000 0.000000 -1.000000
vn 0.000000 0.000000 -1.000000
vn 0.000000 0.000000 -1.000000
vn 0.000000 0.000000 -1.000000
vn 0.000000 -1.000000 0.000000
vn 0.000000 -1.000000 0.000000
vn 0.000000 -1.000000 0.000000
vn 0.000000 -1.000000 0.000000
vn 1.000000 0.000000 0.000000
vn 1.000000 0.000000 0.000000
vn 1.000000 0.000000 0.000000
vn -1.000000 0.000000 0.000000
vn -1.000000 0.000000 0.000000
vn -1.000000 0.000000 0.000000
s off
g pCube1
usemtl lambert2SG
f 1/1/1 2/2/2 4/4/3 3/3/4
f 3/3/5 4/4/6 6/6/7 5/5/8
f 5/5/9 6/6/10 2/8/11 1/7/12
f 2/2/13 6/9/14 4/4/15
f 5/10/16 1/1/17 3/3/18
