# This file uses centimeters as units for non-parametric coordinates.

mtllib STpotion.mtl
g default
v -0.415733 0.631470 0.785582
v 0.269781 0.631470 0.785582
v 0.481615 0.275520 0.239365
v -0.072976 0.055531 -0.098216
v -0.627568 0.275520 0.239365
v -0.072976 0.692275 0.878887
v 0.481617 0.472284 0.541306
v 0.269781 0.116333 -0.004912
v -0.415733 0.116333 -0.004912
v -0.627568 0.472284 0.541306
v -0.072976 0.373902 0.390335
v -0.904592 1.375403 0.060211
v -0.586943 1.614105 0.426505
v -0.072976 1.705281 0.566417
v 0.440992 1.614105 0.426505
v 0.758640 1.375403 0.060211
v 0.758640 1.080354 -0.392553
v 0.440992 0.841651 -0.758848
v -0.072976 0.750476 -0.898759
v -0.586943 0.841653 -0.758848
v -0.904592 1.080354 -0.392553
v -0.420843 1.779396 -0.390664
v -0.287970 1.879245 -0.237444
v -0.072976 1.917385 -0.178918
v 0.142018 1.879245 -0.237444
v 0.274893 1.779396 -0.390664
v 0.274891 1.655976 -0.580058
v 0.142018 1.556127 -0.733279
v -0.072976 1.517987 -0.791805
v -0.287970 1.556127 -0.733279
v -0.420843 1.655976 -0.580058
v -0.420843 2.415177 -0.804982
v -0.287970 2.515026 -0.651758
v -0.072976 2.553164 -0.593233
v 0.142018 2.515026 -0.651760
v 0.274893 2.415176 -0.804982
v 0.274891 2.291755 -0.994374
v 0.142018 2.191906 -1.147595
v -0.072976 2.153768 -1.206121
v -0.287970 2.191906 -1.147595
v -0.420843 2.291755 -0.994374
v -0.516358 2.512326 -0.831248
v -0.347002 2.639592 -0.635954
v -0.072976 2.688203 -0.561361
v 0.201050 2.639592 -0.635955
v 0.370407 2.512326 -0.831247
v 0.370407 2.355018 -1.072643
v 0.201050 2.227752 -1.267935
v -0.072976 2.179141 -1.342529
v -0.347002 2.227752 -1.267935
v -0.516359 2.355018 -1.072643
v -0.453570 2.616988 -0.923802
v -0.308195 2.726231 -0.756166
v -0.072976 2.767958 -0.692134
v -0.072976 2.549471 -1.027407
v 0.162245 2.726231 -0.756166
v 0.307618 2.616988 -0.923802
v 0.307618 2.481955 -1.131013
v 0.162245 2.372713 -1.298649
v -0.072976 2.330986 -1.362681
v -0.308197 2.372713 -1.298649
v -0.453570 2.481955 -1.131013
vt 0.734373 0.940258
vt 0.687944 0.906289
vt 0.763910 0.852642
vt 0.669897 0.851829
vt 0.686374 0.797680
vt 0.729674 0.764527
vt 0.799695 0.765021
vt 0.842404 0.798993
vt 0.857923 0.853455
vt 0.838920 0.907605
vt 0.791901 0.940760
vt 0.273456 0.073952
vt 0.343226 0.124131
vt 0.257287 0.124545
vt 0.273943 0.174980
vt 0.317063 0.205992
vt 0.370177 0.205736
vt 0.412996 0.174309
vt 0.429165 0.123716
vt 0.412509 0.073282
vt 0.369389 0.042269
vt 0.316275 0.042526
vt 0.168037 0.154076
vt 0.214515 0.179784
vt 0.081081 0.283876
vt 0.150775 0.322426
vt 0.264672 0.197257
vt 0.225987 0.348627
vt 0.304548 0.361724
vt 0.384192 0.361341
vt 0.422481 0.196497
vt 0.462623 0.347487
vt 0.472468 0.178541
vt 0.537579 0.320562
vt 0.518696 0.152386
vt 0.606898 0.281342
vt 0.559832 0.118786
vt 0.668582 0.230959
vt 0.594689 0.078711
vt 0.720851 0.170866
vt 0.126579 0.120874
vt 0.018915 0.234090
vt 0.249924 0.444246
vt 0.312191 0.396703
vt 0.322170 0.491251
vt 0.342985 0.477221
vt 0.390478 0.394835
vt 0.368092 0.478071
vt 0.454926 0.439339
vt 0.387883 0.493526
vt 0.480912 0.513207
vt 0.394843 0.517661
vt 0.458510 0.588272
vt 0.386267 0.541261
vt 0.396257 0.635814
vt 0.365452 0.555308
vt 0.317962 0.637671
vt 0.340368 0.554414
vt 0.253539 0.593197
vt 0.320542 0.538986
vt 0.227524 0.519316
vt 0.313598 0.514855
vt 0.758610 0.479061
vt 0.717837 0.478999
vt 0.758819 0.342189
vt 0.718046 0.342126
vt 0.677064 0.478937
vt 0.677273 0.342064
vt 0.636291 0.478875
vt 0.636500 0.342002
vt 0.595518 0.478812
vt 0.595727 0.341939
vt 0.554745 0.478750
vt 0.554954 0.341877
vt 0.962475 0.479373
vt 0.921702 0.479311
vt 0.962684 0.342500
vt 0.921911 0.342438
vt 0.880929 0.479248
vt 0.881138 0.342376
vt 0.840156 0.479186
vt 0.840365 0.342313
vt 0.799383 0.479124
vt 0.799592 0.342251
vt 0.742702 0.563193
vt 0.704812 0.590610
vt 0.733222 0.535591
vt 0.680955 0.573847
vt 0.690316 0.635336
vt 0.661289 0.635820
vt 0.704825 0.680305
vt 0.682122 0.697837
vt 0.742420 0.708341
vt 0.735911 0.736242
vt 0.787270 0.708725
vt 0.794690 0.736332
vt 0.825319 0.681320
vt 0.848587 0.698071
vt 0.840534 0.636580
vt 0.869565 0.636113
vt 0.826798 0.591613
vt 0.850100 0.574082
vt 0.789365 0.563581
vt 0.797927 0.535679
vt 0.724582 0.506905
vt 0.657124 0.555721
vt 0.631460 0.635174
vt 0.658121 0.714919
vt 0.871828 0.716198
vt 0.899398 0.636765
vt 0.874696 0.557009
vt 0.807798 0.507393
vn 0.000001 0.837806 -0.545969
vn 0.000001 0.837805 -0.545969
vn 0.000000 0.837806 -0.545969
vn 0.000000 0.837806 -0.545969
vn 0.000001 0.837805 -0.545969
vn 0.000000 0.837805 -0.545969
vn 0.000000 0.837805 -0.545969
vn 0.000000 0.837805 -0.545969
vn 0.000000 0.837806 -0.545969
vn 0.000000 0.837806 -0.545969
vn 0.000000 0.837805 -0.545969
vn 0.000000 0.837806 -0.545969
vn 0.000000 0.837806 -0.545969
vn -0.000001 0.837806 -0.545969
vn 0.000000 0.837806 -0.545969
vn 0.000000 0.837806 -0.545969
vn -0.000001 0.837806 -0.545969
vn 0.000000 0.837806 -0.545969
vn 0.000000 0.837806 -0.545969
vn 0.000000 0.837806 -0.545969
vn 0.000000 0.837806 -0.545969
vn 0.000000 0.837806 -0.545969
vn 0.000000 0.837806 -0.545969
vn 0.000000 0.837806 -0.545969
vn 0.000000 0.837806 -0.545969
vn 0.000001 0.837806 -0.545969
vn 0.000000 0.837806 -0.545969
vn 0.000000 0.837806 -0.545969
vn 0.000001 0.837806 -0.545969
vn 0.000001 0.837806 -0.545969
vn 0.000000 -0.837806 0.545969
vn 0.000000 -0.837806 0.545969
vn 0.000000 -0.837806 0.545969
vn 0.000000 -0.837806 0.545969
vn 0.000000 -0.837806 0.545969
vn 0.000000 -0.837806 0.545969
vn 0.000000 -0.837806 0.545969
vn 0.000000 -0.837806 0.545969
vn 0.000000 -0.837806 0.545969
vn 0.000000 -0.837806 0.545969
vn 0.000000 -0.837806 0.545969
vn 0.000000 -0.837806 0.545969
vn 0.000000 -0.837806 0.545969
vn 0.000000 -0.837806 0.545969
vn 0.000000 -0.837806 0.545969
vn 0.000000 -0.837806 0.545969
vn 0.000000 -0.837806 0.545969
vn 0.000000 -0.837806 0.545969
vn 0.000000 -0.837806 0.545969
vn 0.000000 -0.837806 0.545969
vn 0.000000 -0.837806 0.545969
vn 0.000000 -0.837806 0.545969
vn 0.000000 -0.837806 0.545969
vn 0.000000 -0.837806 0.545969
vn 0.000000 -0.837806 0.545969
vn 0.000000 -0.837806 0.545969
vn 0.000000 -0.837806 0.545969
vn 0.000000 -0.837806 0.545969
vn 0.000000 -0.837806 0.545969
vn 0.000000 -0.837806 0.545969
vn -0.780698 0.089952 0.618400
vn -0.780698 0.089952 0.618400
vn -0.807111 0.377631 0.453836
vn -0.807111 0.377631 0.453836
vn -0.780698 0.089952 0.618400
vn -0.807112 0.377630 0.453835
vn -0.298200 0.281344 0.912098
vn -0.298200 0.281344 0.912098
vn -0.308289 0.575498 0.757469
vn -0.308289 0.575498 0.757469
vn -0.298200 0.281344 0.912098
vn -0.308289 0.575498 0.757469
vn 0.298200 0.281344 0.912098
vn 0.298200 0.281344 0.912098
vn 0.308289 0.575498 0.757469
vn 0.308289 0.575498 0.757469
vn 0.298200 0.281344 0.912098
vn 0.308289 0.575498 0.757469
vn 0.780698 0.089952 0.618400
vn 0.780698 0.089952 0.618400
vn 0.807112 0.377630 0.453835
vn 0.807112 0.377630 0.453835
vn 0.780698 0.089952 0.618400
vn 0.807112 0.377630 0.453835
vn 0.964996 -0.219727 0.143188
vn 0.964996 -0.219727 0.143188
vn 0.997644 0.057474 -0.037454
vn 0.997644 0.057474 -0.037454
vn 0.964996 -0.219727 0.143188
vn 0.997644 0.057474 -0.037454
vn 0.780698 -0.529406 -0.332023
vn 0.780698 -0.529406 -0.332023
vn 0.807111 -0.262682 -0.528744
vn 0.807111 -0.262682 -0.528744
vn 0.780698 -0.529406 -0.332023
vn 0.807111 -0.262682 -0.528744
vn 0.298200 -0.720798 -0.625721
vn 0.298200 -0.720798 -0.625721
vn 0.308289 -0.460550 -0.832377
vn 0.308289 -0.460550 -0.832377
vn 0.298200 -0.720798 -0.625721
vn 0.308289 -0.460550 -0.832377
vn -0.298200 -0.720798 -0.625721
vn -0.298200 -0.720798 -0.625721
vn -0.308289 -0.460550 -0.832377
vn -0.308289 -0.460550 -0.832377
vn -0.298200 -0.720798 -0.625721
vn -0.308289 -0.460550 -0.832377
vn -0.780698 -0.529406 -0.332023
vn -0.780698 -0.529406 -0.332023
vn -0.807111 -0.262682 -0.528743
vn -0.807111 -0.262682 -0.528743
vn -0.780698 -0.529406 -0.332023
vn -0.807111 -0.262682 -0.528743
vn -0.964996 -0.219727 0.143188
vn -0.964996 -0.219727 0.143188
vn -0.997644 0.057474 -0.037454
vn -0.997644 0.057474 -0.037454
vn -0.964996 -0.219727 0.143188
vn -0.997644 0.057474 -0.037454
vn -0.807111 0.377631 0.453836
vn -0.807112 0.377630 0.453835
vn -0.623305 0.781350 0.031350
vn -0.623305 0.781350 0.031350
vn -0.807112 0.377630 0.453835
vn -0.623305 0.781350 0.031350
vn -0.308289 0.575498 0.757469
vn -0.308289 0.575498 0.757469
vn -0.238081 0.934156 0.265837
vn -0.238081 0.934156 0.265837
vn -0.308289 0.575498 0.757469
vn -0.238081 0.934156 0.265837
vn 0.308289 0.575498 0.757469
vn 0.308289 0.575498 0.757469
vn 0.238081 0.934156 0.265837
vn 0.238081 0.934156 0.265837
vn 0.308289 0.575498 0.757469
vn 0.238081 0.934156 0.265837
vn 0.807112 0.377630 0.453835
vn 0.807112 0.377630 0.453835
vn 0.623306 0.781350 0.031350
vn 0.623306 0.781350 0.031350
vn 0.807112 0.377630 0.453835
vn 0.623306 0.781350 0.031350
vn 0.997644 0.057474 -0.037454
vn 0.997644 0.057474 -0.037454
vn 0.770448 0.534104 -0.348057
vn 0.770448 0.534104 -0.348057
vn 0.997644 0.057474 -0.037454
vn 0.770448 0.534104 -0.348057
vn 0.807111 -0.262682 -0.528744
vn 0.807111 -0.262682 -0.528744
vn 0.623306 0.286857 -0.727463
vn 0.623306 0.286857 -0.727463
vn 0.807111 -0.262682 -0.528744
vn 0.623306 0.286857 -0.727463
vn 0.308289 -0.460550 -0.832377
vn 0.308289 -0.460550 -0.832377
vn 0.238081 0.134051 -0.961950
vn 0.238081 0.134051 -0.961950
vn 0.308289 -0.460550 -0.832377
vn 0.238081 0.134051 -0.961950
vn -0.308289 -0.460550 -0.832377
vn -0.308289 -0.460550 -0.832377
vn -0.238081 0.134051 -0.961950
vn -0.238081 0.134051 -0.961950
vn -0.308289 -0.460550 -0.832377
vn -0.238081 0.134051 -0.961950
vn -0.807111 -0.262682 -0.528743
vn -0.807111 -0.262682 -0.528743
vn -0.623306 0.286857 -0.727463
vn -0.623306 0.286857 -0.727463
vn -0.807111 -0.262682 -0.528743
vn -0.623306 0.286857 -0.727463
vn -0.997644 0.057474 -0.037454
vn -0.997644 0.057474 -0.037454
vn -0.770448 0.534104 -0.348057
vn -0.770448 0.534104 -0.348057
vn -0.997644 0.057474 -0.037454
vn -0.770448 0.534104 -0.348057
vn -0.809017 0.320912 0.492450
vn -0.809017 0.320912 0.492450
vn -0.801134 0.201113 0.563682
vn -0.801134 0.201113 0.563682
vn -0.809017 0.320912 0.492450
vn -0.801134 0.201113 0.563682
vn -0.309016 0.519247 0.796801
vn -0.309016 0.519247 0.796801
vn -0.306005 0.397516 0.865068
vn -0.306005 0.397516 0.865068
vn -0.309016 0.519247 0.796801
vn -0.306005 0.397516 0.865068
vn 0.309017 0.519247 0.796800
vn 0.309017 0.519247 0.796800
vn 0.306006 0.397515 0.865068
vn 0.306006 0.397515 0.865068
vn 0.309017 0.519247 0.796800
vn 0.306006 0.397515 0.865068
vn 0.809017 0.320912 0.492450
vn 0.809017 0.320912 0.492450
vn 0.801134 0.201113 0.563682
vn 0.801134 0.201113 0.563682
vn 0.809017 0.320912 0.492450
vn 0.801134 0.201113 0.563682
vn 1.000000 0.000000 0.000000
vn 1.000000 0.000000 0.000000
vn 0.990256 -0.116672 0.076031
vn 0.990256 -0.116672 0.076031
vn 1.000000 0.000000 0.000000
vn 0.990256 -0.116672 0.076031
vn 0.809017 -0.320912 -0.492450
vn 0.809017 -0.320912 -0.492450
vn 0.801134 -0.434457 -0.411620
vn 0.801134 -0.434457 -0.411620
vn 0.809017 -0.320912 -0.492450
vn 0.801134 -0.434457 -0.411620
vn 0.309016 -0.519247 -0.796801
vn 0.309016 -0.519247 -0.796801
vn 0.306005 -0.630860 -0.713006
vn 0.306005 -0.630860 -0.713006
vn 0.309016 -0.519247 -0.796801
vn 0.306005 -0.630860 -0.713006
vn -0.309016 -0.519247 -0.796801
vn -0.309016 -0.519247 -0.796801
vn -0.306005 -0.630860 -0.713006
vn -0.306005 -0.630860 -0.713006
vn -0.309016 -0.519247 -0.796801
vn -0.306005 -0.630860 -0.713006
vn -0.809017 -0.320912 -0.492450
vn -0.809017 -0.320912 -0.492450
vn -0.801134 -0.434457 -0.411620
vn -0.801134 -0.434457 -0.411620
vn -0.809017 -0.320912 -0.492450
vn -0.801134 -0.434457 -0.411620
vn -1.000000 0.000000 0.000000
vn -1.000000 0.000000 0.000000
vn -0.990256 -0.116671 0.076032
vn -0.990256 -0.116671 0.076032
vn -1.000000 0.000000 0.000000
vn -0.990256 -0.116671 0.076032
vn -0.801134 0.201113 0.563682
vn -0.801134 0.201113 0.563682
vn -0.572713 -0.364566 0.734228
vn -0.572713 -0.364566 0.734228
vn -0.801134 0.201113 0.563682
vn -0.572713 -0.364566 0.734228
vn -0.306005 0.397516 0.865068
vn -0.306005 0.397516 0.865068
vn -0.218756 -0.224161 0.949683
vn -0.218756 -0.224161 0.949683
vn -0.306005 0.397516 0.865068
vn -0.218756 -0.224161 0.949683
vn 0.306006 0.397515 0.865068
vn 0.306006 0.397515 0.865068
vn 0.218756 -0.224161 0.949683
vn 0.218756 -0.224161 0.949683
vn 0.306006 0.397515 0.865068
vn 0.218756 -0.224161 0.949683
vn 0.801134 0.201113 0.563682
vn 0.801134 0.201113 0.563682
vn 0.572712 -0.364565 0.734229
vn 0.572712 -0.364565 0.734229
vn 0.801134 0.201113 0.563682
vn 0.572712 -0.364565 0.734229
vn 0.990256 -0.116672 0.076031
vn 0.990256 -0.116672 0.076031
vn 0.707911 -0.591744 0.385619
vn 0.707911 -0.591744 0.385619
vn 0.990256 -0.116672 0.076031
vn 0.707911 -0.591744 0.385619
vn 0.801134 -0.434457 -0.411620
vn 0.801134 -0.434457 -0.411620
vn 0.572712 -0.818921 0.037007
vn 0.572712 -0.818921 0.037007
vn 0.801134 -0.434457 -0.411620
vn 0.572712 -0.818921 0.037007
vn 0.306005 -0.630860 -0.713006
vn 0.306005 -0.630860 -0.713006
vn 0.218756 -0.959324 -0.178446
vn 0.218756 -0.959324 -0.178446
vn 0.306005 -0.630860 -0.713006
vn 0.218756 -0.959324 -0.178446
vn -0.306005 -0.630860 -0.713006
vn -0.306005 -0.630860 -0.713006
vn -0.218755 -0.959324 -0.178446
vn -0.218755 -0.959324 -0.178446
vn -0.306005 -0.630860 -0.713006
vn -0.218755 -0.959324 -0.178446
vn -0.801134 -0.434457 -0.411620
vn -0.801134 -0.434457 -0.411620
vn -0.572712 -0.818921 0.037008
vn -0.572712 -0.818921 0.037008
vn -0.801134 -0.434457 -0.411620
vn -0.572712 -0.818921 0.037008
vn -0.990256 -0.116671 0.076032
vn -0.990256 -0.116671 0.076032
vn -0.707911 -0.591743 0.385619
vn -0.707911 -0.591743 0.385619
vn -0.990256 -0.116671 0.076032
vn -0.707911 -0.591743 0.385619
vn -0.736578 0.638691 0.222545
vn -0.736578 0.638691 0.222545
vn -0.736578 0.638691 0.222545
vn -0.736578 0.638691 0.222545
vn -0.736578 0.638691 0.222545
vn -0.736578 0.638691 0.222545
vn -0.281347 0.819267 0.499645
vn -0.281347 0.819267 0.499645
vn -0.281347 0.819267 0.499645
vn -0.281347 0.819267 0.499645
vn -0.281347 0.819267 0.499645
vn -0.281347 0.819267 0.499645
vn 0.281349 0.819267 0.499645
vn 0.281349 0.819267 0.499645
vn 0.281349 0.819267 0.499645
vn 0.281349 0.819267 0.499645
vn 0.281349 0.819267 0.499645
vn 0.281349 0.819267 0.499645
vn 0.736578 0.638691 0.222547
vn 0.736578 0.638691 0.222547
vn 0.736578 0.638691 0.222547
vn 0.736578 0.638691 0.222547
vn 0.736578 0.638691 0.222547
vn 0.736578 0.638691 0.222547
vn 0.910461 0.346513 -0.225810
vn 0.910461 0.346513 -0.225810
vn 0.910461 0.346513 -0.225810
vn 0.910461 0.346513 -0.225810
vn 0.910461 0.346513 -0.225810
vn 0.910461 0.346513 -0.225810
vn 0.736578 0.054335 -0.674167
vn 0.736578 0.054335 -0.674167
vn 0.736578 0.054335 -0.674167
vn 0.736578 0.054335 -0.674167
vn 0.736578 0.054335 -0.674167
vn 0.736578 0.054335 -0.674167
vn 0.281346 -0.126242 -0.951266
vn 0.281346 -0.126242 -0.951266
vn 0.281346 -0.126242 -0.951266
vn 0.281346 -0.126242 -0.951266
vn 0.281346 -0.126242 -0.951266
vn 0.281347 -0.126242 -0.951266
vn -0.281346 -0.126241 -0.951266
vn -0.281346 -0.126241 -0.951266
vn -0.281346 -0.126241 -0.951266
vn -0.281346 -0.126241 -0.951266
vn -0.281346 -0.126241 -0.951266
vn -0.281346 -0.126241 -0.951266
vn -0.736578 0.054335 -0.674167
vn -0.736578 0.054335 -0.674167
vn -0.736578 0.054335 -0.674167
vn -0.736578 0.054335 -0.674167
vn -0.736578 0.054335 -0.674167
vn -0.736578 0.054335 -0.674167
vn -0.910461 0.346513 -0.225810
vn -0.910461 0.346513 -0.225810
vn -0.910461 0.346513 -0.225810
vn -0.910461 0.346513 -0.225810
vn -0.910461 0.346513 -0.225810
vn -0.910461 0.346513 -0.225810
s off
g STpotion_STpotion_STpotion_Hpotion
usemtl STpotion_STpotion_STpotion_phong6SG
f 52/1/1 53/2/2 55/3/3
f 55/3/4 53/2/5 54/4/6
f 54/4/7 56/5/8 55/3/9
f 55/3/10 56/5/11 57/6/12
f 57/6/13 58/7/14 55/3/15
f 55/3/16 58/7/17 59/8/18
f 59/8/19 60/9/20 55/3/21
f 55/3/22 60/9/23 61/10/24
f 61/10/25 62/11/26 55/3/27
f 55/3/28 62/11/29 52/1/30
f 10/12/31 11/13/32 1/14/33
f 1/14/34 11/13/35 6/15/36
f 6/15/37 11/13/38 2/16/39
f 2/16/40 11/13/41 7/17/42
f 7/17/43 11/13/44 3/18/45
f 3/18/46 11/13/47 8/19/48
f 8/19/49 11/13/50 4/20/51
f 4/20/52 11/13/53 9/21/54
f 9/21/55 11/13/56 5/22/57
f 5/22/58 11/13/59 10/12/60
f 10/23/61 1/24/62 12/25/63
f 12/25/64 1/24/65 13/26/66
f 1/24/67 6/27/68 13/26/69
f 13/26/70 6/27/71 14/28/72
f 6/27/73 2/16/74 14/28/75
f 14/28/76 2/16/77 15/29/78
f 2/16/79 7/17/80 15/29/81
f 15/29/82 7/17/83 16/30/84
f 7/17/85 3/31/86 16/30/87
f 16/30/88 3/31/89 17/32/90
f 3/31/91 8/33/92 17/32/93
f 17/32/94 8/33/95 18/34/96
f 8/33/97 4/35/98 18/34/99
f 18/34/100 4/35/101 19/36/102
f 4/35/103 9/37/104 19/36/105
f 19/36/106 9/37/107 20/38/108
f 9/37/109 5/39/110 20/38/111
f 20/38/112 5/39/113 21/40/114
f 5/41/115 10/23/116 21/42/117
f 21/42/118 10/23/119 12/25/120
f 12/43/121 13/44/122 22/45/123
f 22/45/124 13/44/125 23/46/126
f 13/44/127 14/47/128 23/46/129
f 23/46/130 14/47/131 24/48/132
f 14/47/133 15/49/134 24/48/135
f 24/48/136 15/49/137 25/50/138
f 15/49/139 16/51/140 25/50/141
f 25/50/142 16/51/143 26/52/144
f 16/51/145 17/53/146 26/52/147
f 26/52/148 17/53/149 27/54/150
f 17/53/151 18/55/152 27/54/153
f 27/54/154 18/55/155 28/56/156
f 18/55/157 19/57/158 28/56/159
f 28/56/160 19/57/161 29/58/162
f 19/57/163 20/59/164 29/58/165
f 29/58/166 20/59/167 30/60/168
f 20/59/169 21/61/170 30/60/171
f 30/60/172 21/61/173 31/62/174
f 21/61/175 12/43/176 31/62/177
f 31/62/178 12/43/179 22/45/180
f 22/63/181 23/64/182 32/65/183
f 32/65/184 23/64/185 33/66/186
f 23/64/187 24/67/188 33/66/189
f 33/66/190 24/67/191 34/68/192
f 24/67/193 25/69/194 34/68/195
f 34/68/196 25/69/197 35/70/198
f 25/69/199 26/71/200 35/70/201
f 35/70/202 26/71/203 36/72/204
f 26/71/205 27/73/206 36/72/207
f 36/72/208 27/73/209 37/74/210
f 27/75/211 28/76/212 37/77/213
f 37/77/214 28/76/215 38/78/216
f 28/76/217 29/79/218 38/78/219
f 38/78/220 29/79/221 39/80/222
f 29/79/223 30/81/224 39/80/225
f 39/80/226 30/81/227 40/82/228
f 30/81/229 31/83/230 40/82/231
f 40/82/232 31/83/233 41/84/234
f 31/83/235 22/63/236 41/84/237
f 41/84/238 22/63/239 32/65/240
f 32/85/241 33/86/242 42/87/243
f 42/87/244 33/86/245 43/88/246
f 33/86/247 34/89/248 43/88/249
f 43/88/250 34/89/251 44/90/252
f 34/89/253 35/91/254 44/90/255
f 44/90/256 35/91/257 45/92/258
f 35/91/259 36/93/260 45/92/261
f 45/92/262 36/93/263 46/94/264
f 36/93/265 37/95/266 46/94/267
f 46/94/268 37/95/269 47/96/270
f 37/95/271 38/97/272 47/96/273
f 47/96/274 38/97/275 48/98/276
f 38/97/277 39/99/278 48/98/279
f 48/98/280 39/99/281 49/100/282
f 39/99/283 40/101/284 49/100/285
f 49/100/286 40/101/287 50/102/288
f 40/101/289 41/103/290 50/102/291
f 50/102/292 41/103/293 51/104/294
f 41/103/295 32/85/296 51/104/297
f 51/104/298 32/85/299 42/87/300
f 42/87/301 43/88/302 52/105/303
f 52/105/304 43/88/305 53/106/306
f 43/88/307 44/90/308 53/106/309
f 53/106/310 44/90/311 54/107/312
f 44/90/313 45/92/314 54/107/315
f 54/107/316 45/92/317 56/108/318
f 45/92/319 46/94/320 56/108/321
f 56/108/322 46/94/323 57/6/324
f 46/94/325 47/96/326 57/6/327
f 57/6/328 47/96/329 58/7/330
f 47/96/331 48/98/332 58/7/333
f 58/7/334 48/98/335 59/109/336
f 48/98/337 49/100/338 59/109/339
f 59/109/340 49/100/341 60/110/342
f 49/100/343 50/102/344 60/110/345
f 60/110/346 50/102/347 61/111/348
f 50/102/349 51/104/350 61/111/351
f 61/111/352 51/104/353 62/112/354
f 51/104/355 42/87/356 62/112/357
f 62/112/358 42/87/359 52/105/360
