# This file uses centimeters as units for non-parametric coordinates.

mtllib testCube.mtl
g default
v -2.262362 2.262362 2.262362
v 2.262362 2.262362 2.262362
v -2.262362 2.262362 -2.262362
v 2.262362 2.262362 -2.262362
vt 0.001992 0.001992
vt 0.998008 0.001992
vt 0.001992 0.998008
vt 0.998008 0.998008
vn 0.000000 1.000000 0.000000
vn 0.000000 1.000000 0.000000
vn 0.000000 1.000000 0.000000
vn 0.000000 1.000000 0.000000
vn 0.000000 1.000000 0.000000
vn 0.000000 1.000000 0.000000
s off
g CubeMapMesh2:pCube7
usemtl CubeMapMesh2:initialShadingGroup
f 1/1/1 2/2/2 3/3/3
f 3/3/4 2/2/5 4/4/6
g default
v 2.262362 -2.262362 2.262362
v 2.262362 2.262362 2.262362
v 2.262362 2.262362 -2.262362
v 2.262362 -2.262362 -2.262362
vt 0.001992 0.998008
vt 0.998008 0.001992
vt 0.998008 0.998008
vt 0.001992 0.001992
vn 1.000000 0.000000 0.000000
vn 1.000000 0.000000 0.000000
vn 1.000000 0.000000 0.000000
vn 1.000000 0.000000 0.000000
vn 1.000000 0.000000 0.000000
vn 1.000000 0.000000 0.000000
s off
g CubeMapMesh2:pCube7polySurface4
usemtl CubeMapMesh2:initialShadingGroup
f 6/5/7 8/6/8 7/7/9
f 5/8/10 8/6/11 6/5/12
g default
v -2.262367 -2.262362 2.262362
v -2.262367 2.262362 2.262362
v -2.262367 2.262362 -2.262362
v -2.262367 -2.262362 -2.262362
vt 0.001992 0.998008
vt 0.998008 0.001992
vt 0.998008 0.998008
vt 0.001992 0.001992
vn -1.000000 0.000000 0.000000
vn -1.000000 0.000000 0.000000
vn -1.000000 0.000000 0.000000
vn -1.000000 0.000000 0.000000
vn -1.000000 0.000000 0.000000
vn -1.000000 0.000000 0.000000
s off
g CubeMapMesh2:pCube7polySurface5
usemtl CubeMapMesh2:initialShadingGroup
f 11/9/13 9/10/14 10/11/15
f 12/12/16 9/10/17 11/9/18
g default
v -2.262362 -2.262362 2.262362
v 2.262362 -2.262362 2.262362
v -2.262362 2.262362 2.262362
v 2.262362 2.262362 2.262362
vt 0.001992 0.998008
vt 0.998008 0.001992
vt 0.998008 0.998008
vt 0.001992 0.001992
vn 0.000000 0.000000 1.000000
vn 0.000000 0.000000 1.000000
vn 0.000000 0.000000 1.000000
vn 0.000000 0.000000 1.000000
vn 0.000000 0.000000 1.000000
vn 0.000000 0.000000 1.000000
s off
g CubeMapMesh2:pCube7polySurface1
usemtl CubeMapMesh2:initialShadingGroup
f 15/13/19 14/14/20 16/15/21
f 13/16/22 14/14/23 15/13/24
g default
v -2.262362 -2.262362 2.262362
v 2.262362 -2.262362 2.262362
v -2.262362 -2.262362 -2.262362
v 2.262362 -2.262362 -2.262362
vt 0.001992 0.001992
vt 0.998008 0.001992
vt 0.998008 0.998008
vt 0.001992 0.998008
vn 0.000000 -1.000000 0.000000
vn 0.000000 -1.000000 0.000000
vn 0.000000 -1.000000 0.000000
vn 0.000000 -1.000000 0.000000
vn 0.000000 -1.000000 0.000000
vn 0.000000 -1.000000 0.000000
s off
g CubeMapMesh2:pCube7polySurface2
usemtl CubeMapMesh2:initialShadingGroup
f 19/17/25 20/18/26 18/19/27
f 19/17/28 18/19/29 17/20/30
g default
v 2.262362 -2.262362 -2.262362
v -2.262362 -2.262362 -2.262362
v 2.262362 2.262362 -2.262362
v -2.262362 2.262362 -2.262362
vt 0.001992 0.001992
vt 0.998008 0.001992
vt 0.001992 0.998008
vt 0.998008 0.998008
vn -0.000000 0.000000 -1.000000
vn -0.000000 0.000000 -1.000000
vn -0.000000 0.000000 -1.000000
vn -0.000000 0.000000 -1.000000
vn -0.000000 0.000000 -1.000000
vn -0.000000 0.000000 -1.000000
s off
g CubeMapMesh2:pCube7polySurface6
usemtl CubeMapMesh2:initialShadingGroup
f 21/21/31 22/22/32 23/23/33
f 23/23/34 22/22/35 24/24/36
g default
v -2.261614 2.260790 2.261614
v 2.261614 2.260790 2.261614
v -2.261614 2.260790 -2.261614
v 2.261614 2.260790 -2.261614
vt 0.000000 0.000000
vt 1.000000 0.000000
vt 0.000000 1.000000
vt 1.000000 1.000000
vn 0.000000 1.000000 0.000000
vn 0.000000 1.000000 0.000000
vn 0.000000 1.000000 0.000000
vn 0.000000 1.000000 0.000000
s 1
g pPlane1
usemtl initialShadingGroup
f 27/27/37 26/26/38 28/28/39
f 25/25/40 26/26/38 27/27/37
g default
v 2.260416 2.260214 2.261614
v 2.260416 -2.263014 2.261614
v 2.260416 2.260214 -2.261614
v 2.260416 -2.263014 -2.261614
vt 0.000000 0.000000
vt 1.000000 0.000000
vt 0.000000 1.000000
vt 1.000000 1.000000
vn 1.000000 -0.000000 0.000000
vn 1.000000 -0.000000 0.000000
vn 1.000000 -0.000000 0.000000
vn 1.000000 -0.000000 0.000000
s 1
g pPlane2
usemtl initialShadingGroup
f 31/31/41 30/30/42 32/32/43
f 29/29/44 30/30/42 31/31/41
g default
v -2.261810 2.260214 -2.261614
v -2.261810 -2.263014 -2.261614
v -2.261810 2.260214 2.261614
v -2.261810 -2.263014 2.261614
vt 0.998008 0.998008
vt 0.001992 0.001992
vt 0.998008 0.001992
vt 0.001992 0.998008
vn -1.000000 0.000000 0.000000
vn -1.000000 0.000000 0.000000
vn -1.000000 0.000000 0.000000
vn -1.000000 0.000000 0.000000
s 1
g pPlane3
usemtl initialShadingGroup
f 35/33/45 34/34/46 36/35/47
f 33/36/48 34/34/46 35/33/45
g default
v 2.261614 2.260214 -2.260073
v 2.261614 -2.263014 -2.260073
v -2.261614 2.260214 -2.260073
v -2.261614 -2.263014 -2.260073
vt 0.000000 0.000000
vt 1.000000 0.000000
vt 0.000000 1.000000
vt 1.000000 1.000000
vn -0.000000 0.000000 -1.000000
vn -0.000000 0.000000 -1.000000
vn -0.000000 0.000000 -1.000000
vn -0.000000 0.000000 -1.000000
s 1
g pPlane4
usemtl initialShadingGroup
f 39/39/49 38/38/50 40/40/51
f 37/37/52 38/38/50 39/39/49
g default
v -2.261614 2.260214 2.262394
v -2.261614 -2.263014 2.262394
v 2.261614 2.260214 2.262394
v 2.261614 -2.263014 2.262394
vt 0.000000 0.000000
vt 1.000000 0.000000
vt 0.000000 1.000000
vt 1.000000 1.000000
vn 0.000000 0.000000 1.000000
vn 0.000000 0.000000 1.000000
vn 0.000000 0.000000 1.000000
vn 0.000000 0.000000 1.000000
s 1
g pPlane5
usemtl initialShadingGroup
f 43/43/53 42/42/54 44/44/55
f 41/41/56 42/42/54 43/43/53
g default
v -2.261614 -2.263223 -2.261614
v 2.261614 -2.263223 -2.261614
v -2.261614 -2.263223 2.261614
v 2.261614 -2.263223 2.261614
vt 0.000000 0.000000
vt 1.000000 0.000000
vt 0.000000 1.000000
vt 1.000000 1.000000
vn 0.000000 -1.000000 0.000000
vn 0.000000 -1.000000 0.000000
vn 0.000000 -1.000000 0.000000
vn 0.000000 -1.000000 0.000000
s 1
g pPlane6
usemtl initialShadingGroup
f 47/47/57 46/46/58 48/48/59
f 45/45/60 46/46/58 47/47/57
