# This file uses centimeters as units for non-parametric coordinates.

mtllib TombStoneV1.mtl
g default
v -1.392398 -0.115718 0.503368
v 1.422715 -0.115718 0.503368
v -1.392398 2.699395 0.503368
v 1.422715 2.699395 0.503368
v -1.392398 2.699395 -0.236813
v 1.422715 2.699395 -0.236813
v -1.392398 -0.115718 -0.236813
v 1.422715 -0.115718 -0.236813
v 0.015158 -0.115718 0.503368
v 0.015158 3.278774 0.503368
v 0.015158 3.278774 -0.236813
v 0.015158 -0.115718 -0.236813
v -0.688620 -0.115718 0.503368
v -0.688620 3.124382 0.503368
v -0.688620 3.124382 -0.236813
v -0.688620 -0.115718 -0.236813
v 0.859692 -0.115718 0.503368
v 0.859692 3.124382 0.503368
v 0.859692 3.124382 -0.236813
v 0.859692 -0.115718 -0.236813
vt 0.614632 0.474613
vt 0.562144 0.474407
vt 0.615633 0.219847
vt 0.563296 0.181180
vt 0.869398 0.475613
vt 0.934469 0.475869
vt 0.869204 0.525021
vt 0.934275 0.525277
vt 0.560799 0.817042
vt 0.561950 0.523815
vt 0.613438 0.778787
vt 0.614438 0.524021
vt 0.404681 0.473788
vt 0.404487 0.523197
vt 0.149915 0.472788
vt 0.149721 0.522196
vt 0.510863 0.167001
vt 0.509657 0.474201
vt 0.447823 0.180726
vt 0.446671 0.473953
vt 0.028262 0.521719
vt 0.028456 0.472311
vt 0.092779 0.521973
vt 0.092973 0.472564
vt 0.508256 0.830808
vt 0.445326 0.816589
vt 0.509463 0.523609
vt 0.446477 0.523361
vt 0.988591 0.525490
vt 0.988785 0.476082
vt 0.405682 0.219022
vt 0.403487 0.777963
vn 0.000000 0.000000 1.000000
vn 0.000000 0.000000 1.000000
vn 0.000000 0.000000 1.000000
vn 0.000000 0.000000 1.000000
vn 0.000000 0.000000 1.000000
vn 0.000000 0.000000 1.000000
vn -0.516927 0.856030 0.000000
vn -0.380636 0.924725 0.000000
vn -0.516927 0.856030 0.000000
vn -0.516927 0.856030 0.000000
vn -0.380636 0.924725 0.000000
vn -0.380636 0.924725 0.000000
vn -0.000000 0.000000 -1.000000
vn -0.000000 0.000000 -1.000000
vn -0.000000 0.000000 -1.000000
vn -0.000000 0.000000 -1.000000
vn -0.000000 0.000000 -1.000000
vn 0.000000 0.000000 -1.000000
vn 1.000000 0.000000 0.000000
vn 1.000000 0.000000 0.000000
vn 1.000000 0.000000 0.000000
vn 1.000000 0.000000 0.000000
vn 1.000000 0.000000 0.000000
vn 1.000000 0.000000 0.000000
vn -1.000000 0.000000 0.000000
vn -1.000000 0.000000 0.000000
vn -1.000000 0.000000 0.000000
vn -1.000000 0.000000 0.000000
vn -1.000000 0.000000 0.000000
vn -1.000000 0.000000 0.000000
vn 0.000000 0.000000 1.000000
vn 0.000000 0.000000 1.000000
vn 0.000000 0.000000 1.000000
vn 0.000000 0.000000 1.000000
vn 0.000000 0.000000 1.000000
vn 0.000000 0.000000 1.000000
vn 0.000000 1.000000 0.000000
vn 0.000000 1.000000 0.000000
vn 0.380635 0.924725 0.000000
vn 0.380635 0.924725 0.000000
vn 0.000000 1.000000 0.000000
vn 0.380636 0.924725 0.000000
vn 0.000000 0.000000 -1.000000
vn 0.000000 0.000000 -1.000000
vn 0.000000 0.000000 -1.000000
vn 0.000000 0.000000 -1.000000
vn 0.000000 0.000000 -1.000000
vn 0.000000 0.000000 -1.000000
vn 0.000000 0.000000 1.000000
vn 0.000000 0.000000 1.000000
vn 0.000000 0.000000 1.000000
vn 0.000000 0.000000 1.000000
vn 0.000000 0.000000 1.000000
vn 0.000000 0.000000 1.000000
vn -0.380636 0.924725 0.000000
vn -0.380636 0.924725 0.000000
vn 0.000000 1.000000 0.000000
vn 0.000000 1.000000 0.000000
vn -0.380636 0.924725 0.000000
vn 0.000000 1.000000 0.000000
vn -0.000000 0.000000 -1.000000
vn -0.000000 0.000000 -1.000000
vn 0.000000 0.000000 -1.000000
vn 0.000000 0.000000 -1.000000
vn -0.000000 0.000000 -1.000000
vn 0.000000 0.000000 -1.000000
vn 0.000000 0.000000 1.000000
vn 0.000000 0.000000 1.000000
vn 0.000000 0.000000 1.000000
vn 0.000000 0.000000 1.000000
vn 0.000000 0.000000 1.000000
vn 0.000000 0.000000 1.000000
vn 0.380635 0.924725 0.000000
vn 0.380636 0.924725 0.000000
vn 0.602465 0.798145 0.000000
vn 0.602465 0.798145 0.000000
vn 0.380636 0.924725 0.000000
vn 0.602465 0.798145 0.000000
vn 0.000000 0.000000 -1.000000
vn 0.000000 0.000000 -1.000000
vn 0.000000 0.000000 -1.000000
vn 0.000000 0.000000 -1.000000
vn 0.000000 0.000000 -1.000000
vn 0.000000 0.000000 -1.000000
s off
g TombStoneV1_tombstone_TypeA
usemtl TombStoneV1_phong1SG
f 1/1/1 13/2/2 3/3/3
f 3/3/4 13/2/5 14/4/6
f 3/5/7 14/6/8 5/7/9
f 5/7/10 14/6/11 15/8/12
f 15/9/13 16/10/14 5/11/15
f 5/11/16 16/10/17 7/12/18
f 2/13/19 8/14/20 4/15/21
f 4/15/22 8/14/23 6/16/24
f 7/12/25 1/1/26 5/7/27
f 5/7/28 1/1/29 3/5/30
f 10/17/31 9/18/32 18/19/33
f 18/19/34 9/18/35 17/20/36
f 11/21/37 10/22/38 19/23/39
f 19/23/40 10/22/41 18/24/42
f 11/25/43 19/26/44 12/27/45
f 12/27/46 19/26/47 20/28/48
f 13/2/49 9/18/50 14/4/51
f 14/4/52 9/18/53 10/17/54
f 15/8/55 14/6/56 11/29/57
f 11/29/58 14/6/59 10/30/60
f 16/10/61 15/9/62 12/27/63
f 12/27/64 15/9/65 11/25/66
f 18/19/67 17/20/68 4/31/69
f 4/31/70 17/20/71 2/13/72
f 19/23/73 18/24/74 6/16/75
f 6/16/76 18/24/77 4/15/78
f 19/26/79 6/32/80 20/28/81
f 20/28/82 6/32/83 8/14/84
