# This file uses centimeters as units for non-parametric coordinates.

mtllib WallStone.mtl
g default
v -15.347226 -2.529367 2.506243
v -10.334739 -2.529367 2.506243
v -15.347226 17.618372 2.506243
v -10.334739 17.618372 2.506243
v -15.347226 17.618372 -2.506243
v -10.334739 17.618372 -2.506243
v -15.347226 -2.529367 -2.506243
v -10.334739 -2.529367 -2.506243
vt 0.862267 0.511033
vt 0.981352 0.511033
vt 0.981352 0.630118
vt 0.862267 0.630118
vt 0.862267 0.511033
vt 0.981352 0.511033
vt 0.981352 0.630118
vt 0.862267 0.630118
vt 0.747219 0.510789
vt 0.864480 0.510793
vt 0.864464 0.982124
vt 0.747204 0.982120
vt 0.865153 0.510790
vt 0.982414 0.510794
vt 0.982398 0.982124
vt 0.865137 0.982120
vt 0.631437 0.982124
vt 0.514176 0.982120
vt 0.514192 0.510790
vt 0.631452 0.510794
vt 0.746529 0.982124
vt 0.629269 0.982120
vt 0.629284 0.510790
vt 0.746545 0.510793
vn 0.000000 0.000000 1.000000
vn 0.000000 0.000000 1.000000
vn 0.000000 0.000000 1.000000
vn 0.000000 0.000000 1.000000
vn 0.000000 1.000000 0.000000
vn 0.000000 1.000000 0.000000
vn 0.000000 1.000000 0.000000
vn 0.000000 1.000000 0.000000
vn 0.000000 0.000000 -1.000000
vn 0.000000 0.000000 -1.000000
vn 0.000000 0.000000 -1.000000
vn 0.000000 0.000000 -1.000000
vn 0.000000 -1.000000 0.000000
vn 0.000000 -1.000000 0.000000
vn 0.000000 -1.000000 0.000000
vn 0.000000 -1.000000 0.000000
vn 1.000000 0.000000 0.000000
vn 1.000000 0.000000 0.000000
vn 1.000000 0.000000 0.000000
vn 1.000000 0.000000 0.000000
vn -1.000000 0.000000 0.000000
vn -1.000000 0.000000 0.000000
vn -1.000000 0.000000 0.000000
vn -1.000000 0.000000 0.000000
s 1
g WallStone
usemtl WallStone
f 1/17/1 2/18/2 3/20/3
f 3/20/3 2/18/2 4/19/4
s 2
f 3/5/5 4/6/6 5/8/7
f 5/8/7 4/6/6 6/7/8
s 3
f 5/21/9 6/22/10 7/24/11
f 7/24/11 6/22/10 8/23/12
s 4
f 7/1/13 8/2/14 1/4/15
f 1/4/15 8/2/14 2/3/16
s 5
f 2/9/17 8/10/18 4/12/19
f 4/12/19 8/10/18 6/11/20
s 6
f 7/13/21 1/14/22 5/16/23
f 5/16/23 1/14/22 3/15/24
