# This file uses centimeters as units for non-parametric coordinates.

mtllib WallEndStonePillar.mtl
g default
v 3.505711 -0.000001 2.774504
v 3.505711 -0.000001 -2.498623
v 3.505711 2.244332 -2.498623
v -3.822224 2.244332 2.774504
v -3.822224 2.244332 -2.498623
v -3.822224 -0.000001 2.774504
v -3.822224 -0.000001 -2.498623
v 2.944255 2.819596 2.213049
v 2.944256 2.819596 -1.937167
v -3.260768 2.819596 -1.937167
v -3.260768 2.819596 2.213048
v 2.944255 22.707397 1.991717
v 2.944255 22.707397 -2.158499
v -3.260768 22.707397 -2.158499
v 4.018101 23.281475 2.607722
v 4.018102 23.281475 -2.774504
v -4.018102 23.327353 -2.774504
v -4.018102 23.327353 2.607722
v 4.018101 26.128620 2.607722
v 4.018102 26.128620 -2.774504
v -4.018102 26.174496 -2.774504
v -4.018102 26.174496 2.607722
v 2.466156 5.246806 1.363700
v -2.590551 5.246806 1.419719
v -2.590551 5.246806 -1.582176
v 2.466156 5.246806 -1.638196
v 2.560012 10.882950 1.169567
v -2.547534 10.882950 1.169567
v -2.547534 10.882950 -1.883169
v 2.560012 10.882950 -1.883169
v 3.046557 10.517851 2.096181
v -3.363070 10.517851 2.096181
v -3.363070 10.517851 -2.258638
v 3.046557 10.517851 -2.258638
v 2.901500 11.251186 1.859085
v -2.889020 11.251186 1.730224
v -2.889020 11.251186 -2.005487
v 2.901500 11.251186 -2.005487
v 3.089702 4.881451 2.206416
v -3.214095 4.881451 -2.042571
v 3.089702 4.881451 -2.042571
v 3.169620 5.505802 2.219243
v -3.486132 5.505802 2.219243
v -3.486132 5.505802 -2.381702
v 3.093039 13.542450 2.061772
v -3.080559 13.542450 1.921762
v -3.080559 13.542450 -2.197026
v 3.093039 13.542450 -2.197026
v -3.365054 14.236437 2.317334
v 3.048541 14.236437 2.317335
v 3.048542 14.236437 -2.041453
v 2.132915 13.979038 1.511489
v -2.449428 13.979036 1.401708
v -2.449428 13.979036 -1.125826
v 2.132915 13.979036 -1.016045
v -3.508043 18.136719 2.460323
v 3.191530 18.136719 2.460323
v 3.191531 18.136719 -2.184443
v -3.508043 18.136719 -2.184443
v -2.735853 18.495104 1.325398
v 1.995628 18.495104 1.325398
v 1.995628 18.495104 -1.351274
v -2.735853 18.495104 -1.351274
v 2.525148 19.118925 1.854917
v 2.525148 19.118923 -1.880793
v -3.265373 19.118923 -1.880793
v -3.201748 4.365987 2.194070
v -3.214095 4.881451 1.543428
v -2.522718 4.881451 1.987246
v -2.625335 4.972790 1.516223
v -2.843167 14.190960 -1.434633
v -2.275358 14.236437 -2.041453
v -3.365054 14.236437 -0.951756
v -3.400802 15.634354 -2.243920
v -2.845573 22.707397 1.704193
v -3.054121 22.776531 1.812958
v -2.986854 22.707397 1.619626
v -3.265373 19.118923 1.402070
v -2.741329 18.909492 1.507704
v -2.576263 19.118923 1.814547
v 2.479479 5.505802 -2.527238
v 2.566593 5.466952 -1.867555
v 3.169620 5.505802 -1.837096
v 3.151160 6.782575 -2.508779
v 3.505711 2.244332 1.456222
v 3.505711 1.683249 2.774504
v 2.187430 2.244332 2.774504
v 3.365347 2.388148 2.634140
vt 0.509058 0.788345
vt 0.522438 0.805271
vt 0.496813 0.796375
vt 0.499723 0.768342
vt 0.449201 0.505327
vt 0.447360 0.615604
vt 0.324802 0.613558
vt 0.326643 0.503281
vt 0.573946 0.539683
vt 0.497110 0.605971
vt 0.456790 0.583437
vt 0.541277 0.502526
vt 0.428491 0.701203
vt 0.473537 0.698576
vt 0.512103 0.615855
vt 0.492079 0.696949
vt 0.575821 0.560519
vt 0.711216 0.306176
vt 0.713600 0.221249
vt 0.755958 0.220280
vt 0.753516 0.307228
vt 0.705693 0.136658
vt 0.747862 0.133675
vt 0.755316 0.384856
vt 0.750726 0.396170
vt 0.734081 0.392743
vt 0.746598 0.379866
vt 0.347499 0.896131
vt 0.414944 0.947771
vt 0.409804 0.975224
vt 0.322337 0.908254
vt 0.478761 0.891708
vt 0.502213 0.894916
vt 0.442562 0.823145
vt 0.442617 0.818723
vt 0.456711 0.794591
vt 0.276457 0.845647
vt 0.278298 0.735370
vt 0.321817 0.736096
vt 0.319975 0.846373
vt 0.281284 0.612832
vt 0.283125 0.502555
vt 0.275351 0.968216
vt 0.318870 0.968943
vt 0.683028 0.590424
vt 0.745519 0.611524
vt 0.738862 0.629511
vt 0.658484 0.603131
vt 0.866561 0.622121
vt 0.931406 0.607486
vt 0.953038 0.625516
vt 0.869124 0.642934
vt 0.803876 0.671043
vt 0.799816 0.637427
vt 0.807247 0.624154
vt 0.813898 0.639584
vt 0.684082 0.724816
vt 0.746131 0.692536
vt 0.745819 0.707071
vt 0.684606 0.740222
vt 0.862910 0.691712
vt 0.918921 0.736176
vt 0.920886 0.753375
vt 0.861597 0.700954
vt 0.804348 0.686258
vt 0.801139 0.695104
vt 0.657094 0.712548
vt 0.735628 0.675121
vt 0.874791 0.677430
vt 0.947769 0.731828
vt 0.802479 0.674611
vt 0.779715 0.371205
vt 0.793717 0.295899
vt 0.840791 0.300516
vt 0.825356 0.383544
vt 0.782575 0.141091
vt 0.758305 0.068488
vt 0.801747 0.049828
vt 0.828505 0.129876
vt 0.794497 0.216710
vt 0.841650 0.213249
vt 0.803895 0.603409
vt 0.867846 0.609116
vt 0.806065 0.617104
vt 0.748399 0.593129
vt 0.440013 0.429002
vt 0.431547 0.335105
vt 0.534092 0.328392
vt 0.542104 0.417266
vt 0.432822 0.141991
vt 0.442589 0.048220
vt 0.544508 0.061370
vt 0.535263 0.150125
vt 0.921125 0.369828
vt 0.850464 0.348678
vt 0.863816 0.287702
vt 0.937538 0.294858
vt 0.858118 0.135452
vt 0.843938 0.069708
vt 0.915079 0.049804
vt 0.931209 0.125715
vt 0.868322 0.211302
vt 0.942545 0.209981
vt 0.673440 0.881000
vt 0.740867 0.868184
vt 0.738715 0.886828
vt 0.684783 0.893980
vt 0.791969 0.843953
vt 0.795074 0.875845
vt 0.858771 0.838595
vt 0.857917 0.864458
vt 0.926866 0.891980
vt 0.908618 0.899633
vt 0.741034 0.907116
vt 0.674022 0.915144
vt 0.805383 0.901371
vt 0.547172 0.397354
vt 0.576509 0.312862
vt 0.653211 0.336317
vt 0.621895 0.426393
vt 0.599359 0.226490
vt 0.678098 0.244134
vt 0.643223 0.146604
vt 0.610396 0.160546
vt 0.610035 0.141067
vt 0.612976 0.124922
vt 0.679394 0.811839
vt 0.742090 0.756819
vt 0.755049 0.788162
vt 0.704335 0.823155
vt 0.810689 0.748666
vt 0.813970 0.774757
vt 0.877653 0.768565
vt 0.868581 0.788125
vt 0.942028 0.835618
vt 0.910547 0.831299
vt 0.759900 0.804515
vt 0.716369 0.835297
vt 0.709211 0.830986
vt 0.813691 0.791416
vt 0.859683 0.804476
vt 0.906995 0.839800
vt 0.896423 0.845274
vt 0.931301 0.586578
vt 0.933264 0.600643
vt 0.695370 0.052327
vt 0.726862 0.048864
vt 0.738951 0.060808
vt 0.702466 0.390684
vt 0.682937 0.583412
vt 0.687320 0.573075
vt 0.694005 0.146327
vt 0.854799 0.878552
vt 0.850764 0.883053
vt 0.912285 0.931192
vt 0.855769 0.888089
vt 0.608113 0.057394
vt 0.687752 0.049966
vt 0.384923 0.824499
vt 0.385420 0.829492
vt 0.375761 0.798097
vt 0.920419 0.373126
vt 0.847021 0.364768
vt 0.924845 0.373202
vt 0.758305 0.122283
vt 0.760935 0.110815
vt 0.769222 0.109967
vt 0.428155 0.252055
vt 0.453736 0.237234
vt 0.530451 0.239231
vt 0.428363 0.222059
vt 0.579694 0.865691
vt 0.521380 0.780315
vt 0.583824 0.845143
vt 0.544961 0.897316
vt 0.467633 0.814218
vn 0.680634 0.271064 0.680633
vn 0.680634 0.271064 0.680633
vn 0.680634 0.271064 0.680633
vn 0.680634 0.271064 0.680633
vn 0.000000 1.000000 0.000000
vn 0.000000 1.000000 0.000000
vn 0.000000 1.000000 0.000000
vn 0.000000 1.000000 0.000000
vn -1.000000 0.000000 0.000000
vn -1.000000 0.000000 0.000000
vn -1.000000 0.000000 0.000000
vn -1.000000 0.000000 0.000000
vn 0.000000 0.000000 -1.000000
vn 0.000000 0.000000 -1.000000
vn 0.000000 0.000000 -1.000000
vn 0.000000 0.000000 -1.000000
vn 0.000000 1.000000 -0.000002
vn 0.000000 1.000000 -0.000002
vn 0.000000 1.000000 -0.000002
vn 0.000000 1.000000 -0.000002
vn -0.000002 1.000000 0.000000
vn -0.000002 1.000000 0.000000
vn -0.000002 1.000000 0.000000
vn -0.000002 1.000000 0.000000
vn 1.000000 0.000000 0.000000
vn 1.000000 0.000000 0.000000
vn 0.999792 0.020418 0.000000
vn 0.999792 0.020418 0.000000
vn 0.000000 0.000000 -1.000000
vn 0.000000 0.020418 -0.999792
vn 0.000000 0.000000 -1.000000
vn 0.000000 0.020418 -0.999792
vn -0.306234 0.823799 0.477049
vn -0.306234 0.823799 0.477050
vn -0.306234 0.823799 0.477049
vn -0.306234 0.823799 0.477049
vn 0.000002 -1.000000 0.000000
vn 0.000002 -1.000000 0.000000
vn 0.000002 -1.000000 0.000000
vn 0.000002 -1.000000 0.000000
vn 0.000000 -1.000000 0.000000
vn 0.000000 -1.000000 0.000000
vn 0.000000 -1.000000 0.000000
vn 0.000000 -1.000000 0.000000
vn -0.000002 -1.000000 0.000000
vn -0.000002 -1.000000 0.000000
vn -0.000002 -1.000000 0.000000
vn -0.564554 -0.825162 0.019644
vn -0.564554 -0.825162 0.019644
vn 1.000000 0.000000 0.000000
vn 1.000000 0.000000 0.000000
vn 1.000000 0.000000 0.000000
vn 1.000000 0.000000 0.000000
vn 0.000000 0.000000 -1.000000
vn 0.000000 0.000000 -1.000000
vn 0.000000 0.000000 -1.000000
vn 0.000000 0.000000 -1.000000
vn -1.000000 0.000000 0.000000
vn -1.000000 0.000000 0.000000
vn -1.000000 0.000000 0.000000
vn -1.000000 0.000000 0.000000
vn 0.000000 0.000000 1.000000
vn 0.000000 0.000000 1.000000
vn 0.000000 0.000000 1.000000
vn 0.000000 0.000000 1.000000
vn 0.000000 0.016460 0.999865
vn 0.000000 -0.016633 0.999862
vn 0.000000 0.016460 0.999865
vn 0.000000 -0.016633 0.999862
vn -0.999865 0.016460 0.000000
vn -0.999865 0.016460 0.000000
vn -0.999862 -0.016633 0.000000
vn -0.999862 -0.016633 0.000000
vn 0.590477 -0.550159 -0.590476
vn 0.590477 -0.550159 -0.590476
vn 0.590477 -0.550159 -0.590476
vn 0.590477 -0.550159 -0.590476
vn 0.000000 -0.001222 0.999999
vn 0.000000 -0.001222 0.999999
vn 0.000000 -0.025995 0.999662
vn 0.000000 -0.025995 0.999662
vn -0.999999 -0.001222 0.000000
vn -0.999999 -0.001222 0.000000
vn -0.999662 -0.025995 0.000000
vn -0.999662 -0.025995 0.000000
vn 0.000000 -0.001222 -0.999999
vn 0.000000 -0.001222 -0.999999
vn 0.000000 -0.025995 -0.999662
vn 0.000000 -0.025995 -0.999662
vn 0.999999 -0.001221 0.000000
vn 0.999662 -0.025995 0.000000
vn 0.999999 -0.001221 0.000000
vn 0.999662 -0.025995 0.000000
vn 0.000000 0.017974 0.999838
vn 0.000000 0.017974 0.999838
vn 0.000000 -0.001222 0.999999
vn 0.000000 -0.001222 0.999999
vn -0.999838 0.017974 0.000000
vn -0.999999 -0.001222 0.000000
vn -0.999838 0.017974 0.000000
vn -0.999999 -0.001222 0.000000
vn 0.000000 0.017974 -0.999838
vn 0.000000 -0.001222 -0.999999
vn 0.000000 0.017974 -0.999838
vn 0.000000 -0.001222 -0.999999
vn 0.999838 0.017974 0.000000
vn 0.999838 0.017974 0.000000
vn 0.999999 -0.001221 0.000000
vn 0.999999 -0.001221 0.000000
vn 0.000000 -0.025995 0.999662
vn 0.000000 -0.025995 0.999662
vn -0.022385 -0.085690 0.996070
vn -0.022385 -0.085690 0.996070
vn -0.999662 -0.025995 0.000000
vn -0.999662 -0.025995 0.000000
vn -0.996524 -0.083305 0.000000
vn -0.996524 -0.083305 0.000000
vn 0.000000 -0.025995 -0.999662
vn 0.000000 -0.025995 -0.999662
vn 0.000000 -0.083305 -0.996524
vn 0.000000 -0.083305 -0.996524
vn 0.999662 -0.025995 0.000000
vn 0.996524 -0.083305 0.000000
vn 0.999662 -0.025995 0.000000
vn 0.996524 -0.083305 0.000000
vn 0.000000 0.020418 -0.999792
vn 0.000000 0.020418 -0.999792
vn 0.000000 0.016461 -0.999865
vn 0.000000 0.016461 -0.999865
vn 0.999792 0.020418 0.000000
vn 0.999792 0.020418 0.000000
vn 0.999865 0.016461 0.000000
vn 0.999865 0.016461 0.000000
vn 0.000000 -0.016633 0.999862
vn 0.000000 -0.016633 0.999862
vn 0.000000 0.017974 0.999838
vn 0.000000 0.017974 0.999838
vn -0.999862 -0.016633 0.000000
vn -0.999862 -0.016633 0.000000
vn -0.999838 0.017974 0.000000
vn -0.999838 0.017974 0.000000
vn -0.030092 -0.003055 0.999542
vn -0.030092 -0.003055 0.999542
vn -0.030092 -0.003055 0.999543
vn 0.000000 0.000000 1.000000
vn -0.998460 0.039713 0.038733
vn -0.998460 0.039713 0.038733
vn -0.998460 0.039713 0.038733
vn -1.000000 0.000000 0.000000
vn 0.000000 -0.077158 -0.997019
vn 0.000000 0.000000 -1.000000
vn 0.000000 -0.077158 -0.997019
vn 0.000000 0.000000 -1.000000
vn 0.993249 -0.116004 0.000000
vn 0.993249 -0.116004 0.000000
vn 1.000000 0.000000 0.000000
vn 1.000000 0.000000 0.000000
vn -0.014742 0.772555 0.634776
vn -0.014742 0.772555 0.634776
vn -0.014742 0.772555 0.634776
vn -0.014742 0.772555 0.634776
vn 0.413935 0.910307 0.000000
vn 0.413935 0.910307 0.000000
vn 0.413935 0.910307 0.000000
vn 0.413935 0.910307 0.000000
vn 0.003685 0.932554 -0.361013
vn 0.003685 0.932554 -0.361013
vn 0.003685 0.932554 -0.361013
vn 0.003685 0.932554 -0.361013
vn -0.568901 0.822406 0.000000
vn -0.568901 0.822406 0.000000
vn -0.568901 0.822406 0.000000
vn -0.568901 0.822406 0.000000
vn -0.002860 -0.958074 0.286506
vn -0.002860 -0.958074 0.286506
vn -0.002860 -0.958074 0.286506
vn -0.002860 -0.958074 0.286506
vn 0.270628 -0.962684 0.000000
vn 0.270628 -0.962684 0.000000
vn 0.270628 -0.962684 0.000000
vn 0.270628 -0.962684 0.000000
vn 0.000000 -0.036636 0.999329
vn 0.000000 -0.036636 0.999329
vn 0.000000 -0.036636 0.999329
vn 0.000000 -0.036636 0.999329
vn 0.999329 -0.036637 0.000000
vn 0.999329 -0.036637 0.000000
vn 0.999329 -0.036637 0.000000
vn 0.999329 -0.036637 0.000000
vn -0.587540 -0.556412 -0.587539
vn -0.587540 -0.556412 -0.587539
vn -0.587540 -0.556412 -0.587539
vn -0.587540 -0.556412 -0.587539
vn 0.000000 0.953586 0.301122
vn 0.000000 0.953586 0.301122
vn 0.000000 0.953586 0.301122
vn 0.000000 0.953586 0.301122
vn 0.287064 0.957911 0.000000
vn 0.287064 0.957911 0.000000
vn 0.287064 0.957911 0.000000
vn 0.287064 0.957911 0.000000
vn 0.000000 0.918620 -0.395142
vn 0.000000 0.918620 -0.395142
vn 0.000000 0.918620 -0.395142
vn 0.000000 0.918620 -0.395142
vn -0.420984 0.907068 0.000000
vn -0.420984 0.907068 0.000000
vn -0.420984 0.907068 0.000000
vn -0.420984 0.907068 0.000000
vn -0.014296 -0.629452 0.776908
vn -0.014296 -0.629452 0.776908
vn -0.014296 -0.629452 0.776908
vn -0.014296 -0.629452 0.776908
vn -0.014296 -0.629452 0.776908
vn 0.762378 -0.647132 0.000000
vn 0.762378 -0.647132 0.000000
vn 0.762378 -0.647132 0.000000
vn 0.762378 -0.647132 0.000000
vn 0.000000 -0.647132 -0.762378
vn 0.000000 -0.647131 -0.762379
vn 0.000000 -0.647132 -0.762378
vn 0.000000 -0.647131 -0.762379
vn -0.759045 -0.649607 0.043152
vn -0.759045 -0.649607 0.043152
vn -0.759045 -0.649607 0.043152
vn -0.759045 -0.649607 0.043152
vn -0.759045 -0.649607 0.043152
vn -0.500410 0.865165 0.032862
vn -0.500410 0.865165 0.032862
vn -0.999792 0.020418 0.000000
vn -0.999865 0.016460 0.000000
vn -0.999865 0.016460 0.000000
vn -0.999792 0.020418 0.000000
vn -1.000000 0.000000 0.000000
vn -0.999718 0.023579 0.002921
vn -1.000000 0.000000 0.000000
vn -0.999718 0.023579 0.002921
vn 0.000000 0.020418 0.999792
vn -0.005578 0.057844 0.998310
vn 0.000000 0.000000 1.000000
vn 0.000000 0.000000 1.000000
vn -0.005578 0.057844 0.998310
vn 0.000000 0.020418 0.999792
vn 0.000000 0.016460 0.999865
vn -0.021254 0.885415 0.464316
vn -0.021254 0.885415 0.464316
vn 0.000000 0.016460 0.999865
vn 0.011893 -0.032880 -0.999389
vn 0.011893 -0.032880 -0.999389
vn 0.011893 -0.032880 -0.999389
vn 0.011893 -0.032880 -0.999389
vn 0.011893 -0.032880 -0.999389
vn -0.008266 -0.966252 -0.257467
vn -0.008266 -0.966252 -0.257467
vn -0.008266 -0.966252 -0.257467
vn -0.008266 -0.966252 -0.257467
vn -0.008266 -0.966252 -0.257467
vn -0.273370 -0.961780 -0.015754
vn -0.273370 -0.961780 -0.015754
vn -0.273370 -0.961780 -0.015754
vn -0.273370 -0.961780 -0.015754
vn -0.273370 -0.961780 -0.015754
vn -0.999306 -0.037194 -0.001768
vn -0.999307 -0.037194 -0.001768
vn -0.999306 -0.037194 -0.001768
vn -0.999307 -0.037194 -0.001768
vn -0.999307 -0.037194 -0.001768
vn 0.000000 -1.000000 0.000000
vn 0.000000 -1.000000 0.000000
vn 0.000000 -1.000000 0.000000
vn -0.014987 -0.786671 0.617191
vn -0.014987 -0.786671 0.617190
vn -0.513554 -0.012157 0.857971
vn -0.513554 -0.012157 0.857971
vn -0.513554 -0.012157 0.857971
vn -0.513554 -0.012157 0.857971
vn -0.167467 -0.945344 0.279786
vn -0.167467 -0.945344 0.279786
vn -0.167467 -0.945344 0.279786
vn -0.390872 -0.648680 0.653019
vn -0.390872 -0.648680 0.653019
vn -0.390872 -0.648680 0.653019
vn 0.999862 -0.016633 0.000000
vn 0.999695 0.024666 0.001436
vn 0.999838 0.017974 0.000000
vn 0.999695 0.024666 0.001436
vn 0.999838 0.017974 0.000000
vn 0.339488 -0.940311 -0.023726
vn 0.999862 -0.016633 0.000000
vn 0.339488 -0.940311 -0.023727
vn 0.999865 0.016461 0.000000
vn 0.999865 0.016461 0.000000
vn 0.008489 -0.956857 -0.290436
vn 0.008489 -0.956857 -0.290436
vn 0.000000 -0.016633 -0.999862
vn 0.000000 0.016461 -0.999865
vn 0.000000 0.016461 -0.999865
vn 0.000000 -0.016633 -0.999862
vn 0.000000 0.017974 -0.999838
vn -0.015138 0.040841 -0.999051
vn -0.015138 0.040841 -0.999051
vn 0.000000 0.017974 -0.999838
vn 0.000000 1.000000 0.000002
vn 0.000000 0.698465 0.715644
vn 0.000000 1.000000 0.000002
vn 0.000000 0.698465 0.715644
vn 0.000000 1.000000 0.000002
vn 0.000000 0.000000 1.000000
vn 0.000000 0.000000 1.000000
vn 0.000000 0.000000 1.000000
vn 0.000000 0.000000 1.000000
vn 0.000000 0.000000 1.000000
vn 1.000000 0.000000 0.000000
vn 1.000000 0.000000 0.000000
vn 1.000000 0.000000 0.000000
vn 1.000000 0.000000 0.000000
vn 1.000000 0.000000 0.000000
vn 0.000002 1.000000 0.000000
vn 0.000002 1.000000 0.000000
vn 0.715644 0.698466 0.000000
vn 0.715644 0.698466 0.000000
vn 0.000002 1.000000 0.000000
s 1
g WallEndStonePillar1
usemtl WallEndStonePillar:phong3SG
f 87/2/1 86/3/2 88/1/3
f 88/1/3 86/3/2 85/4/4
s 2
f 19/5/5 20/6/6 22/8/7
f 22/8/7 20/6/6 21/7/8
s 3
f 4/9/9 5/10/10 6/12/11
f 6/12/11 5/10/10 7/11/12
s 4
f 2/13/13 7/11/14 3/14/15
f 3/14/15 7/11/14 5/10/16
s 5
f 3/14/17 5/10/18 9/16/19
f 9/16/19 5/10/18 10/15/20
s 6
f 5/10/21 4/9/22 10/15/23
f 10/15/23 4/9/22 11/17/24
s 7
f 8/18/25 9/19/26 39/21/27
f 39/21/27 9/19/26 41/20/28
s 8
f 10/22/29 40/23/30 9/19/31
f 9/19/31 40/23/30 41/20/32
s 9
f 70/24/33 68/25/34 69/27/35
f 69/27/35 68/25/34 67/26/36
s 10
f 12/28/37 13/29/38 15/31/39
f 15/31/39 13/29/38 16/30/40
s 11
f 14/32/41 17/33/42 13/29/43
f 13/29/43 17/33/42 16/30/44
s 12
f 17/33/45 14/32/46 18/36/47
f 14/32/46 77/34/48 18/36/47
f 77/34/48 76/35/49 18/36/47
s 13
f 15/37/50 16/38/51 19/40/52
f 19/40/52 16/38/51 20/39/53
s 14
f 16/38/54 17/41/55 20/39/56
f 20/39/56 17/41/55 21/7/57
s 15
f 17/41/58 18/42/59 21/7/60
f 21/7/60 18/42/59 22/8/61
s 16
f 15/37/62 19/40/63 18/43/64
f 18/43/64 19/40/63 22/44/65
s 17
f 23/46/66 42/47/67 24/45/68
f 24/45/68 42/47/67 43/48/69
s 18
f 25/49/70 24/50/71 44/52/72
f 44/52/72 24/50/71 43/51/73
s 19
f 84/53/74 83/54/75 81/56/76
f 81/56/76 83/54/75 82/55/77
s 20
f 28/57/78 27/58/79 36/60/80
f 36/60/80 27/58/79 35/59/81
s 21
f 29/61/82 28/62/83 37/64/84
f 37/64/84 28/62/83 36/63/85
s 22
f 30/65/86 29/61/87 38/66/88
f 38/66/88 29/61/87 37/64/89
s 23
f 30/65/90 38/66/91 27/58/92
f 27/58/92 38/66/91 35/59/93
s 24
f 32/67/94 31/68/95 28/57/96
f 28/57/96 31/68/95 27/58/97
s 25
f 32/70/98 28/62/99 33/69/100
f 33/69/100 28/62/99 29/61/101
s 26
f 33/69/102 29/61/103 34/71/104
f 34/71/104 29/61/103 30/65/105
s 27
f 31/68/106 34/71/107 27/58/108
f 27/58/108 34/71/107 30/65/109
s 28
f 36/72/110 35/73/111 46/75/112
f 46/75/112 35/73/111 45/74/113
s 29
f 37/76/114 36/77/115 47/79/116
f 47/79/116 36/77/115 46/78/117
s 30
f 38/80/118 37/76/119 48/81/120
f 48/81/120 37/76/119 47/79/121
s 31
f 38/80/122 48/81/123 35/73/124
f 35/73/124 48/81/123 45/74/125
s 32
f 41/82/126 40/83/127 26/84/128
f 26/84/128 40/83/127 25/49/129
s 33
f 39/85/130 41/82/131 23/46/132
f 23/46/132 41/82/131 26/84/133
s 34
f 43/86/134 42/87/135 32/89/136
f 32/89/136 42/87/135 31/88/137
s 35
f 44/90/138 43/91/139 33/93/140
f 33/93/140 43/91/139 32/92/141
s 36
f 80/95/142 64/96/143 75/94/144
f 75/94/144 64/96/143 12/97/145
s 37
f 78/99/146 77/100/147 66/98/148
f 66/98/148 77/100/147 14/101/149
s 38
f 66/98/150 14/101/151 65/102/152
f 65/102/152 14/101/151 13/103/153
s 39
f 64/96/154 65/102/155 12/97/156
f 12/97/156 65/102/155 13/103/157
s 40
f 45/105/158 52/106/159 46/104/160
f 46/104/160 52/106/159 53/107/161
s 41
f 48/108/162 55/109/163 45/105/164
f 45/105/164 55/109/163 52/106/165
s 42
f 48/108/166 47/110/167 55/109/168
f 55/109/168 47/110/167 54/111/169
s 43
f 47/110/170 46/112/171 54/111/172
f 54/111/172 46/112/171 53/113/173
s 44
f 53/107/174 52/106/175 49/115/176
f 49/115/176 52/106/175 50/114/177
s 45
f 52/106/178 55/109/179 50/114/180
f 50/114/180 55/109/179 51/116/181
s 46
f 49/117/182 50/118/183 56/120/184
f 56/120/184 50/118/183 57/119/185
s 47
f 50/118/186 51/121/187 57/119/188
f 57/119/188 51/121/187 58/122/189
s 48
f 73/126/190 74/123/191 71/125/192
f 74/123/191 72/124/193 71/125/192
s 49
f 57/128/194 61/129/195 56/127/196
f 56/127/196 61/129/195 60/130/197
s 50
f 57/128/198 58/131/199 61/129/200
f 61/129/200 58/131/199 62/132/201
s 51
f 58/131/202 59/133/203 62/132/204
f 62/132/204 59/133/203 63/134/205
s 52
f 56/135/206 60/136/207 59/133/208
f 59/133/208 60/136/207 63/134/209
s 53
f 64/137/210 80/138/211 61/129/212
f 60/130/213 61/129/212 79/139/214
f 61/129/212 80/138/211 79/139/214
s 54
f 61/129/215 62/132/216 64/137/217
f 64/137/217 62/132/216 65/140/218
s 55
f 62/132/219 63/134/220 65/140/221
f 65/140/221 63/134/220 66/141/222
s 56
f 66/141/223 63/134/224 78/143/225
f 78/143/225 63/134/224 79/142/226
f 63/134/224 60/136/227 79/142/226
s 57
f 68/144/228 70/145/229 40/83/230
f 70/145/229 24/50/231 40/83/230
f 40/83/230 24/50/231 25/49/232
s 58
f 40/23/233 10/22/234 68/148/235
f 11/146/236 67/147/237 10/22/234
f 10/22/234 67/147/237 68/148/235
s 59
f 39/21/238 69/27/239 8/18/240
f 11/149/241 8/18/240 67/26/242
f 8/18/240 69/27/239 67/26/242
s 60
f 39/85/243 23/46/244 69/151/245
f 69/151/245 23/46/244 70/150/246
f 70/150/246 23/46/244 24/45/247
s 61
f 59/152/248 58/122/249 74/123/250
f 74/123/250 58/122/249 72/124/251
f 51/121/252 72/124/251 58/122/249
s 62
f 51/116/253 55/109/254 72/154/255
f 71/153/256 72/154/255 54/111/257
f 55/109/254 54/111/257 72/154/255
s 63
f 49/155/258 73/156/259 53/113/260
f 71/153/261 54/111/262 73/156/259
f 54/111/262 53/113/260 73/156/259
s 64
f 56/158/263 59/152/264 49/157/265
f 59/152/264 74/123/266 49/157/265
f 74/123/266 73/126/267 49/157/265
s 65
f 15/31/268 18/161/269 12/28/270
f 12/28/270 18/161/269 75/160/271
f 76/159/272 75/160/271 18/161/269
s 66
f 75/94/273 77/162/274 80/95/275
f 80/95/275 77/162/274 78/163/276
s off
f 75/94/277 76/164/278 77/162/279
f 78/165/280 79/166/281 80/167/282
s 67
f 42/87/283 83/168/284 31/88/285
f 83/168/284 84/169/286 31/88/285
f 84/169/286 34/170/287 31/88/285
s 68
f 83/54/288 42/47/289 82/55/290
f 82/55/290 42/47/289 26/84/291
f 23/46/292 26/84/291 42/47/289
s 69
f 81/56/293 82/55/294 44/52/295
f 82/55/294 26/84/296 44/52/295
f 26/84/296 25/49/297 44/52/295
s 70
f 44/90/298 33/93/299 81/171/300
f 81/171/300 33/93/299 84/169/301
f 84/169/301 33/93/299 34/170/302
s 71
f 4/172/303 87/2/304 11/174/305
f 88/1/306 8/173/307 87/2/304
f 87/2/304 8/173/307 11/174/305
s 72
f 6/175/308 1/176/309 4/172/310
f 86/3/311 87/2/312 1/176/309
f 1/176/309 87/2/312 4/172/310
s 73
f 1/176/313 2/13/314 86/3/315
f 86/3/315 2/13/314 85/4/316
f 2/13/314 3/14/317 85/4/316
s 74
f 3/14/318 9/16/319 85/4/320
f 88/1/321 85/4/320 8/173/322
f 85/4/320 9/16/319 8/173/322
